<svg xmlns="http://www.w3.org/2000/svg" viewBox="0 -0.5 500 500" shape-rendering="crispEdges">
<path stroke="#ffffff" d="M190 17h54M171 18h93M153 19h131M135 20h210M347 20h2M23 21h44M95 21h103M310 21h80M23 22h147M347 22h42M408 22h20M23 23h123M427 23h14M23 24h7M41 24h73M448 24h22M23 25h2M454 25h19M23 26h2M472 26h1M23 27h3M472 27h1M23 28h3M472 28h1M23 29h3M471 29h2M23 30h3M471 30h3M23 31h3M471 31h3M22 32h4M471 32h3M22 33h4M471 33h3M22 34h4M471 34h3M22 35h4M471 35h3M22 36h4M471 36h3M22 37h4M471 37h3M22 38h4M471 38h3M22 39h4M471 39h3M22 40h4M471 40h3M23 41h3M471 41h3M23 42h3M471 42h3M23 43h3M471 43h3M23 44h3M471 44h3M23 45h3M471 45h3M23 46h3M471 46h3M23 47h3M471 47h3M23 48h3M471 48h3M23 49h3M471 49h3M23 50h3M471 50h3M23 51h3M471 51h3M23 52h3M471 52h3M23 53h3M471 53h3M23 54h3M471 54h3M23 55h3M471 55h3M23 56h3M471 56h3M23 57h3M471 57h3M23 58h3M471 58h3M23 59h3M471 59h3M24 60h2M471 60h3M24 61h2M471 61h3M24 62h2M471 62h3M24 63h2M471 63h3M24 64h2M471 64h3M24 65h2M471 65h3M24 66h2M471 66h3M24 67h2M471 67h3M24 68h2M471 68h3M24 69h2M471 69h3M24 70h2M471 70h3M24 71h2M471 71h3M24 72h2M471 72h3M24 73h2M471 73h3M24 74h2M471 74h3M24 75h2M471 75h3M24 76h2M471 76h3M24 77h2M471 77h3M24 78h2M471 78h3M24 79h2M471 79h3M24 80h2M471 80h3M24 81h2M471 81h3M24 82h2M471 82h3M24 83h2M471 83h3M24 84h2M471 84h3M24 85h2M471 85h3M24 86h2M471 86h3M24 87h2M471 87h3M24 88h2M471 88h3M24 89h2M471 89h3M24 90h2M471 90h3M24 91h2M471 91h3M24 92h2M471 92h3M24 93h2M471 93h3M24 94h2M471 94h3M24 95h2M471 95h3M25 96h1M471 96h2M25 97h1M471 97h3M25 98h1M471 98h3M25 99h1M471 99h2M25 100h1M471 100h2M25 101h1M471 101h2M25 102h1M471 102h2M25 103h1M471 103h2M25 104h1M471 104h2M25 105h1M471 105h2M25 106h1M471 106h2M25 107h1M471 107h2M25 108h1M471 108h2M25 109h1M471 109h2M25 110h1M471 110h2M25 111h1M471 111h2M25 112h1M471 112h2M25 113h1M471 113h2M25 114h1M472 114h1M25 115h1M25 116h1M25 117h1M25 118h1M471 118h1M25 119h1M471 119h2M25 120h1M471 120h2M25 121h1M471 121h2M25 122h1M471 122h2M25 123h1M471 123h2M25 124h1M471 124h2M471 125h2M471 126h2M471 127h2M471 128h2M471 129h2M471 130h1M471 131h1M471 132h1M25 134h1M25 135h1M25 136h1M25 137h1M25 138h1M471 141h1M471 142h1M471 143h1M471 144h1M24 293h1M24 294h1M24 295h1M24 296h1M473 296h1M24 297h2M473 297h1M24 298h2M473 298h1M24 299h2M473 299h1M24 300h2M473 300h1M24 301h2M473 301h1M24 302h2M473 302h1M24 303h2M473 303h1M24 304h2M473 304h1M24 305h2M473 305h1M24 306h2M473 306h1M24 307h2M473 307h1M24 308h2M473 308h1M24 309h2M473 309h1M24 310h2M473 310h1M24 311h2M473 311h1M24 312h2M473 312h1M24 313h2M473 313h1M24 314h2M473 314h1M24 315h2M473 315h1M24 316h2M473 316h2M24 317h2M473 317h2M24 318h2M473 318h2M24 319h1M473 319h2M24 320h1M473 320h2M24 321h1M473 321h2M24 322h1M473 322h2M24 323h2M471 323h4M24 324h2M471 324h4M24 325h2M471 325h4M24 326h2M471 326h4M24 327h2M471 327h4M24 328h2M471 328h4M24 329h2M471 329h4M24 330h2M471 330h3M24 331h2M471 331h3M24 332h2M471 332h3M24 333h2M471 333h3M24 334h2M471 334h3M24 335h2M471 335h3M24 336h2M471 336h3M24 337h2M471 337h3M24 338h2M471 338h3M24 339h2M471 339h3M24 340h2M471 340h3M24 341h3M471 341h3M24 342h3M471 342h3M24 343h3M471 343h3M24 344h3M471 344h3M24 345h3M471 345h3M24 346h3M471 346h3M24 347h3M471 347h3M24 348h3M471 348h3M24 349h3M471 349h3M24 350h3M471 350h3M24 351h3M471 351h3M24 352h3M471 352h3M24 353h3M471 353h4M24 354h3M471 354h4M24 355h3M471 355h4M24 356h3M471 356h4M24 357h3M471 357h4M24 358h3M471 358h4M24 359h3M471 359h4M24 360h3M471 360h4M24 361h3M471 361h4M24 362h3M471 362h4M24 363h3M471 363h4M24 364h3M471 364h4M24 365h3M471 365h4M24 366h3M471 366h4M24 367h3M471 367h4M24 368h3M471 368h4M24 369h3M471 369h4M24 370h3M471 370h4M24 371h3M471 371h4M24 372h3M471 372h4M24 373h3M471 373h4M24 374h3M471 374h4M24 375h3M471 375h4M24 376h4M471 376h4M24 377h4M471 377h4M24 378h4M471 378h4M24 379h4M471 379h4M24 380h4M471 380h4M24 381h4M471 381h4M24 382h4M471 382h4M24 383h4M471 383h4M24 384h4M471 384h4M24 385h4M471 385h4M24 386h4M471 386h4M24 387h4M471 387h4M24 388h4M471 388h4M24 389h4M471 389h4M24 390h4M471 390h5M24 391h4M471 391h5M24 392h4M471 392h5M24 393h4M471 393h5M24 394h4M471 394h5M24 395h4M471 395h5M24 396h4M471 396h5M24 397h4M471 397h5M24 398h4M471 398h5M24 399h4M471 399h5M24 400h4M471 400h5M24 401h4M471 401h5M24 402h4M471 402h5M24 403h4M471 403h5M24 404h4M471 404h5M25 405h3M471 405h5M25 406h3M471 406h5M25 407h3M471 407h5M25 408h3M471 408h5M25 409h3M471 409h5M25 410h3M471 410h5M25 411h3M471 411h5M25 412h3M471 412h5M25 413h3M471 413h5M25 414h3M471 414h5M25 415h4M471 415h5M25 416h4M471 416h5M25 417h4M471 417h5M25 418h4M471 418h5M25 419h4M471 419h5M25 420h4M471 420h5M25 421h4M471 421h5M25 422h4M471 422h5M25 423h4M471 423h5M25 424h4M471 424h5M25 425h4M471 425h5M25 426h4M471 426h5M25 427h4M471 427h5M25 428h4M471 428h5M25 429h4M171 429h3M471 429h5M26 430h3M171 430h3M471 430h5M26 431h3M170 431h4M471 431h5M26 432h3M170 432h4M471 432h6M26 433h3M170 433h4M471 433h6M26 434h3M170 434h4M356 434h1M471 434h6M26 435h3M170 435h3M296 435h4M354 435h4M471 435h6M26 436h3M170 436h10M294 436h8M353 436h6M471 436h6M26 437h3M163 437h20M292 437h12M353 437h7M471 437h6M26 438h4M162 438h23M216 438h12M291 438h14M353 438h7M471 438h6M26 439h4M161 439h23M216 439h17M291 439h15M353 439h7M471 439h6M26 440h4M162 440h18M216 440h18M290 440h8M299 440h7M331 440h2M353 440h7M471 440h6M26 441h4M216 441h19M289 441h7M301 441h5M328 441h8M353 441h7M471 441h6M26 442h4M216 442h19M288 442h7M303 442h4M326 442h12M352 442h8M471 442h5M26 443h4M217 443h18M288 443h6M305 443h1M325 443h14M352 443h8M471 443h5M26 444h4M202 444h3M231 444h2M271 444h1M287 444h6M324 444h16M352 444h8M471 444h5M26 445h4M202 445h3M230 445h3M270 445h3M287 445h6M323 445h18M352 445h8M471 445h5M26 446h4M166 446h2M176 446h2M201 446h4M230 446h3M267 446h1M270 446h3M287 446h5M323 446h6M331 446h10M352 446h8M471 446h5M26 447h4M165 447h4M175 447h3M201 447h4M230 447h3M267 447h2M270 447h3M286 447h6M322 447h6M333 447h9M352 447h8M471 447h5M26 448h4M150 448h5M165 448h4M175 448h3M201 448h4M230 448h3M267 448h2M271 448h2M286 448h5M322 448h5M334 448h8M352 448h8M471 448h5M26 449h4M147 449h10M165 449h4M175 449h3M201 449h4M230 449h3M267 449h2M272 449h1M286 449h5M321 449h6M336 449h7M352 449h8M471 449h5M26 450h4M146 450h11M165 450h4M175 450h3M202 450h2M230 450h3M268 450h1M285 450h6M321 450h5M336 450h7M352 450h8M471 450h5M26 451h4M126 451h2M146 451h3M152 451h5M165 451h4M175 451h3M202 451h1M229 451h4M285 451h5M321 451h5M337 451h6M352 451h8M471 451h5M26 452h4M125 452h3M145 452h3M154 452h3M165 452h4M175 452h3M204 452h2M230 452h3M285 452h5M320 452h6M338 452h6M353 452h7M382 452h1M470 452h6M26 453h4M125 453h4M145 453h3M154 453h3M161 453h27M198 453h10M230 453h2M255 453h11M285 453h5M320 453h6M339 453h5M353 453h7M381 453h3M470 453h6M26 454h4M125 454h4M145 454h3M154 454h3M161 454h27M198 454h10M226 454h3M230 454h2M252 454h14M284 454h6M320 454h5M339 454h6M353 454h7M380 454h5M470 454h6M26 455h4M125 455h4M145 455h3M154 455h3M162 455h24M198 455h9M220 455h11M251 455h15M284 455h6M320 455h5M340 455h5M353 455h7M380 455h5M470 455h6M26 456h4M125 456h4M145 456h3M154 456h3M165 456h17M219 456h13M259 456h7M284 456h6M319 456h6M340 456h6M353 456h7M380 456h5M470 456h6M26 457h4M125 457h4M145 457h3M154 457h3M218 457h14M259 457h5M284 457h5M302 457h6M319 457h6M340 457h6M354 457h5M380 457h5M470 457h6M27 458h3M124 458h5M145 458h7M154 458h3M201 458h4M219 458h13M258 458h4M284 458h5M301 458h8M319 458h6M341 458h5M354 458h5M380 458h5M470 458h6M27 459h3M124 459h5M145 459h12M199 459h7M218 459h3M224 459h2M257 459h4M284 459h5M299 459h10M319 459h6M341 459h6M355 459h4M380 459h5M470 459h6M26 460h20M116 460h13M145 460h12M200 460h6M218 460h3M257 460h4M284 460h5M299 460h10M319 460h6M341 460h6M355 460h3M380 460h5M470 460h6M25 461h105M145 461h12M167 461h13M201 461h5M218 461h3M257 461h3M284 461h5M299 461h10M319 461h6M341 461h6M356 461h2M380 461h5M470 461h6M25 462h105M145 462h4M154 462h3M165 462h17M218 462h3M257 462h4M284 462h5M299 462h11M319 462h7M341 462h6M380 462h5M470 462h6M25 463h105M145 463h4M154 463h3M165 463h17M200 463h5M218 463h3M244 463h1M258 463h3M284 463h6M301 463h9M319 463h7M340 463h8M379 463h70M471 463h5M26 464h104M145 464h4M154 464h3M164 464h18M200 464h6M218 464h3M244 464h1M259 464h2M284 464h6M305 464h5M319 464h7M340 464h8M379 464h90M471 464h5M26 465h104M145 465h4M154 465h3M164 465h3M178 465h4M200 465h6M217 465h4M244 465h1M260 465h2M284 465h6M306 465h4M319 465h7M340 465h8M379 465h97M28 466h102M145 466h4M150 466h7M164 466h3M178 466h4M201 466h3M217 466h4M284 466h6M306 466h4M319 466h7M340 466h8M379 466h96M32 467h98M145 467h12M164 467h3M178 467h5M204 467h2M217 467h4M284 467h6M306 467h4M319 467h8M340 467h8M379 467h95M40 468h90M145 468h3M149 468h8M164 468h3M179 468h4M201 468h7M217 468h3M244 468h1M285 468h6M306 468h5M319 468h8M339 468h8M379 468h95M56 469h74M144 469h4M150 469h6M163 469h4M169 469h4M179 469h4M199 469h9M217 469h3M244 469h1M284 469h7M306 469h5M319 469h8M339 469h8M379 469h94M123 470h7M144 470h4M163 470h12M179 470h4M199 470h3M207 470h2M217 470h3M244 470h1M284 470h8M306 470h5M319 470h9M339 470h8M379 470h94M123 471h7M144 471h4M163 471h12M179 471h4M199 471h3M207 471h2M217 471h3M243 471h3M284 471h8M307 471h4M319 471h9M338 471h9M379 471h93M123 472h7M144 472h4M163 472h12M179 472h4M198 472h4M207 472h2M217 472h3M243 472h3M285 472h7M307 472h4M320 472h9M338 472h9M379 472h87M123 473h7M144 473h4M163 473h4M179 473h4M198 473h11M217 473h3M243 473h3M285 473h8M303 473h3M307 473h5M320 473h9M337 473h9M379 473h7M123 474h7M144 474h4M163 474h4M179 474h5M198 474h11M216 474h4M243 474h3M285 474h8M302 474h4M307 474h5M320 474h10M335 474h11M357 474h2M379 474h7M124 475h6M144 475h4M163 475h4M179 475h5M199 475h10M216 475h4M242 475h4M286 475h8M299 475h7M307 475h5M321 475h24M356 475h4M380 475h5M125 476h4M144 476h4M163 476h4M179 476h5M199 476h10M216 476h4M242 476h4M286 476h9M297 476h8M307 476h5M321 476h24M355 476h6M380 476h5M125 477h4M145 477h3M163 477h4M169 477h15M201 477h7M217 477h5M242 477h4M287 477h18M307 477h6M322 477h22M355 477h6M381 477h4M126 478h2M145 478h2M163 478h20M217 478h29M287 478h18M307 478h6M322 478h22M356 478h5M381 478h4M145 479h1M163 479h20M218 479h28M288 479h17M307 479h6M323 479h20M356 479h5M381 479h3M164 480h19M219 480h27M288 480h16M308 480h5M324 480h18M382 480h2M167 481h16M222 481h22M289 481h14M308 481h5M325 481h15M290 482h12M308 482h5M326 482h13M291 483h9M308 483h4M328 483h8M309 484h2M310 485h1" />
</svg>