<svg xmlns="http://www.w3.org/2000/svg" viewBox="0 -0.5 115 45" shape-rendering="crispEdges">
<metadata>Made with Pixels to Svg https://codepen.io/shshaw/pen/XbxvNj</metadata>
<path stroke="#ffffff" d="M74 2h2M83 2h3M71 3h9M81 3h1M83 3h4M70 4h10M83 4h4M70 5h8M83 5h4M7 6h4M69 6h7M82 6h5M6 7h6M23 7h4M69 7h5M81 7h6M6 8h7M22 8h6M69 8h4M80 8h6M7 9h6M22 9h7M69 9h2M79 9h7M8 10h6M23 10h6M51 10h2M77 10h8M9 11h5M23 11h6M50 11h3M76 11h11M99 11h3M9 12h5M23 12h6M49 12h4M74 12h13M100 12h2M8 13h6M23 13h6M49 13h3M71 13h13M100 13h3M8 14h5M23 14h6M48 14h4M69 14h13M84 14h2M100 14h4M106 14h2M6 15h7M23 15h6M48 15h3M68 15h19M101 15h9M5 16h7M23 16h5M48 16h3M52 16h1M69 16h3M73 16h15M101 16h9M5 17h6M23 17h5M34 17h2M48 17h2M51 17h4M73 17h15M101 17h8M5 18h6M17 18h2M23 18h5M33 18h4M47 18h2M50 18h5M73 18h14M99 18h8M5 19h6M16 19h4M23 19h5M33 19h4M47 19h9M74 19h12M98 19h4M103 19h4M6 20h5M15 20h6M24 20h4M33 20h5M46 20h6M53 20h3M69 20h15M98 20h2M104 20h5M6 21h5M15 21h6M24 21h4M33 21h5M46 21h6M53 21h3M66 21h15M103 21h7M5 22h6M16 22h5M24 22h4M33 22h5M47 22h5M53 22h4M63 22h15M83 22h5M102 22h8M5 23h5M16 23h5M25 23h3M29 23h9M47 23h4M53 23h4M62 23h15M79 23h11M101 23h10M5 24h5M16 24h5M24 24h14M47 24h4M53 24h4M63 24h7M71 24h19M107 24h4M5 25h4M16 25h5M24 25h14M48 25h2M53 25h4M70 25h21M106 25h5M6 26h3M15 26h5M21 26h17M53 26h3M57 26h1M69 26h13M87 26h4M108 26h3M7 27h2M15 27h17M33 27h5M53 27h4M67 27h10M81 27h10M99 27h1M7 28h3M15 28h15M33 28h4M52 28h4M66 28h11M79 28h12M98 28h2M7 29h3M15 29h12M34 29h3M52 29h4M65 29h7M73 29h4M78 29h13M97 29h3M7 30h3M15 30h9M34 30h2M37 30h3M52 30h3M64 30h7M73 30h4M78 30h6M87 30h4M97 30h5M7 31h3M16 31h5M36 31h7M52 31h3M63 31h7M73 31h4M81 31h3M87 31h4M98 31h6M4 32h1M7 32h4M39 32h5M51 32h3M62 32h7M73 32h4M79 32h6M87 32h4M99 32h7M4 33h7M40 33h5M51 33h3M61 33h6M73 33h4M78 33h7M87 33h4M100 33h8M5 34h5M41 34h5M50 34h3M60 34h6M73 34h4M79 34h6M87 34h4M102 34h7M6 35h12M40 35h6M50 35h1M52 35h1M59 35h6M73 35h3M78 35h13M104 35h4M8 36h38M58 36h6M77 36h14M10 37h36M57 37h5M77 37h13M15 38h30M57 38h3M77 38h13M20 39h24M85 39h5M28 40h12M84 40h5M83 41h5M83 42h4" />
</svg>