<svg xmlns="http://www.w3.org/2000/svg" viewBox="0 -0.5 300 128" shape-rendering="crispEdges">
<path stroke="#ffffff" d="M51 3h2M43 4h16M40 5h8M56 5h6M37 6h6M60 6h4M34 7h6M62 7h3M32 8h5M64 8h2M30 9h5M62 9h2M65 9h2M28 10h4M62 10h2M65 10h3M26 11h5M62 11h2M66 11h2M25 12h4M61 12h2M66 12h2M23 13h4M61 13h2M66 13h2M21 14h4M61 14h2M66 14h2M20 15h4M60 15h2M65 15h3M19 16h3M59 16h3M66 16h2M17 17h4M59 17h2M66 17h3M16 18h4M58 18h3M66 18h3M15 19h3M57 19h3M66 19h13M14 20h3M57 20h3M66 20h15M13 21h3M56 21h3M67 21h3M78 21h4M12 22h3M55 22h3M67 22h4M80 22h3M11 23h3M54 23h3M68 23h4M81 23h3M10 24h3M53 24h4M69 24h4M83 24h2M9 25h4M52 25h4M69 25h5M83 25h3M9 26h3M51 26h4M70 26h6M84 26h2M8 27h3M50 27h4M71 27h6M84 27h2M7 28h3M49 28h4M71 28h6M85 28h1M7 29h3M47 29h5M72 29h5M85 29h2M6 30h3M46 30h5M72 30h4M85 30h2M6 31h3M45 31h4M72 31h4M85 31h2M5 32h3M43 32h5M71 32h5M85 32h2M5 33h3M41 33h6M71 33h5M85 33h2M5 34h2M40 34h5M71 34h4M85 34h2M5 35h2M38 35h6M70 35h5M85 35h5M4 36h3M36 36h6M70 36h4M85 36h7M4 37h3M34 37h7M69 37h5M85 37h9M4 38h3M32 38h7M69 38h4M84 38h3M88 38h8M4 39h3M29 39h8M68 39h5M84 39h3M91 39h6M249 39h2M5 40h2M26 40h9M68 40h4M84 40h3M93 40h6M247 40h4M5 41h2M23 41h9M67 41h4M84 41h2M92 41h1M95 41h5M246 41h5M5 42h2M18 42h12M66 42h4M83 42h3M92 42h1M96 42h5M245 42h6M5 43h22M65 43h4M83 43h3M97 43h5M244 43h7M5 44h18M65 44h3M82 44h3M87 44h1M93 44h1M98 44h5M224 44h4M242 44h9M6 45h12M64 45h3M82 45h3M87 45h1M93 45h1M99 45h5M224 45h6M241 45h6M248 45h3M7 46h5M15 46h3M62 46h4M81 46h3M87 46h1M93 46h1M100 46h5M224 46h8M240 46h6M247 46h3M8 47h11M61 47h4M79 47h5M88 47h1M94 47h1M100 47h5M224 47h9M238 47h6M247 47h3M9 48h10M60 48h4M79 48h4M88 48h1M94 48h1M100 48h6M224 48h11M237 48h6M247 48h3M10 49h10M59 49h4M79 49h3M83 49h1M88 49h1M94 49h1M101 49h6M224 49h4M230 49h12M247 49h3M11 50h10M57 50h5M78 50h4M83 50h1M89 50h1M95 50h1M101 50h6M225 50h3M231 50h9M246 50h4M12 51h9M56 51h5M77 51h4M89 51h1M95 51h1M101 51h1M103 51h5M225 51h4M233 51h5M246 51h3M13 52h9M54 52h6M76 52h5M84 52h1M89 52h1M95 52h1M102 52h6M225 52h4M235 52h2M246 52h3M14 53h9M53 53h5M75 53h5M84 53h1M90 53h1M96 53h1M102 53h1M104 53h4M225 53h4M246 53h3M15 54h9M51 54h6M74 54h5M90 54h1M96 54h1M102 54h6M226 54h3M246 54h3M15 55h9M50 55h5M73 55h5M85 55h1M90 55h2M96 55h2M103 55h5M226 55h3M245 55h3M16 56h9M48 56h6M72 56h6M85 56h1M91 56h1M97 56h1M103 56h5M218 56h11M245 56h3M16 57h10M47 57h5M71 57h10M91 57h1M97 57h1M104 57h4M214 57h15M245 57h3M14 58h12M45 58h5M70 58h6M78 58h7M97 58h2M104 58h3M212 58h15M245 58h3M13 59h14M43 59h5M69 59h6M82 59h7M92 59h1M98 59h1M103 59h4M211 59h11M246 59h4M12 60h16M40 60h6M67 60h7M85 60h7M98 60h2M105 60h3M211 60h6M247 60h4M12 61h12M25 61h3M37 61h6M66 61h7M90 61h5M98 61h2M106 61h7M211 61h7M248 61h4M11 62h13M26 62h3M35 62h6M65 62h7M99 62h1M108 62h5M212 62h7M249 62h4M10 63h14M27 63h3M34 63h4M63 63h11M87 63h4M99 63h2M102 63h2M109 63h4M214 63h6M229 63h4M250 63h4M10 64h15M27 64h7M62 64h8M72 64h5M84 64h10M100 64h1M103 64h9M215 64h6M227 64h7M251 64h4M10 65h15M28 65h3M61 65h7M73 65h4M83 65h13M101 65h1M103 65h7M217 65h4M226 65h3M231 65h3M252 65h4M9 66h15M29 66h3M60 66h6M67 66h8M82 66h3M94 66h3M102 66h1M104 66h3M224 66h4M232 66h3M253 66h4M9 67h13M31 67h1M59 67h5M69 67h3M81 67h3M95 67h3M106 67h2M198 67h5M223 67h4M233 67h2M242 67h8M254 67h4M9 68h13M58 68h5M81 68h2M95 68h1M97 68h2M107 68h2M197 68h7M221 68h5M233 68h2M243 68h10M255 68h4M8 69h14M57 69h5M80 69h2M95 69h1M97 69h2M108 69h2M197 69h9M220 69h5M233 69h2M242 69h2M245 69h15M8 70h13M55 70h6M80 70h2M96 70h3M108 70h2M197 70h2M202 70h5M218 70h6M232 70h2M241 70h3M247 70h13M8 71h13M53 71h7M80 71h2M96 71h1M98 71h2M109 71h1M196 71h2M205 71h2M217 71h5M231 71h3M241 71h3M250 71h9M8 72h4M14 72h7M51 72h8M80 72h2M96 72h1M98 72h2M102 72h1M107 72h3M196 72h2M205 72h2M215 72h6M230 72h3M241 72h2M9 73h3M15 73h5M49 73h9M80 73h2M98 73h2M102 73h7M195 73h3M204 73h3M214 73h6M229 73h3M240 73h3M9 74h4M15 74h5M47 74h9M80 74h2M98 74h2M103 74h4M195 74h3M204 74h2M213 74h5M228 74h3M240 74h3M10 75h4M15 75h4M44 75h11M80 75h2M98 75h2M104 75h5M194 75h4M204 75h2M211 75h6M227 75h4M232 75h1M239 75h4M11 76h7M24 76h1M39 76h14M76 76h7M98 76h3M105 76h1M107 76h3M194 76h3M204 76h2M210 76h6M226 76h4M232 76h1M239 76h3M13 77h39M75 77h8M97 77h4M105 77h1M109 77h3M194 77h3M203 77h2M209 77h5M225 77h4M231 77h3M239 77h3M14 78h35M58 78h8M74 78h2M81 78h2M98 78h2M101 78h1M110 78h3M193 78h4M203 78h2M208 78h5M224 78h4M231 78h3M238 78h4M16 79h33M56 79h11M68 79h2M73 79h1M82 79h2M97 79h3M101 79h1M106 79h1M111 79h3M193 79h4M203 79h2M207 79h5M223 79h4M231 79h3M238 79h3M18 80h5M27 80h18M47 80h2M55 80h6M67 80h1M69 80h2M72 80h1M82 80h3M97 80h3M101 80h1M106 80h1M111 80h4M193 80h3M202 80h2M206 80h5M222 80h4M231 80h4M237 80h4M17 81h4M28 81h11M40 81h1M44 81h1M47 81h2M54 81h4M70 81h2M83 81h3M96 81h5M102 81h1M107 81h1M113 81h4M193 81h3M202 81h2M205 81h5M220 81h5M232 81h3M237 81h4M17 82h3M33 82h5M40 82h1M44 82h1M47 82h3M53 82h3M71 82h2M84 82h4M95 82h3M100 82h1M102 82h1M107 82h1M112 82h1M115 82h3M192 82h4M201 82h2M204 82h5M219 82h4M232 82h3M237 82h3M17 83h3M29 83h1M35 83h1M40 83h2M48 83h2M53 83h2M72 83h2M85 83h12M100 83h4M107 83h1M112 83h1M116 83h3M192 83h4M201 83h7M218 83h4M232 83h8M17 84h3M29 84h1M35 84h1M40 84h2M45 84h1M48 84h2M52 84h3M72 84h2M87 84h8M100 84h2M103 84h1M108 84h1M113 84h1M116 84h3M192 84h3M200 84h7M217 84h4M232 84h7M17 85h3M29 85h1M35 85h1M41 85h1M45 85h1M48 85h3M52 85h2M73 85h2M90 85h2M100 85h4M105 85h1M108 85h1M113 85h1M117 85h3M191 85h4M200 85h6M216 85h4M233 85h6M17 86h4M29 86h1M35 86h2M41 86h1M45 86h1M48 86h6M73 86h2M101 86h2M104 86h2M109 86h1M113 86h1M118 86h3M191 86h4M199 86h6M215 86h4M233 86h6M17 87h4M29 87h2M35 87h2M41 87h1M45 87h1M48 87h5M73 87h2M101 87h1M104 87h3M109 87h1M114 87h1M119 87h3M191 87h3M199 87h5M207 87h5M213 87h5M233 87h5M18 88h4M30 88h1M36 88h1M41 88h2M46 88h1M49 88h4M73 88h2M101 88h1M104 88h2M107 88h2M114 88h1M119 88h3M190 88h4M200 88h2M205 88h11M234 88h3M18 89h5M30 89h1M36 89h1M41 89h2M46 89h1M49 89h4M73 89h2M101 89h1M104 89h4M109 89h3M114 89h1M119 89h3M189 89h3M202 89h9M212 89h3M19 90h5M30 90h1M36 90h2M41 90h2M46 90h1M49 90h5M73 90h2M100 90h2M104 90h12M119 90h3M188 90h4M201 90h7M213 90h3M20 91h6M30 91h2M36 91h2M42 91h1M46 91h1M49 91h2M52 91h2M73 91h2M100 91h2M104 91h2M107 91h15M187 91h4M199 91h7M213 91h4M22 92h4M30 92h2M36 92h2M42 92h1M48 92h3M52 92h2M72 92h3M100 92h2M104 92h3M108 92h13M186 92h5M198 92h6M214 92h3M15 93h4M23 93h4M31 93h1M37 93h1M42 93h2M48 93h3M52 93h3M72 93h2M100 93h2M104 93h3M111 93h9M185 93h5M197 93h5M215 93h3M14 94h11M26 94h1M31 94h2M37 94h1M42 94h2M48 94h3M53 94h3M71 94h3M99 94h3M105 94h3M115 94h2M184 94h5M196 94h5M216 94h3M15 95h10M26 95h1M31 95h2M37 95h2M41 95h3M47 95h3M54 95h3M69 95h4M99 95h2M105 95h3M182 95h6M196 95h4M216 95h3M17 96h7M31 96h2M37 96h2M41 96h9M55 96h4M67 96h5M98 96h3M106 96h4M180 96h7M196 96h3M217 96h3M17 97h3M27 97h1M32 97h1M37 97h2M41 97h7M56 97h15M98 97h2M103 97h8M177 97h9M196 97h2M218 97h3M17 98h4M27 98h1M32 98h2M38 98h1M42 98h2M58 98h11M83 98h3M97 98h3M103 98h10M174 98h11M196 98h2M218 98h3M17 99h5M27 99h1M32 99h2M38 99h2M42 99h2M50 99h1M61 99h5M81 99h4M97 99h2M102 99h12M173 99h11M195 99h3M219 99h3M18 100h5M27 100h1M32 100h2M38 100h2M43 100h2M50 100h2M79 100h2M96 100h3M102 100h3M110 100h3M166 100h16M195 100h3M219 100h3M18 101h6M25 101h1M28 101h1M33 101h1M38 101h2M43 101h3M50 101h3M95 101h3M101 101h4M163 101h16M195 101h4M220 101h3M20 102h6M28 102h1M33 102h2M38 102h2M44 102h3M50 102h3M95 102h3M100 102h5M159 102h12M172 102h4M196 102h3M220 102h3M21 103h3M25 103h1M28 103h1M33 103h2M36 103h2M39 103h1M45 103h9M94 103h11M156 103h13M173 103h4M196 103h3M220 103h4M19 104h4M25 104h1M28 104h1M33 104h2M38 104h3M46 104h8M93 104h12M152 104h15M174 104h4M196 104h3M221 104h3M18 105h5M29 105h1M34 105h1M38 105h9M48 105h7M92 105h12M149 105h12M166 105h1M175 105h4M196 105h4M221 105h3M18 106h4M26 106h1M29 106h1M34 106h2M38 106h19M91 106h3M95 106h7M146 106h12M166 106h2M176 106h4M196 106h4M222 106h3M17 107h4M26 107h1M29 107h1M34 107h2M38 107h19M89 107h4M94 107h5M143 107h11M166 107h2M176 107h5M197 107h4M222 107h3M16 108h4M26 108h1M35 108h1M37 108h20M88 108h10M140 108h11M152 108h2M167 108h2M177 108h5M187 108h3M197 108h4M222 108h3M16 109h3M25 109h1M37 109h20M87 109h11M136 109h12M153 109h1M167 109h2M178 109h4M186 109h5M198 109h4M222 109h4M16 110h3M26 110h2M37 110h4M42 110h16M85 110h13M133 110h12M153 110h2M167 110h3M179 110h4M186 110h7M198 110h4M222 110h3M15 111h5M26 111h4M36 111h5M44 111h8M53 111h6M83 111h5M92 111h5M130 111h11M153 111h2M168 111h2M180 111h4M186 111h8M199 111h4M221 111h4M16 112h5M24 112h16M53 112h7M61 112h1M81 112h6M127 112h11M139 112h2M153 112h3M168 112h3M180 112h24M220 112h5M16 113h24M53 113h8M62 113h3M77 113h11M124 113h11M139 113h2M154 113h2M169 113h2M181 113h23M218 113h6M17 114h11M29 114h10M54 114h7M64 114h19M85 114h8M120 114h11M140 114h2M154 114h3M169 114h3M182 114h23M216 114h6M18 115h19M53 115h8M66 115h14M86 115h14M117 115h12M140 115h2M155 115h2M170 115h2M182 115h16M201 115h5M212 115h9M19 116h11M53 116h8M72 116h3M89 116h18M113 116h11M140 116h3M155 116h3M170 116h3M183 116h10M202 116h17M21 117h7M52 117h9M78 117h1M93 117h14M108 117h12M129 117h1M141 117h2M156 117h2M171 117h2M184 117h10M203 117h14M24 118h2M51 118h10M78 118h1M98 118h22M129 118h1M141 118h3M156 118h3M171 118h3M185 118h10M205 118h9M49 119h11M78 119h1M84 119h2M104 119h17M130 119h2M142 119h2M157 119h2M172 119h2M185 119h10M48 120h11M78 120h2M83 120h3M104 120h17M130 120h2M142 120h3M157 120h3M173 120h2M186 120h10M46 121h13M79 121h2M84 121h3M104 121h17M130 121h2M143 121h2M158 121h3M173 121h3M186 121h11M39 122h4M46 122h14M84 122h3M104 122h18M130 122h2M143 122h3M159 122h2M174 122h2M187 122h10M34 123h9M45 123h8M54 123h7M84 123h3M104 123h18M130 123h2M144 123h2M159 123h3M174 123h3M188 123h10M29 124h23M57 124h6M84 124h3M104 124h19M130 124h3M144 124h3M160 124h3M175 124h2M188 124h11M25 125h25M58 125h6M84 125h3M104 125h19M130 125h3M145 125h2M160 125h3M176 125h2M189 125h11M21 126h26M59 126h7M84 126h3M104 126h20M131 126h3M145 126h3M161 126h3M176 126h3M189 126h11M17 127h29M60 127h7M84 127h3M104 127h26M131 127h3M146 127h2M162 127h3M177 127h2M190 127h11" />
</svg>