<svg xmlns="http://www.w3.org/2000/svg" viewBox="0 -0.5 200 128" shape-rendering="crispEdges">
<metadata>Made with Pixels to Svg https://codepen.io/shshaw/pen/XbxvNj</metadata>
<path stroke="#010101" d="M174 19h5M86 20h13M174 20h6M84 21h17M174 21h2M177 21h3M83 22h5M93 22h3M97 22h4M173 22h3M178 22h2M82 23h4M99 23h6M173 23h3M178 23h3M82 24h3M86 24h1M99 24h7M173 24h2M178 24h3M60 25h14M82 25h2M86 25h7M97 25h1M103 25h4M172 25h3M176 25h1M179 25h2M58 26h18M81 26h3M86 26h12M101 26h1M104 26h4M172 26h3M176 26h1M179 26h2M57 27h5M64 27h3M72 27h5M81 27h3M86 27h2M91 27h4M97 27h1M100 27h2M105 27h8M172 27h2M175 27h2M179 27h3M56 28h4M68 28h1M74 28h4M81 28h2M86 28h1M89 28h3M93 28h2M101 28h2M106 28h9M171 28h3M175 28h2M179 28h3M56 29h3M62 29h1M67 29h4M75 29h5M82 29h3M86 29h6M93 29h5M102 29h3M111 29h8M171 29h6M180 29h2M56 30h2M61 30h4M68 30h5M76 30h2M80 30h5M90 30h9M104 30h2M113 30h7M170 30h3M174 30h4M180 30h2M56 31h2M61 31h4M69 31h5M78 31h4M90 31h5M98 31h1M106 31h1M110 31h1M117 31h3M169 31h4M174 31h4M180 31h2M55 32h3M61 32h3M66 32h1M70 32h4M78 32h1M89 32h2M97 32h2M101 32h2M107 32h1M111 32h2M118 32h2M169 32h3M174 32h4M180 32h2M51 33h7M60 33h4M65 33h2M70 33h3M75 33h1M85 33h3M92 33h13M108 33h1M111 33h5M118 33h2M169 33h2M173 33h5M180 33h3M48 34h9M60 34h7M70 34h3M82 34h24M108 34h2M112 34h5M118 34h2M168 34h3M173 34h5M180 34h3M47 35h6M61 35h6M70 35h3M79 35h15M103 35h3M107 35h2M111 35h4M118 35h3M168 35h3M173 35h5M181 35h2M14 36h6M45 36h5M64 36h2M70 36h2M73 36h1M79 36h5M104 36h2M110 36h5M118 36h4M168 36h2M172 36h1M174 36h4M181 36h2M14 37h8M43 37h6M70 37h1M78 37h3M104 37h4M112 37h3M119 37h2M122 37h1M128 37h9M168 37h2M172 37h1M174 37h3M181 37h2M14 38h2M18 38h5M42 38h5M55 38h4M68 38h4M78 38h3M104 38h6M115 38h1M120 38h2M123 38h1M126 38h12M168 38h2M172 38h2M175 38h2M181 38h2M14 39h2M20 39h5M41 39h4M52 39h1M58 39h2M61 39h1M68 39h7M78 39h2M106 39h6M121 39h2M124 39h6M135 39h4M168 39h2M172 39h2M175 39h1M181 39h2M14 40h3M21 40h6M40 40h4M50 40h1M63 40h1M69 40h11M108 40h6M122 40h1M124 40h4M136 40h3M168 40h3M173 40h2M181 40h2M14 41h3M23 41h5M40 41h3M48 41h2M53 41h6M65 41h1M70 41h10M110 41h9M123 41h1M125 41h1M132 41h3M137 41h2M142 41h5M168 41h3M173 41h2M181 41h2M14 42h2M18 42h1M25 42h3M39 42h3M47 42h2M51 42h9M66 42h1M71 42h4M112 42h7M123 42h1M129 42h6M137 42h2M142 42h5M169 42h2M173 42h1M181 42h2M14 43h2M18 43h4M26 43h2M39 43h3M46 43h2M50 43h10M61 43h1M67 43h1M72 43h3M112 43h3M119 43h1M127 43h8M137 43h2M141 43h3M145 43h2M169 43h2M173 43h1M181 43h2M14 44h2M18 44h2M21 44h2M26 44h2M39 44h2M45 44h2M50 44h10M61 44h3M68 44h1M73 44h3M112 44h2M120 44h1M125 44h1M127 44h6M135 44h4M141 44h3M145 44h3M169 44h2M173 44h1M181 44h2M14 45h3M18 45h3M22 45h2M26 45h2M38 45h3M44 45h3M49 45h11M61 45h3M73 45h4M112 45h6M121 45h1M127 45h2M133 45h6M141 45h2M145 45h3M169 45h2M173 45h1M180 45h3M14 46h3M19 46h5M26 46h2M38 46h3M44 46h2M48 46h12M61 46h3M65 46h1M69 46h1M74 46h3M112 46h2M115 46h8M130 46h5M140 46h3M146 46h2M169 46h2M180 46h3M15 47h2M23 47h1M26 47h3M38 47h2M43 47h3M48 47h3M53 47h7M61 47h3M65 47h1M70 47h1M75 47h2M102 47h9M112 47h2M115 47h10M127 47h8M140 47h3M146 47h2M169 47h3M180 47h2M15 48h2M23 48h1M26 48h3M38 48h2M43 48h3M47 48h4M54 48h6M61 48h3M65 48h1M67 48h1M75 48h3M101 48h13M116 48h2M121 48h3M126 48h6M140 48h2M146 48h3M169 48h3M179 48h3M15 49h3M20 49h1M27 49h2M38 49h2M43 49h2M47 49h5M54 49h6M61 49h3M65 49h1M67 49h1M71 49h1M75 49h3M101 49h3M109 49h5M116 49h8M126 49h3M139 49h3M146 49h3M170 49h2M179 49h3M15 50h4M21 50h1M27 50h2M38 50h2M43 50h2M47 50h6M55 50h5M61 50h1M63 50h1M65 50h1M67 50h2M76 50h2M101 50h2M111 50h3M116 50h8M126 50h2M139 50h3M147 50h2M170 50h2M178 50h3M16 51h4M27 51h2M38 51h2M43 51h2M47 51h7M56 51h2M59 51h1M61 51h1M63 51h1M65 51h1M67 51h1M76 51h2M101 51h2M105 51h3M112 51h2M120 51h4M126 51h2M139 51h2M146 51h4M170 51h2M178 51h3M17 52h4M27 52h2M38 52h2M43 52h2M47 52h7M57 52h1M59 52h1M61 52h1M63 52h1M65 52h1M67 52h1M72 52h1M76 52h2M101 52h2M105 52h5M112 52h2M126 52h2M138 52h3M146 52h4M170 52h2M178 52h2M18 53h4M26 53h3M38 53h2M43 53h2M47 53h8M59 53h1M61 53h1M63 53h1M65 53h1M67 53h1M69 53h1M76 53h3M101 53h2M105 53h4M112 53h5M126 53h2M138 53h3M146 53h1M148 53h2M170 53h3M177 53h3M19 54h4M26 54h3M38 54h2M43 54h2M47 54h9M59 54h1M61 54h1M63 54h1M65 54h1M67 54h1M69 54h1M76 54h3M101 54h2M105 54h4M112 54h4M118 54h2M125 54h3M138 54h2M146 54h6M170 54h3M177 54h3M20 55h5M26 55h2M38 55h2M43 55h2M47 55h7M55 55h1M57 55h1M59 55h1M61 55h1M63 55h1M65 55h1M67 55h1M69 55h1M77 55h2M101 55h2M105 55h4M112 55h4M118 55h2M123 55h5M137 55h3M146 55h2M149 55h2M152 55h1M171 55h2M177 55h2M21 56h7M38 56h2M43 56h2M47 56h4M52 56h2M55 56h1M57 56h1M61 56h1M63 56h1M65 56h1M67 56h1M69 56h1M77 56h2M101 56h2M106 56h3M112 56h4M118 56h2M123 56h4M129 56h5M137 56h3M146 56h3M150 56h3M171 56h4M176 56h3M23 57h5M38 57h2M43 57h2M47 57h4M52 57h2M55 57h1M57 57h1M59 57h1M61 57h1M63 57h1M65 57h1M67 57h1M69 57h1M76 57h3M101 57h2M106 57h3M112 57h4M118 57h2M123 57h2M129 57h5M137 57h2M146 57h3M151 57h2M171 57h8M38 58h2M43 58h3M48 58h2M52 58h2M55 58h1M57 58h1M59 58h1M61 58h1M63 58h1M65 58h1M67 58h1M69 58h1M72 58h1M76 58h3M101 58h3M106 58h1M108 58h2M112 58h4M118 58h2M123 58h2M129 58h2M132 58h2M136 58h3M146 58h3M151 58h2M173 58h5M38 59h2M43 59h3M48 59h2M52 59h2M55 59h1M57 59h1M59 59h1M61 59h1M63 59h1M65 59h1M67 59h1M72 59h1M76 59h2M101 59h4M112 59h4M118 59h2M123 59h2M129 59h2M132 59h2M136 59h3M146 59h3M151 59h2M38 60h3M44 60h2M49 60h1M52 60h4M57 60h1M59 60h1M61 60h1M63 60h1M65 60h1M67 60h1M76 60h2M102 60h2M112 60h3M118 60h2M123 60h2M129 60h2M132 60h3M136 60h2M147 60h2M151 60h2M38 61h3M44 61h3M49 61h1M52 61h2M55 61h1M57 61h1M59 61h1M61 61h1M63 61h1M65 61h1M67 61h1M76 61h2M102 61h13M118 61h2M122 61h3M129 61h2M132 61h6M147 61h4M152 61h3M189 61h5M39 62h2M45 62h3M52 62h5M61 62h1M63 62h1M65 62h1M67 62h1M75 62h3M102 62h13M118 62h2M123 62h2M129 62h2M133 62h5M147 62h4M152 62h3M189 62h5M39 63h3M45 63h3M53 63h4M61 63h1M63 63h4M75 63h3M112 63h3M118 63h2M123 63h2M129 63h2M133 63h4M147 63h5M153 63h3M187 63h4M192 63h2M39 64h3M46 64h3M53 64h4M59 64h1M61 64h4M74 64h3M112 64h3M118 64h2M123 64h3M129 64h2M133 64h4M147 64h5M153 64h3M187 64h4M192 64h2M40 65h3M46 65h5M56 65h1M59 65h1M61 65h3M74 65h3M112 65h2M117 65h3M123 65h8M134 65h3M145 65h1M147 65h6M154 65h2M187 65h2M190 65h1M192 65h2M40 66h3M47 66h6M73 66h3M112 66h2M117 66h3M124 66h7M134 66h2M148 66h5M154 66h3M186 66h3M190 66h1M192 66h3M41 67h3M48 67h9M72 67h4M112 67h2M117 67h4M129 67h2M134 67h2M140 67h1M149 67h8M185 67h6M192 67h3M41 68h4M50 68h9M64 68h1M71 68h4M112 68h2M117 68h5M134 68h2M140 68h1M142 68h1M149 68h5M155 68h2M185 68h3M190 68h1M193 68h2M42 69h4M51 69h9M61 69h1M69 69h5M112 69h2M117 69h6M134 69h1M138 69h1M140 69h2M144 69h1M150 69h5M156 69h3M184 69h3M190 69h1M193 69h2M43 70h5M55 70h3M68 70h5M112 70h7M120 70h5M133 70h2M138 70h3M143 70h2M150 70h5M156 70h3M184 70h3M190 70h1M193 70h2M44 71h5M66 71h5M112 71h7M121 71h8M130 71h5M137 71h2M141 71h4M151 71h5M157 71h3M183 71h3M190 71h1M193 71h2M46 72h4M63 72h7M123 72h11M140 72h2M143 72h2M151 72h4M157 72h3M183 72h3M190 72h1M193 72h2M8 73h6M47 73h6M61 73h7M127 73h7M140 73h2M143 73h2M152 73h2M156 73h1M158 73h2M182 73h3M190 73h1M193 73h2M8 74h7M48 74h17M132 74h2M141 74h1M143 74h2M146 74h1M150 74h1M155 74h1M158 74h2M182 74h3M190 74h1M193 74h3M7 75h3M12 75h4M51 75h12M132 75h3M143 75h2M146 75h1M155 75h1M158 75h2M181 75h3M189 75h2M193 75h3M7 76h3M13 76h4M132 76h4M143 76h2M146 76h1M154 76h2M158 76h2M181 76h3M189 76h2M194 76h2M7 77h2M14 77h3M133 77h4M144 77h1M146 77h2M154 77h1M158 77h2M180 77h3M189 77h2M194 77h2M7 78h2M15 78h3M75 78h9M134 78h4M144 78h4M154 78h1M158 78h2M180 78h3M189 78h2M194 78h2M7 79h2M15 79h4M74 79h13M135 79h3M145 79h2M154 79h1M157 79h3M180 79h2M189 79h2M194 79h2M7 80h2M11 80h1M16 80h4M72 80h5M79 80h9M136 80h3M146 80h1M154 80h1M157 80h3M179 80h3M188 80h3M194 80h2M7 81h2M11 81h1M13 81h1M17 81h4M71 81h5M86 81h2M136 81h4M157 81h2M178 81h3M185 81h1M188 81h3M194 81h2M7 82h2M11 82h1M14 82h1M18 82h4M70 82h4M77 82h1M137 82h3M157 82h2M177 82h4M188 82h4M194 82h3M7 83h2M11 83h1M14 83h1M19 83h3M69 83h4M76 83h2M82 83h2M138 83h3M153 83h1M157 83h2M177 83h3M188 83h4M194 83h3M7 84h2M11 84h2M14 84h2M20 84h3M66 84h6M75 84h3M82 84h5M138 84h3M156 84h3M176 84h3M188 84h4M195 84h2M7 85h2M11 85h2M15 85h2M20 85h4M65 85h6M75 85h3M82 85h5M139 85h3M156 85h3M176 85h3M188 85h4M195 85h2M7 86h2M11 86h2M15 86h3M21 86h4M64 86h4M74 86h4M81 86h6M110 86h14M139 86h4M156 86h2M175 86h3M187 86h5M195 86h2M7 87h2M11 87h3M15 87h3M22 87h4M64 87h3M73 87h4M81 87h6M101 87h1M107 87h21M140 87h3M156 87h2M175 87h3M187 87h5M195 87h2M7 88h2M11 88h3M16 88h3M23 88h4M63 88h3M72 88h5M81 88h5M98 88h5M107 88h7M122 88h8M141 88h3M155 88h3M174 88h3M187 88h5M195 88h2M7 89h2M11 89h3M16 89h4M24 89h4M62 89h4M71 89h4M76 89h2M81 89h4M96 89h6M107 89h6M126 89h5M141 89h3M155 89h3M174 89h3M187 89h5M195 89h2M7 90h2M11 90h4M16 90h5M25 90h3M61 90h4M70 90h8M81 90h3M95 90h6M106 90h6M128 90h4M142 90h3M155 90h2M173 90h3M183 90h1M187 90h5M195 90h3M7 91h2M11 91h3M17 91h2M20 91h2M26 91h2M60 91h4M69 91h10M80 91h3M94 91h7M107 91h17M129 91h3M142 91h3M154 91h3M173 91h3M183 91h1M187 91h5M195 91h3M7 92h2M11 92h2M17 92h2M20 92h2M26 92h2M60 92h3M68 92h14M94 92h7M107 92h19M130 92h2M143 92h3M154 92h3M173 92h2M183 92h1M187 92h5M196 92h2M7 93h2M18 93h1M20 93h3M26 93h2M59 93h3M67 93h14M94 93h6M109 93h18M130 93h2M143 93h4M154 93h2M172 93h3M183 93h1M186 93h6M196 93h2M7 94h2M14 94h1M18 94h5M26 94h2M58 94h4M67 94h14M96 94h2M113 94h16M130 94h2M144 94h4M154 94h2M171 94h4M186 94h6M196 94h2" />
<path stroke="#ffffff" d="M176 21h1M88 22h5M96 22h1M176 22h2M86 23h13M176 23h2M85 24h1M87 24h12M175 24h3M84 25h2M93 25h4M98 25h5M175 25h1M177 25h2M84 26h2M98 26h3M102 26h2M175 26h1M177 26h2M62 27h2M67 27h5M84 27h2M95 27h2M98 27h2M102 27h3M174 27h1M177 27h2M60 28h8M69 28h5M83 28h3M87 28h2M95 28h6M103 28h3M174 28h1M177 28h2M59 29h3M63 29h4M71 29h4M80 29h2M85 29h1M98 29h4M105 29h6M177 29h3M58 30h3M65 30h3M73 30h3M78 30h2M85 30h5M99 30h5M106 30h7M173 30h1M178 30h2M58 31h3M65 31h4M74 31h4M82 31h8M95 31h3M99 31h7M107 31h3M111 31h6M173 31h1M178 31h2M58 32h3M64 32h2M67 32h3M74 32h4M79 32h10M91 32h6M99 32h2M103 32h4M108 32h3M113 32h5M172 32h2M178 32h2M58 33h2M64 33h1M67 33h3M73 33h2M76 33h9M88 33h4M105 33h3M109 33h2M116 33h2M171 33h2M178 33h2M57 34h3M67 34h3M73 34h9M106 34h2M110 34h2M117 34h1M171 34h2M178 34h2M53 35h8M67 35h3M73 35h6M106 35h1M109 35h2M115 35h3M171 35h2M178 35h3M50 36h14M66 36h4M72 36h1M74 36h5M106 36h4M115 36h3M170 36h2M173 36h1M178 36h3M49 37h21M71 37h7M108 37h4M115 37h4M121 37h1M170 37h2M173 37h1M177 37h4M16 38h2M47 38h8M59 38h9M72 38h6M110 38h5M116 38h4M122 38h1M170 38h2M174 38h1M177 38h4M16 39h4M45 39h7M53 39h5M60 39h1M62 39h6M75 39h3M112 39h9M123 39h1M130 39h5M170 39h2M174 39h1M176 39h5M17 40h4M44 40h6M51 40h12M64 40h5M114 40h8M123 40h1M128 40h8M171 40h2M175 40h6M17 41h6M43 41h5M50 41h3M59 41h6M66 41h4M119 41h4M124 41h1M126 41h6M135 41h2M171 41h2M175 41h6M16 42h2M19 42h6M42 42h5M49 42h2M60 42h6M67 42h4M119 42h4M124 42h5M135 42h2M171 42h1M174 42h7M16 43h2M22 43h4M42 43h4M48 43h2M60 43h1M62 43h5M68 43h4M115 43h4M120 43h7M135 43h2M144 43h1M171 43h1M174 43h7M16 44h2M20 44h1M23 44h3M41 44h4M47 44h3M60 44h1M64 44h4M69 44h4M114 44h6M121 44h4M126 44h1M133 44h2M144 44h1M171 44h1M174 44h7M17 45h1M21 45h1M24 45h2M41 45h3M47 45h2M60 45h1M64 45h9M118 45h3M122 45h5M129 45h4M143 45h2M171 45h1M174 45h6M17 46h2M24 46h2M41 46h3M46 46h2M60 46h1M64 46h1M66 46h3M70 46h4M114 46h1M123 46h7M143 46h3M171 46h1M173 46h7M17 47h6M24 47h2M40 47h3M46 47h2M51 47h2M60 47h1M64 47h1M66 47h4M71 47h4M114 47h1M125 47h2M143 47h3M173 47h7M17 48h6M24 48h2M40 48h3M46 48h1M51 48h3M60 48h1M64 48h1M66 48h1M68 48h7M114 48h2M124 48h2M142 48h4M173 48h6M18 49h2M21 49h6M40 49h3M45 49h2M52 49h2M60 49h1M64 49h1M66 49h1M68 49h3M72 49h3M104 49h5M114 49h2M124 49h2M142 49h4M173 49h6M19 50h2M22 50h5M40 50h3M45 50h2M53 50h2M60 50h1M62 50h1M64 50h1M66 50h1M69 50h7M103 50h8M114 50h2M124 50h2M142 50h5M172 50h6M20 51h7M40 51h3M45 51h2M54 51h2M58 51h1M60 51h1M62 51h1M64 51h1M66 51h1M68 51h8M103 51h2M108 51h4M114 51h6M124 51h2M141 51h5M172 51h1M174 51h4M21 52h6M40 52h3M45 52h2M54 52h3M58 52h1M60 52h1M62 52h1M64 52h1M66 52h1M68 52h4M73 52h3M103 52h2M110 52h2M114 52h12M141 52h5M172 52h1M174 52h4M22 53h4M40 53h3M45 53h2M55 53h4M60 53h1M62 53h1M64 53h1M66 53h1M68 53h1M70 53h6M103 53h2M109 53h3M117 53h9M141 53h5M147 53h1M174 53h3M23 54h3M40 54h3M45 54h2M56 54h3M60 54h1M62 54h1M64 54h1M66 54h1M68 54h1M70 54h6M103 54h2M109 54h3M116 54h2M120 54h5M140 54h6M174 54h3M25 55h1M40 55h3M45 55h2M54 55h1M56 55h1M58 55h1M60 55h1M62 55h1M64 55h1M66 55h1M68 55h1M70 55h7M103 55h2M109 55h3M116 55h2M120 55h3M140 55h6M148 55h1M151 55h1M173 55h4M40 56h3M45 56h2M51 56h1M54 56h1M56 56h1M58 56h3M62 56h1M64 56h1M66 56h1M68 56h1M70 56h7M103 56h3M109 56h3M116 56h2M120 56h3M140 56h6M149 56h1M175 56h1M40 57h3M45 57h2M51 57h1M54 57h1M56 57h1M58 57h1M60 57h1M62 57h1M64 57h1M66 57h1M68 57h1M70 57h6M103 57h3M109 57h3M116 57h2M120 57h3M139 57h7M149 57h2M40 58h3M46 58h2M50 58h2M54 58h1M56 58h1M58 58h1M60 58h1M62 58h1M64 58h1M66 58h1M68 58h1M70 58h2M73 58h3M104 58h2M107 58h1M110 58h2M116 58h2M120 58h3M131 58h1M139 58h7M149 58h2M40 59h3M46 59h2M50 59h2M54 59h1M56 59h1M58 59h1M60 59h1M62 59h1M64 59h1M66 59h1M68 59h4M73 59h3M105 59h7M116 59h2M120 59h3M131 59h1M139 59h7M149 59h2M41 60h3M46 60h3M50 60h2M56 60h1M58 60h1M60 60h1M62 60h1M64 60h1M66 60h1M68 60h8M104 60h8M115 60h3M120 60h3M131 60h1M138 60h9M149 60h2M41 61h3M47 61h2M50 61h2M54 61h1M56 61h1M58 61h1M60 61h1M62 61h1M64 61h1M66 61h1M68 61h8M115 61h3M120 61h2M131 61h1M138 61h9M151 61h1M41 62h4M48 62h4M57 62h4M62 62h1M64 62h1M66 62h1M68 62h2M71 62h4M115 62h3M120 62h3M131 62h2M138 62h9M151 62h1M42 63h3M48 63h5M57 63h4M62 63h1M67 63h3M71 63h4M115 63h3M120 63h3M131 63h2M137 63h10M152 63h1M191 63h1M42 64h4M49 64h4M57 64h2M60 64h1M65 64h4M71 64h3M115 64h3M120 64h3M131 64h2M137 64h10M152 64h1M191 64h1M43 65h3M51 65h5M57 65h2M60 65h1M64 65h4M70 65h4M114 65h3M120 65h3M131 65h3M137 65h8M146 65h1M153 65h1M189 65h1M191 65h1M43 66h4M53 66h14M69 66h4M114 66h3M120 66h4M131 66h3M136 66h12M153 66h1M189 66h1M191 66h1M44 67h4M57 67h9M68 67h4M114 67h3M121 67h8M131 67h3M136 67h4M141 67h8M191 67h1M45 68h5M59 68h5M67 68h4M114 68h3M122 68h12M136 68h4M141 68h1M143 68h6M154 68h1M188 68h2M191 68h2M46 69h5M60 69h1M62 69h2M66 69h3M114 69h3M123 69h11M135 69h3M139 69h1M142 69h2M145 69h5M155 69h1M187 69h3M191 69h2M48 70h7M58 70h4M64 70h4M125 70h8M135 70h3M141 70h2M145 70h5M155 70h1M187 70h3M191 70h2M49 71h17M129 71h1M135 71h2M139 71h2M145 71h6M156 71h1M186 71h4M191 71h2M50 72h13M134 72h6M142 72h1M145 72h6M155 72h2M186 72h4M191 72h2M53 73h8M134 73h6M142 73h1M145 73h7M154 73h2M157 73h1M185 73h5M191 73h2M134 74h7M142 74h1M145 74h1M147 74h3M151 74h4M156 74h2M185 74h5M191 74h2M10 75h2M135 75h8M145 75h1M147 75h8M156 75h2M184 75h5M191 75h2M10 76h3M136 76h7M145 76h1M147 76h7M156 76h2M184 76h5M191 76h3M9 77h5M137 77h7M145 77h1M148 77h6M155 77h3M183 77h1M185 77h4M191 77h3M9 78h6M138 78h6M148 78h6M155 78h3M183 78h6M191 78h3M9 79h6M138 79h7M147 79h7M155 79h2M182 79h1M184 79h5M191 79h3M9 80h2M13 80h3M77 80h2M139 80h7M147 80h7M155 80h2M184 80h4M191 80h3M9 81h2M14 81h3M76 81h3M82 81h4M140 81h17M181 81h1M183 81h2M186 81h2M191 81h3M9 82h2M12 82h2M15 82h1M17 82h1M74 82h3M78 82h1M82 82h5M140 82h4M145 82h12M183 82h5M192 82h2M9 83h2M12 83h1M15 83h2M18 83h1M73 83h3M84 83h3M141 83h4M146 83h7M154 83h3M180 83h1M182 83h6M192 83h2M9 84h2M16 84h2M19 84h1M72 84h3M141 84h4M146 84h10M179 84h1M182 84h6M192 84h3M9 85h2M14 85h1M17 85h1M71 85h4M142 85h14M179 85h1M182 85h6M192 85h3M9 86h2M13 86h1M18 86h1M20 86h1M68 86h6M143 86h3M147 86h9M178 86h2M181 86h6M192 86h3M9 87h2M18 87h2M21 87h1M67 87h6M143 87h13M178 87h1M181 87h6M192 87h3M9 88h2M15 88h1M19 88h1M22 88h1M66 88h6M114 88h8M144 88h3M148 88h7M177 88h2M180 88h7M192 88h3M9 89h2M14 89h2M20 89h1M22 89h2M66 89h5M113 89h13M144 89h3M148 89h7M177 89h1M180 89h7M192 89h3M9 90h2M21 90h1M23 90h2M65 90h5M112 90h16M145 90h3M149 90h6M176 90h2M180 90h3M184 90h3M192 90h3M9 91h2M14 91h1M16 91h1M19 91h1M23 91h3M64 91h5M124 91h5M145 91h3M149 91h5M176 91h2M179 91h4M184 91h3M192 91h3M9 92h2M13 92h4M19 92h1M24 92h2M63 92h5M126 92h4M146 92h8M175 92h2M179 92h4M184 92h3M192 92h4M9 93h9M19 93h1M24 93h2M62 93h5M127 93h3M147 93h7M175 93h2M179 93h4M184 93h2M192 93h4M9 94h5M15 94h3M24 94h2M62 94h5M129 94h1M148 94h6M175 94h2M178 94h8M192 94h4M9 95h4M14 95h2M17 95h2M20 95h1M24 95h2M61 95h5M129 95h1M149 95h4M174 95h2M178 95h8M193 95h3M9 96h10M20 96h1M25 96h1M60 96h5M128 96h2M150 96h2M173 96h3M178 96h4M183 96h3M193 96h3M9 97h11M25 97h1M59 97h5M128 97h2M151 97h1M173 97h2M177 97h9M193 97h3M10 98h10M21 98h1M25 98h1M58 98h5M128 98h2M173 98h2M177 98h5M183 98h3M193 98h3M10 99h12M25 99h1M58 99h4M127 99h2M172 99h3M177 99h5M183 99h3M193 99h4M11 100h7M19 100h2M22 100h1M25 100h1M57 100h4M127 100h2M172 100h2M176 100h6M183 100h3M193 100h4M12 101h11M25 101h1M56 101h5M127 101h2M171 101h3M176 101h10M193 101h4M12 102h10M25 102h1M55 102h5M126 102h3M130 102h2M171 102h3M176 102h9M194 102h3M13 103h10M25 103h1M54 103h5M126 103h6M170 103h4M175 103h3M179 103h6M194 103h3M14 104h9M25 104h1M53 104h7M126 104h5M170 104h3M175 104h3M179 104h6M194 104h3M15 105h5M21 105h5M53 105h12M126 105h2M129 105h2M169 105h4M174 105h11M194 105h4M16 106h10M52 106h17M125 106h6M169 106h4M174 106h11M195 106h4M16 107h10M51 107h5M59 107h12M93 107h2M125 107h6M169 107h3M174 107h11M195 107h4M17 108h8M48 108h7M64 108h10M91 108h1M125 108h5M168 108h4M173 108h2M176 108h9M195 108h4M18 109h7M48 109h8M67 109h9M91 109h3M125 109h5M167 109h5M173 109h11M194 109h5M19 110h6M48 110h15M70 110h8M90 110h3M125 110h5M167 110h17M194 110h5M20 111h5M48 111h20M73 111h7M89 111h4M124 111h6M167 111h4M172 111h12M193 111h2M197 111h2M21 112h4M47 112h26M75 112h6M88 112h4M124 112h6M167 112h4M172 112h3M176 112h8M191 112h4M196 112h3M22 113h3M47 113h29M77 113h5M88 113h3M101 113h9M124 113h5M167 113h3M171 113h4M176 113h8M190 113h4M196 113h2M23 114h2M47 114h36M87 114h4M96 114h19M124 114h5M167 114h3M171 114h5M177 114h7M189 114h5M195 114h3M47 115h33M81 115h3M87 115h3M92 115h25M124 115h5M167 115h3M171 115h13M189 115h5M195 115h2M51 116h30M82 116h3M86 116h18M105 116h14M123 116h6M167 116h3M171 116h12M186 116h1M189 116h8M58 117h24M84 117h12M113 117h7M123 117h5M168 117h2M171 117h1M173 117h10M188 117h8M66 118h17M85 118h7M97 118h13M116 118h5M123 118h5M168 118h2M171 118h1M174 118h9M188 118h8M73 119h11M86 119h30M119 119h3M123 119h5M168 119h2M172 119h1M174 119h1M176 119h6M187 119h8M78 120h5M87 120h33M121 120h2M124 120h4M168 120h2M172 120h1M177 120h5M187 120h8M92 121h7M101 121h21M124 121h3M168 121h3M175 121h1M177 121h5M187 121h7M92 122h21M114 122h13M168 122h3M172 122h2M175 122h1M177 122h4M182 122h2M186 122h8M93 123h34M169 123h2M173 123h1M175 123h6M182 123h2M186 123h7M95 124h27M123 124h3M169 124h2M173 124h1M175 124h2M179 124h5M186 124h7M99 125h23M123 125h3M169 125h2M173 125h3M178 125h2M181 125h2M185 125h7M104 126h22M169 126h2M173 126h3M177 126h2M181 126h2M185 126h7M110 127h10M122 127h4M169 127h2M172 127h3M177 127h2M180 127h3M185 127h6" />
<path stroke="#01ffff" d="M92 42h1M91 43h1M90 44h2M89 45h2M92 45h1M89 46h2M92 46h1M88 47h5M88 48h2M91 48h2M88 49h2M91 49h2M88 50h2M91 50h2M88 51h2M91 51h2M88 52h2M91 52h2M88 53h2M91 53h2M88 54h5M88 55h5M88 56h5M89 57h4M89 58h4M89 59h4M90 60h3M90 61h3M91 62h3M91 63h3M91 64h3M92 65h3M92 66h3M86 67h1M92 67h4M86 68h2M93 68h3M85 69h2M93 69h3M85 70h2M94 70h3M85 71h2M93 71h5M85 72h2M93 72h6M85 73h1M92 73h8M85 74h1M91 74h10M89 75h12M86 76h16M86 77h16M86 78h16M87 79h15M88 80h13M79 81h3M88 81h13M79 82h3M87 82h14M78 83h4M87 83h13M101 83h3M78 84h4M87 84h13M101 84h4M78 85h4M87 85h12M101 85h5M78 86h3M87 86h12M102 86h4M77 87h4M87 87h11M102 87h5M77 88h4M86 88h11M103 88h4M78 89h3M85 89h11M102 89h5M78 90h3M84 90h6M91 90h4M101 90h5M79 91h1M83 91h7M92 91h2M101 91h6M82 92h8M92 92h2M101 92h6M81 93h8M92 93h2M100 93h9M81 94h7M92 94h4M98 94h15M81 95h7M93 95h20M81 96h7M93 96h20M81 97h6M94 97h19M81 98h6M94 98h7M103 98h9M82 99h6M94 99h6M103 99h8M82 100h6M92 100h1M95 100h3M99 100h1M103 100h8M83 101h5M92 101h1M95 101h2M104 101h6M84 102h4M104 102h5M85 103h4M100 103h1M104 103h5M86 104h3M98 104h2M103 104h5M87 105h3M103 105h4M88 106h3M102 106h4M89 107h4M101 107h3M92 108h3M96 108h1M99 108h1" />
<path stroke="#017fff" d="M172 42h1M172 43h1M172 44h1M172 45h1M172 46h1M172 47h1M172 48h1M172 49h1M173 51h1M173 52h1M173 53h1M173 54h1M70 62h1M70 63h1M69 64h2M68 65h2M67 66h2M66 67h2M65 68h2M64 69h2M62 70h2M184 77h1M183 79h1M12 80h1M182 80h2M12 81h1M182 81h1M16 82h1M144 82h1M181 82h2M13 83h1M17 83h1M145 83h1M181 83h1M13 84h1M18 84h1M145 84h1M180 84h2M13 85h1M18 85h2M180 85h2M14 86h1M19 86h1M146 86h1M180 86h1M14 87h1M20 87h1M179 87h2M14 88h1M20 88h2M147 88h1M179 88h1M21 89h1M147 89h1M178 89h2M15 90h1M22 90h1M90 90h1M148 90h1M178 90h2M15 91h1M22 91h1M90 91h2M148 91h1M178 91h1M22 92h2M90 92h2M177 92h2M23 93h1M89 93h3M177 93h2M23 94h1M88 94h4M177 94h1M23 95h1M88 95h5M176 95h2M23 96h2M88 96h5M176 96h2M23 97h2M87 97h7M175 97h2M23 98h2M87 98h7M101 98h2M175 98h2M23 99h2M88 99h6M100 99h3M175 99h2M23 100h2M88 100h4M93 100h2M98 100h1M100 100h3M174 100h2M23 101h2M88 101h4M93 101h2M97 101h7M174 101h2M23 102h2M88 102h5M97 102h7M174 102h2M23 103h2M89 103h3M98 103h2M101 103h3M174 103h1M23 104h2M89 104h3M100 104h3M173 104h2M90 105h2M99 105h4M173 105h1M91 106h2M99 106h3M173 106h1M98 107h3M172 107h2M97 108h2M172 108h1M172 109h1M171 111h1M171 112h1M170 113h1M170 114h1M170 115h1M170 116h1M170 117h1M170 118h1M170 119h2M170 120h2M171 121h1M171 122h1M171 123h2M171 124h2M171 125h2M171 126h2M171 127h1" />
<path stroke="#014180" d="M0 95h9M13 95h1M16 95h1M19 95h1M21 95h2M26 95h35M66 95h15M113 95h16M130 95h19M153 95h21M186 95h7M196 95h4M0 96h9M19 96h1M21 96h2M26 96h34M65 96h16M113 96h15M130 96h20M152 96h21M182 96h1M186 96h7M196 96h4M0 97h9M20 97h3M26 97h33M64 97h17M113 97h15M130 97h21M152 97h21M186 97h7M196 97h4M0 98h10M20 98h1M22 98h1M26 98h32M63 98h18M112 98h16M130 98h43M182 98h1M186 98h7M196 98h4M0 99h10M22 99h1M26 99h32M62 99h20M111 99h16M129 99h43M182 99h1M186 99h7M197 99h3M0 100h11M18 100h1M21 100h1M26 100h31M61 100h21M111 100h16M129 100h43M182 100h1M186 100h7M197 100h3M0 101h12M26 101h30M61 101h22M110 101h17M129 101h42M186 101h7M197 101h3M0 102h12M22 102h1M26 102h29M60 102h24M93 102h4M109 102h17M129 102h1M132 102h39M185 102h9M197 102h3M0 103h13M26 103h28M59 103h26M92 103h6M109 103h17M132 103h38M178 103h1M185 103h9M197 103h3M0 104h14M26 104h27M60 104h26M92 104h6M108 104h18M131 104h39M178 104h1M185 104h9M197 104h3M0 105h15M20 105h1M26 105h27M65 105h22M92 105h7M107 105h19M128 105h1M131 105h38M185 105h9M198 105h2M0 106h16M26 106h26M69 106h19M93 106h6M106 106h19M131 106h38M185 106h10M199 106h1M0 107h16M26 107h25M56 107h3M71 107h18M95 107h3M104 107h21M131 107h38M185 107h10M199 107h1M0 108h17M25 108h23M55 108h9M74 108h17M95 108h1M100 108h25M130 108h38M175 108h1M185 108h10M199 108h1M0 109h18M25 109h23M56 109h11M76 109h15M94 109h31M130 109h37M184 109h10M199 109h1M0 110h19M25 110h23M63 110h7M78 110h12M93 110h32M130 110h37M184 110h10M199 110h1M0 111h20M25 111h23M68 111h5M80 111h9M93 111h31M130 111h37M184 111h9M195 111h2M199 111h1M0 112h21M25 112h22M73 112h2M81 112h7M92 112h32M130 112h37M175 112h1M184 112h7M195 112h1M199 112h1M0 113h22M25 113h22M76 113h1M82 113h6M91 113h10M110 113h14M129 113h38M175 113h1M184 113h6M194 113h2M198 113h2M0 114h23M25 114h22M83 114h4M91 114h5M115 114h9M129 114h38M176 114h1M184 114h5M194 114h1M198 114h2M0 115h47M80 115h1M84 115h3M90 115h2M117 115h7M129 115h38M184 115h5M194 115h1M197 115h3M0 116h51M81 116h1M85 116h1M104 116h1M119 116h4M129 116h38M183 116h3M187 116h2M197 116h3M0 117h58M82 117h2M96 117h17M120 117h3M128 117h40M172 117h1M183 117h5M196 117h4M0 118h66M83 118h2M92 118h5M110 118h6M121 118h2M128 118h40M172 118h2M183 118h5M196 118h4M0 119h73M84 119h2M116 119h3M122 119h1M128 119h40M173 119h1M175 119h1M182 119h5M195 119h5M0 120h78M83 120h4M120 120h1M123 120h1M128 120h40M173 120h4M182 120h5M195 120h5M0 121h92M99 121h2M122 121h2M127 121h41M172 121h3M176 121h1M182 121h5M194 121h6M0 122h92M113 122h1M127 122h41M174 122h1M176 122h1M181 122h1M184 122h2M194 122h6M0 123h93M127 123h42M174 123h1M181 123h1M184 123h2M193 123h7M0 124h95M122 124h1M126 124h43M174 124h1M177 124h2M184 124h2M193 124h7M0 125h99M122 125h1M126 125h43M176 125h2M180 125h1M183 125h2M192 125h8M0 126h104M126 126h43M176 126h1M179 126h2M183 126h2M192 126h8M0 127h110M120 127h2M126 127h43M175 127h2M179 127h1M183 127h2M191 127h9" />
</svg>