<svg xmlns="http://www.w3.org/2000/svg" viewBox="0 -0.5 96 96" shape-rendering="crispEdges">
<path stroke="#ffffff" d="M44 3h9M43 4h10M42 5h12M42 6h7M50 6h4M41 7h7M49 7h5M41 8h6M49 8h5M41 9h5M48 9h1M50 9h4M41 10h5M48 10h1M50 10h4M41 11h4M50 11h4M41 12h4M47 12h1M50 12h4M41 13h4M47 13h1M50 13h4M41 14h4M47 14h1M50 14h4M41 15h4M47 15h1M50 15h4M41 16h4M47 16h1M50 16h4M41 17h4M47 17h1M50 17h4M41 18h4M50 18h4M41 19h4M50 19h4M41 20h4M50 20h4M41 21h5M50 21h4M41 22h5M50 22h5M41 23h5M50 23h5M41 24h6M50 24h5M42 25h5M50 25h6M42 26h6M51 26h5M39 27h9M51 27h6M39 28h9M51 28h6M38 29h11M52 29h5M38 30h11M52 30h6M38 31h5M44 31h5M53 31h6M38 32h5M45 32h5M53 32h7M38 33h4M44 33h6M53 33h8M38 34h4M44 34h7M54 34h8M38 35h4M44 35h6M55 35h7M38 36h4M44 36h6M56 36h7M38 37h4M43 37h6M57 37h6M38 38h4M43 38h5M58 38h5M38 39h8M58 39h5M38 40h5M59 40h4M32 41h11M59 41h4M27 42h16M59 42h4M26 43h18M59 43h6M25 44h9M36 44h9M58 44h8M24 45h9M43 45h2M58 45h9M21 46h10M34 46h1M58 46h9M20 47h10M33 47h2M39 47h2M57 47h1M61 47h7M19 48h10M32 48h3M39 48h5M57 48h1M62 48h21M19 49h9M32 49h3M39 49h5M56 49h2M63 49h24M18 50h7M31 50h4M38 50h6M56 50h3M63 50h26M17 51h7M30 51h4M38 51h6M55 51h4M64 51h26M16 52h7M29 52h5M38 52h5M54 52h6M64 52h7M79 52h12M15 53h8M28 53h7M38 53h4M53 53h6M64 53h6M83 53h8M15 54h7M27 54h8M38 54h3M52 54h6M63 54h6M85 54h6M14 55h7M26 55h10M37 55h3M51 55h7M64 55h17M86 55h5M13 56h7M25 56h14M51 56h7M64 56h19M87 56h4M12 57h7M24 57h14M51 57h6M66 57h18M87 57h4M11 58h8M24 58h14M53 58h2M70 58h16M87 58h4M11 59h7M23 59h15M70 59h16M87 59h4M10 60h7M22 60h16M70 60h15M87 60h4M9 61h7M21 61h17M70 61h15M87 61h4M8 62h7M20 62h18M69 62h16M87 62h6M7 63h8M19 63h20M68 63h16M86 63h7M6 64h8M18 64h21M68 64h16M86 64h7M6 65h7M18 65h22M67 65h17M86 65h7M5 66h7M17 66h24M50 66h4M66 66h17M86 66h1M89 66h4M4 67h7M16 67h26M49 67h6M66 67h17M89 67h4M1 68h9M17 68h26M49 68h6M65 68h18M88 68h5M1 69h9M22 69h22M49 69h7M64 69h19M85 69h1M88 69h5M1 70h8M26 70h19M50 70h6M63 70h19M88 70h5M1 71h7M13 71h3M28 71h18M52 71h3M61 71h21M88 71h5M0 72h5M12 72h9M31 72h17M52 72h1M57 72h25M87 72h5M0 73h5M13 73h11M33 73h15M51 73h31M87 73h5M0 74h5M20 74h7M35 74h12M50 74h32M87 74h5M0 75h5M25 75h5M37 75h9M50 75h31M87 75h5M0 76h4M30 76h2M38 76h7M49 76h32M87 76h4M0 77h4M33 77h1M39 77h6M48 77h10M67 77h14M86 77h5M0 78h4M40 78h4M48 78h5M72 78h9M86 78h5M0 79h4M37 79h1M41 79h3M47 79h2M74 79h7M86 79h5M0 80h8M38 80h1M42 80h1M61 80h1M76 80h4M86 80h5M0 81h15M39 81h2M53 81h17M77 81h3M85 81h5M0 82h23M40 82h2M49 82h5M67 82h6M78 82h2M85 82h5M0 83h30M41 83h2M73 83h3M79 83h1M85 83h5M4 84h31M40 84h4M77 84h1M80 84h1M85 84h5M11 85h38M56 85h2M79 85h2M84 85h5M19 86h30M70 86h1M84 86h5M26 87h24M84 87h5M31 88h21M79 88h1M83 88h6M45 89h11M79 89h1M83 89h5M45 90h16M83 90h5M46 91h21M77 91h2M83 91h5M48 92h39M52 93h35M57 94h30M63 95h24" />
<path stroke="#ff0000" d="M49 6h1M48 7h1M47 8h2M46 9h2M49 9h1M46 10h2M49 10h1M45 11h5M45 12h2M48 12h2M45 13h2M48 13h2M45 14h2M48 14h2M45 15h2M48 15h2M45 16h2M48 16h2M45 17h2M48 17h2M45 18h5M45 19h5M45 20h5M46 21h4M46 22h4M46 23h4M47 24h3M47 25h3M48 26h3M48 27h3M48 28h3M49 29h3M49 30h3M43 31h1M49 31h4M43 32h2M50 32h3M42 33h2M50 33h3M42 34h2M51 34h3M42 35h2M50 35h5M42 36h2M50 36h6M42 37h1M49 37h8M42 38h1M48 38h10M46 39h12M43 40h16M43 41h16M43 42h16M44 43h15M45 44h13M36 45h3M45 45h13M36 46h3M44 46h14M35 47h4M44 47h13M58 47h3M35 48h4M44 48h13M58 48h4M35 49h4M44 49h12M58 49h5M35 50h3M44 50h12M59 50h4M34 51h4M44 51h11M59 51h5M34 52h4M43 52h11M60 52h4M35 53h3M42 53h11M59 53h5M35 54h3M41 54h6M48 54h4M58 54h5M36 55h1M40 55h7M49 55h2M58 55h6M39 56h8M49 56h2M58 56h6M38 57h8M49 57h2M57 57h9M38 58h7M49 58h4M55 58h15M38 59h7M50 59h20M38 60h7M50 60h20M38 61h6M51 61h19M38 62h6M51 62h7M60 62h9M39 63h6M51 63h6M60 63h8M39 64h6M49 64h1M52 64h3M56 64h1M60 64h8M40 65h5M49 65h1M52 65h2M61 65h6M41 66h4M61 66h5M42 67h4M57 67h1M61 67h5M43 68h3M55 68h2M60 68h5M44 69h3M60 69h4M45 70h3M59 70h4M46 71h4M58 71h3M49 72h3M53 72h1M56 72h1" />
<path stroke="#000000" d="M34 44h2M33 45h3M39 45h4M31 46h3M35 46h1M39 46h5M30 47h3M41 47h3M29 48h3M28 49h4M25 50h6M24 51h6M23 52h6M71 52h8M23 53h5M70 53h13M22 54h5M69 54h16M21 55h5M81 55h5M20 56h5M83 56h4M19 57h5M84 57h3M19 58h5M86 58h1M18 59h5M86 59h1M17 60h5M85 60h2M16 61h5M85 61h2M15 62h5M85 62h2M15 63h4M84 63h2M14 64h4M84 64h2M13 65h5M84 65h2M12 66h5M83 66h3M87 66h2M11 67h5M83 67h6M10 68h7M83 68h5M10 69h12M83 69h2M86 69h2M9 70h17M82 70h6M8 71h5M16 71h12M50 71h2M82 71h6M5 72h7M21 72h10M48 72h1M82 72h5M5 73h8M24 73h9M48 73h3M82 73h5M5 74h15M27 74h8M47 74h3M82 74h5M5 75h20M30 75h7M46 75h4M81 75h6M4 76h26M32 76h6M45 76h4M81 76h6M4 77h29M34 77h5M45 77h3M58 77h9M81 77h5M4 78h36M44 78h4M53 78h19M81 78h5M4 79h33M38 79h3M44 79h3M49 79h25M81 79h5M8 80h30M39 80h3M43 80h18M62 80h14M80 80h6M15 81h24M41 81h12M70 81h7M80 81h5M23 82h17M42 82h7M54 82h13M73 82h5M80 82h5M30 83h11M43 83h30M76 83h3M80 83h5M35 84h5M44 84h33M78 84h2M81 84h4M49 85h7M58 85h21M81 85h3M49 86h21M71 86h13M50 87h34M52 88h27M80 88h3M56 89h23M80 89h3M61 90h22M67 91h10M79 91h4" />
<path stroke="#ff8000" d="M47 54h1M47 55h2M47 56h2M46 57h3M45 58h4M45 59h5M45 60h5M44 61h7M44 62h7M58 62h2M45 63h6M57 63h3M45 64h4M50 64h2M55 64h1M57 64h3M45 65h4M50 65h2M54 65h7M45 66h5M54 66h7M46 67h3M55 67h2M58 67h3M46 68h3M57 68h3M47 69h2M56 69h4M48 70h2M56 70h3M55 71h3M54 72h2" />
</svg>