<svg xmlns="http://www.w3.org/2000/svg" viewBox="0 -0.5 248 136" shape-rendering="crispEdges">
<path stroke="#000000" d="M96 5h3M92 6h8M165 6h10M88 7h7M97 7h4M162 7h15M87 8h4M98 8h3M148 8h5M161 8h4M174 8h5M87 9h2M98 9h3M144 9h10M159 9h4M177 9h4M87 10h2M98 10h3M141 10h5M153 10h2M158 10h3M178 10h4M88 11h2M98 11h4M139 11h3M154 11h2M157 11h3M162 11h11M180 11h3M88 12h2M98 12h4M139 12h4M154 12h2M157 12h17M181 12h2M88 13h2M99 13h3M143 13h2M155 13h20M181 13h3M89 14h1M99 14h3M145 14h1M155 14h29M89 15h2M99 15h4M136 15h11M154 15h30M89 16h2M99 16h4M133 16h5M146 16h2M151 16h1M154 16h30M89 17h2M99 17h4M130 17h4M151 17h35M90 18h1M99 18h4M128 18h3M151 18h37M90 19h1M100 19h4M126 19h3M151 19h39M90 20h2M100 20h4M125 20h2M151 20h41M90 21h2M100 21h4M124 21h2M152 21h41M90 22h2M100 22h4M122 22h2M152 22h42M91 23h1M100 23h5M121 23h2M148 23h2M153 23h42M91 24h1M100 24h5M120 24h2M147 24h4M154 24h42M91 25h2M101 25h4M119 25h2M146 25h5M155 25h42M237 25h3M91 26h2M101 26h4M118 26h2M147 26h5M155 26h43M236 26h4M91 27h2M101 27h4M117 27h3M147 27h6M156 27h42M235 27h6M92 28h1M101 28h5M116 28h3M147 28h6M156 28h43M234 28h8M92 29h1M101 29h5M116 29h2M148 29h6M156 29h44M234 29h3M238 29h5M92 30h2M102 30h4M115 30h3M148 30h6M156 30h44M233 30h4M239 30h5M92 31h2M102 31h4M115 31h3M148 31h7M156 31h45M233 31h4M240 31h5M92 32h2M102 32h4M115 32h2M148 32h4M154 32h47M232 32h4M240 32h5M93 33h1M102 33h3M114 33h3M147 33h5M154 33h47M231 33h5M241 33h5M93 34h1M99 34h5M114 34h3M147 34h5M154 34h48M231 34h4M242 34h4M93 35h2M97 35h7M114 35h3M146 35h5M154 35h48M230 35h5M244 35h2M93 36h8M114 36h3M146 36h5M154 36h48M230 36h4M245 36h2M94 37h4M114 37h3M145 37h5M154 37h5M160 37h43M229 37h5M244 37h2M114 38h3M144 38h6M153 38h6M160 38h2M163 38h40M229 38h5M243 38h3M114 39h3M144 39h5M153 39h5M160 39h3M165 39h38M228 39h5M243 39h2M103 40h6M115 40h3M143 40h6M152 40h5M161 40h2M167 40h36M228 40h5M242 40h3M101 41h9M115 41h8M142 41h6M152 41h4M161 41h3M167 41h36M227 41h5M241 41h3M99 42h11M118 42h1M120 42h2M137 42h3M141 42h6M151 42h4M162 42h3M168 42h35M227 42h5M240 42h3M98 43h8M107 43h3M120 43h3M134 43h12M150 43h2M163 43h2M169 43h34M226 43h5M240 43h3M64 44h5M97 44h5M107 44h3M120 44h3M132 44h12M163 44h3M171 44h32M226 44h5M239 44h3M64 45h1M68 45h1M97 45h1M107 45h4M119 45h4M131 45h6M139 45h5M164 45h3M172 45h31M226 45h4M238 45h4M68 46h1M97 46h2M107 46h4M118 46h5M130 46h4M136 46h2M142 46h3M165 46h4M174 46h29M225 46h5M238 46h3M68 47h1M98 47h1M105 47h6M117 47h5M130 47h3M136 47h2M143 47h3M162 47h8M176 47h27M225 47h5M237 47h3M68 48h1M98 48h2M102 48h8M115 48h6M130 48h2M137 48h2M143 48h4M161 48h11M179 48h24M224 48h5M236 48h4M46 49h4M98 49h11M114 49h6M129 49h3M137 49h2M144 49h3M159 49h6M167 49h7M182 49h21M224 49h5M236 49h3M45 50h3M99 50h9M109 50h2M112 50h7M129 50h2M133 50h1M137 50h2M144 50h3M158 50h3M162 50h4M169 50h8M185 50h17M223 50h5M235 50h4M101 51h2M108 51h4M113 51h4M128 51h3M137 51h3M144 51h4M158 51h2M162 51h4M170 51h10M185 51h17M205 51h3M223 51h5M234 51h4M109 52h6M128 52h3M138 52h2M144 52h4M157 52h1M163 52h4M171 52h3M176 52h7M185 52h17M203 52h5M222 52h5M234 52h3M113 53h2M127 53h4M138 53h3M144 53h4M157 53h3M163 53h4M171 53h4M185 53h23M222 53h5M233 53h4M114 54h3M124 54h7M138 54h3M145 54h3M156 54h4M164 54h4M172 54h3M180 54h2M185 54h23M221 54h5M233 54h3M116 55h12M129 55h2M135 55h1M139 55h2M144 55h6M155 55h2M159 55h1M164 55h4M172 55h4M179 55h2M184 55h24M221 55h5M232 55h4M119 56h2M123 56h3M129 56h2M135 56h1M139 56h3M144 56h8M155 56h2M159 56h2M164 56h5M172 56h4M178 56h2M184 56h9M195 56h13M220 56h5M231 56h4M122 57h4M129 57h2M136 57h1M139 57h3M144 57h4M150 57h2M155 57h6M165 57h4M173 57h3M178 57h1M183 57h10M197 57h10M220 57h5M231 57h4M19 58h4M121 58h4M129 58h2M136 58h1M140 58h2M144 58h4M152 58h1M155 58h1M157 58h2M160 58h2M165 58h4M173 58h3M177 58h2M182 58h10M195 58h12M219 58h5M230 58h4M16 59h4M121 59h4M129 59h2M136 59h1M140 59h3M144 59h3M154 59h2M158 59h4M166 59h4M173 59h3M177 59h2M189 59h3M195 59h2M198 59h9M219 59h5M230 59h4M12 60h4M120 60h4M129 60h2M140 60h3M144 60h3M154 60h2M158 60h4M166 60h4M173 60h6M189 60h3M194 60h2M201 60h5M218 60h6M229 60h4M10 61h4M31 61h2M120 61h4M130 61h2M137 61h1M141 61h6M154 61h3M159 61h4M166 61h5M173 61h4M178 61h4M186 61h1M189 61h2M194 61h2M202 61h4M218 61h7M229 61h4M8 62h5M28 62h9M120 62h4M130 62h2M137 62h1M141 62h5M155 62h3M159 62h4M167 62h4M173 62h3M179 62h7M189 62h1M194 62h1M202 62h5M219 62h7M228 62h4M7 63h4M25 63h9M119 63h4M130 63h3M137 63h1M141 63h5M155 63h2M159 63h4M167 63h4M173 63h3M185 63h1M189 63h1M193 63h1M203 63h5M220 63h7M228 63h4M5 64h4M22 64h8M119 64h4M131 64h2M141 64h4M155 64h2M158 64h1M160 64h4M167 64h9M185 64h1M188 64h1M192 64h2M203 64h6M221 64h10M4 65h4M20 65h7M119 65h4M132 65h3M137 65h2M140 65h4M155 65h2M158 65h6M168 65h8M184 65h2M192 65h1M203 65h6M222 65h9M5 66h2M17 66h7M119 66h4M132 66h12M155 66h2M159 66h6M168 66h8M184 66h2M191 66h2M203 66h6M223 66h7M4 67h3M15 67h6M119 67h3M134 67h7M156 67h2M159 67h6M168 67h7M183 67h2M190 67h2M203 67h5M225 67h5M4 68h4M13 68h5M119 68h3M129 68h1M156 68h9M169 68h6M182 68h3M189 68h3M203 68h5M216 68h3M227 68h2M4 69h4M13 69h3M119 69h4M129 69h1M156 69h10M169 69h5M182 69h2M188 69h3M203 69h5M215 69h5M227 69h2M4 70h4M13 70h1M119 70h4M129 70h2M157 70h9M169 70h5M181 70h2M187 70h3M203 70h4M214 70h6M4 71h4M13 71h1M119 71h4M129 71h2M157 71h3M162 71h4M169 71h4M178 71h5M185 71h4M202 71h4M214 71h9M5 72h3M13 72h2M119 72h5M129 72h3M158 72h8M167 72h5M176 72h12M202 72h3M213 72h11M5 73h3M13 73h2M119 73h6M126 73h1M129 73h3M140 73h9M159 73h11M176 73h10M202 73h2M212 73h6M220 73h5M5 74h3M13 74h2M120 74h7M129 74h3M144 74h11M161 74h7M176 74h3M201 74h3M212 74h6M221 74h4M6 75h2M14 75h2M121 75h4M126 75h1M130 75h2M150 75h9M201 75h3M211 75h6M222 75h3M6 76h2M14 76h2M126 76h1M130 76h3M156 76h4M200 76h4M211 76h5M223 76h2M6 77h3M14 77h2M126 77h1M130 77h3M199 77h5M210 77h6M223 77h2M6 78h3M14 78h2M126 78h1M131 78h3M198 78h6M210 78h5M223 78h2M6 79h3M14 79h3M125 79h2M131 79h3M193 79h1M196 79h8M209 79h6M222 79h3M6 80h3M15 80h2M73 80h1M125 80h1M132 80h3M191 80h8M200 80h4M210 80h6M222 80h2M6 81h3M15 81h2M73 81h1M124 81h2M132 81h4M190 81h8M200 81h4M210 81h8M221 81h3M6 82h3M15 82h3M72 82h2M123 82h2M133 82h3M181 82h1M183 82h2M190 82h3M199 82h7M213 82h6M221 82h3M6 83h3M15 83h3M73 83h1M121 83h3M133 83h4M181 83h5M188 83h5M195 83h12M214 83h9M7 84h2M15 84h3M119 84h3M134 84h4M181 84h5M187 84h7M196 84h11M215 84h7M7 85h2M16 85h2M116 85h9M133 85h1M135 85h5M181 85h5M187 85h8M196 85h11M216 85h6M7 86h2M16 86h3M117 86h3M124 86h2M132 86h1M136 86h5M180 86h6M187 86h6M194 86h13M217 86h5M7 87h2M16 87h3M125 87h2M129 87h3M137 87h6M172 87h2M180 87h6M187 87h5M195 87h11M219 87h2M7 88h3M16 88h3M126 88h4M139 88h6M168 88h4M180 88h6M187 88h5M196 88h9M7 89h3M16 89h3M142 89h6M164 89h6M180 89h6M187 89h1M189 89h2M198 89h4M7 90h3M17 90h2M144 90h23M180 90h6M187 90h1M7 91h3M17 91h3M92 91h5M146 91h18M180 91h6M7 92h3M17 92h3M92 92h12M152 92h6M180 92h6M7 93h3M17 93h3M92 93h18M157 93h1M180 93h7M190 93h2M7 94h3M17 94h3M96 94h16M158 94h1M180 94h7M189 94h5M7 95h3M18 95h2M100 95h14M152 95h8M179 95h16M7 96h3M18 96h3M105 96h10M146 96h15M177 96h20M7 97h4M18 97h3M110 97h5M143 97h13M158 97h3M175 97h23M7 98h4M18 98h3M111 98h5M140 98h11M157 98h4M173 98h16M194 98h4M7 99h4M18 99h3M112 99h7M138 99h9M156 99h5M172 99h11M194 99h5M7 100h4M19 100h2M112 100h6M136 100h8M156 100h5M170 100h9M195 100h5M7 101h4M19 101h2M112 101h5M134 101h7M155 101h6M169 101h8M196 101h5M7 102h5M19 102h2M24 102h3M110 102h6M133 102h6M155 102h6M168 102h7M197 102h5M7 103h5M19 103h9M109 103h6M132 103h5M154 103h5M160 103h1M167 103h7M198 103h4M7 104h5M19 104h8M108 104h6M131 104h5M154 104h4M160 104h1M166 104h7M198 104h5M7 105h5M20 105h4M106 105h6M130 105h4M154 105h4M160 105h2M166 105h6M199 105h4M8 106h4M19 106h3M105 106h6M129 106h4M153 106h5M160 106h1M165 106h6M199 106h5M8 107h5M15 107h2M18 107h1M105 107h5M129 107h3M153 107h5M160 107h1M164 107h6M200 107h4M8 108h5M30 108h3M105 108h3M128 108h4M153 108h4M163 108h6M200 108h4M8 109h5M28 109h6M104 109h3M128 109h3M153 109h4M162 109h7M200 109h5M8 110h5M26 110h8M104 110h2M128 110h3M153 110h4M160 110h8M200 110h6M8 111h5M25 111h7M36 111h2M103 111h1M127 111h4M153 111h14M200 111h7M8 112h6M22 112h8M34 112h5M102 112h1M128 112h3M148 112h18M200 112h8M8 113h6M18 113h10M33 113h9M44 113h1M53 113h4M127 113h4M149 113h16M197 113h13M8 114h6M15 114h11M33 114h37M126 114h6M150 114h13M196 114h15M8 115h16M33 115h1M37 115h34M125 115h8M153 115h7M196 115h16M8 116h14M41 116h31M96 116h1M124 116h5M131 116h3M197 116h5M203 116h10M9 117h1M11 117h15M44 117h29M93 117h2M123 117h5M132 117h3M193 117h3M203 117h12M11 118h23M49 118h24M89 118h5M122 118h6M132 118h3M192 118h2M204 118h12M11 119h30M57 119h12M84 119h8M121 119h6M133 119h4M190 119h3M205 119h12M14 120h34M82 120h8M120 120h6M134 120h4M188 120h3M206 120h12M16 121h38M80 121h9M120 121h5M135 121h4M186 121h3M207 121h12M16 122h42M78 122h9M119 122h6M136 122h4M185 122h3M208 122h12M16 123h47M76 123h9M118 123h6M138 123h3M183 123h3M209 123h12M16 124h50M74 124h10M118 124h5M139 124h4M182 124h2M210 124h12M17 125h51M72 125h10M117 125h6M140 125h4M180 125h3M211 125h12M18 126h46M70 126h10M116 126h6M142 126h3M179 126h2M212 126h12M22 127h43M67 127h11M116 127h5M144 127h3M177 127h2M213 127h12M27 128h49M33 129h41M41 130h30M50 131h19M57 132h3M62 132h4" />
<path stroke="#ff8000" d="M89 9h1M90 11h1M90 12h1M90 13h1M90 14h1M66 15h3M91 15h1M64 16h4M91 16h1M62 17h6M91 17h1M60 18h7M91 18h1M58 19h8M91 19h2M55 20h11M92 20h1M53 21h12M92 21h1M51 22h13M92 22h1M50 23h14M92 23h1M48 24h15M92 24h2M46 25h17M93 25h1M44 26h18M93 26h1M43 27h18M93 27h1M41 28h20M93 28h1M40 29h21M93 29h1M39 30h21M94 30h1M38 31h22M94 31h1M37 32h22M94 32h1M36 33h23M94 33h1M36 34h23M94 34h1M35 35h23M35 36h23M35 37h23M36 38h22M36 39h22M38 40h20M39 41h19M40 42h19M42 43h17M44 44h16M45 45h17M98 45h2M47 46h17M99 46h2M49 47h19M99 47h2M50 48h18M100 48h1M132 48h1M52 49h18M132 49h1M53 50h18M136 50h1M39 51h6M54 51h18M133 51h1M136 51h1M36 52h9M54 52h20M133 52h1M20 53h2M32 53h15M55 53h20M133 53h1M137 53h1M21 54h28M55 54h20M134 54h1M137 54h1M163 54h1M21 55h29M55 55h21M134 55h1M138 55h1M163 55h1M22 56h29M55 56h22M134 56h1M138 56h1M25 57h26M55 57h23M134 57h2M138 57h1M164 57h1M28 58h24M55 58h23M135 58h1M139 58h1M164 58h1M31 59h22M56 59h23M135 59h1M139 59h1M164 59h2M36 60h18M56 60h23M135 60h2M139 60h1M165 60h1M40 61h40M136 61h1M140 61h1M165 61h1M43 62h37M136 62h1M165 62h2M46 63h34M166 63h1M47 64h33M137 64h1M166 64h1M48 65h32M166 65h2M49 66h30M167 66h1M50 67h29M167 67h1M51 68h28M167 68h1M51 69h27M94 69h1M52 70h26M93 70h2M168 70h1M52 71h26M93 71h3M168 71h1M52 72h25M93 72h3M53 73h23M93 73h4M53 74h23M92 74h5M53 75h22M91 75h6M53 76h21M90 76h8M53 77h20M89 77h9M54 78h18M88 78h10M54 79h18M86 79h12M54 80h17M85 80h12M53 81h17M83 81h14M53 82h16M81 82h16M53 83h15M79 83h17M52 84h5M58 84h2M62 84h6M69 84h3M77 84h19M51 85h6M63 85h32M50 86h8M65 86h30M48 87h11M66 87h28M45 88h16M67 88h26M41 89h21M68 89h24M35 90h28M69 90h23M31 91h33M70 91h21M28 92h36M70 92h22M27 93h38M71 93h21M26 94h40M71 94h19M26 95h40M72 95h19M26 96h37M72 96h19M27 97h33M73 97h20M27 98h32M73 98h27M28 99h29M73 99h7M84 99h16M28 100h29M74 100h4M84 100h16M29 101h28M84 101h16M30 102h27M83 102h17M31 103h26M83 103h18M32 104h25M83 104h18M33 105h25M83 105h19M34 106h24M83 106h20M36 107h23M83 107h20M37 108h23M83 108h19M39 109h20M84 109h18M42 110h16M85 110h16M46 111h8M85 111h14M84 112h14M84 113h11M83 114h9M81 115h7" />
<path stroke="#ff0000" d="M74 10h2M72 11h3M70 12h3M68 13h4M65 14h4M70 14h1M63 15h3M69 15h1M61 16h3M68 16h1M59 17h3M56 18h4M67 18h1M54 19h4M66 19h1M52 20h3M50 21h3M65 21h1M48 22h3M64 22h1M47 23h3M64 23h1M45 24h3M63 24h1M43 25h3M63 25h1M42 26h2M62 26h1M41 27h2M61 27h2M39 28h2M61 28h1M38 29h2M61 29h1M37 30h2M60 30h1M36 31h2M60 31h1M35 32h2M59 32h2M35 33h1M59 33h1M34 34h2M59 34h1M34 35h1M58 35h2M34 36h1M58 36h2M34 37h1M58 37h1M34 38h2M58 38h1M35 39h1M58 39h1M36 40h2M58 40h2M37 41h2M58 41h2M38 42h2M59 42h1M39 43h3M59 43h2M41 44h3M60 44h2M43 45h2M62 45h2M45 46h2M64 46h4M17 47h1M46 47h3M17 48h1M48 48h2M16 49h1M18 49h1M40 49h4M50 49h2M70 49h1M17 50h3M36 50h9M51 50h2M71 50h1M18 51h3M33 51h6M52 51h2M72 51h2M18 52h1M20 52h16M45 52h3M53 52h1M74 52h1M19 53h1M22 53h10M47 53h3M54 53h1M75 53h1M19 54h2M49 54h2M54 54h1M75 54h2M20 55h1M50 55h2M54 55h1M76 55h2M20 56h2M51 56h2M54 56h1M77 56h2M21 57h4M51 57h4M78 57h2M23 58h5M52 58h3M78 58h2M26 59h5M53 59h3M79 59h2M85 59h3M29 60h7M54 60h2M79 60h2M85 60h5M33 61h7M80 61h1M87 61h4M37 62h6M80 62h2M88 62h4M41 63h5M80 63h2M89 63h4M44 64h3M80 64h2M90 64h4M46 65h2M80 65h2M90 65h5M47 66h2M79 66h2M91 66h4M48 67h2M79 67h2M91 67h5M49 68h2M79 68h2M91 68h6M49 69h2M78 69h3M91 69h3M95 69h2M50 70h2M78 70h2M91 70h2M95 70h3M50 71h2M78 71h2M91 71h2M96 71h2M50 72h2M77 72h2M90 72h3M96 72h3M51 73h2M76 73h3M90 73h3M97 73h2M51 74h2M76 74h2M89 74h3M97 74h3M51 75h2M75 75h3M88 75h3M97 75h3M51 76h2M74 76h3M87 76h3M98 76h2M52 77h1M73 77h3M85 77h4M98 77h2M52 78h2M72 78h3M84 78h4M98 78h2M52 79h2M72 79h2M82 79h4M98 79h2M52 80h2M71 80h2M81 80h4M97 80h3M52 81h1M70 81h3M79 81h4M97 81h2M51 82h2M69 82h3M77 82h4M97 82h2M51 83h2M68 83h5M74 83h5M96 83h3M50 84h2M57 84h1M60 84h2M68 84h1M72 84h5M96 84h2M48 85h3M57 85h3M61 85h2M95 85h2M45 86h5M58 86h7M95 86h2M41 87h7M59 87h7M94 87h2M35 88h10M61 88h6M93 88h2M30 89h11M62 89h3M66 89h2M92 89h2M27 90h8M63 90h6M92 90h1M26 91h5M64 91h6M91 91h1M25 92h3M64 92h3M68 92h2M24 93h3M65 93h6M24 94h2M66 94h2M69 94h2M90 94h2M24 95h2M66 95h2M70 95h2M91 95h1M24 96h2M63 96h5M70 96h2M91 96h12M24 97h3M60 97h7M70 97h3M93 97h10M25 98h2M59 98h6M71 98h2M100 98h2M25 99h3M57 99h5M71 99h2M80 99h4M100 99h2M26 100h2M57 100h3M71 100h3M78 100h6M100 100h2M26 101h3M57 101h2M72 101h8M82 101h2M100 101h2M27 102h3M57 102h2M73 102h5M81 102h2M100 102h2M28 103h3M57 103h2M81 103h2M101 103h3M28 104h4M57 104h3M81 104h2M101 104h3M29 105h4M58 105h2M81 105h2M102 105h3M30 106h4M58 106h3M81 106h2M103 106h2M32 107h4M59 107h3M80 107h3M103 107h2M33 108h4M60 108h4M80 108h3M102 108h3M34 109h5M59 109h7M81 109h3M102 109h2M36 110h6M58 110h1M60 110h7M82 110h3M101 110h3M38 111h8M54 111h4M63 111h7M82 111h3M99 111h4M41 112h15M69 112h1M72 112h2M81 112h3M98 112h4M45 113h8M70 113h1M73 113h11M95 113h6M70 114h3M74 114h9M92 114h8M71 115h4M76 115h5M88 115h10M72 116h24M73 117h20M75 118h14" />
</svg>