<svg xmlns="http://www.w3.org/2000/svg" viewBox="0 -0.5 350 290" shape-rendering="crispEdges">
<path stroke="#000000" d="M143 7h5M141 8h7M140 9h8M139 10h9M138 11h6M146 11h2M138 12h4M146 12h2M138 13h2M146 13h2M138 14h2M146 14h2M138 15h2M146 15h2M139 16h1M146 16h2M139 17h2M146 17h2M139 18h2M146 18h3M139 19h2M146 19h3M139 20h2M146 20h3M139 21h2M146 21h3M139 22h2M146 22h3M91 23h2M139 23h2M146 23h3M90 24h3M139 24h2M146 24h3M90 25h2M139 25h2M147 25h2M89 26h3M139 26h2M147 26h2M89 27h3M139 27h2M147 27h2M88 28h3M93 28h5M139 28h2M147 28h2M87 29h11M139 29h2M147 29h2M82 30h16M139 30h3M147 30h2M80 31h16M139 31h3M147 31h2M81 32h9M139 32h3M147 32h2M86 33h3M139 33h3M147 33h2M86 34h3M140 34h2M147 34h3M85 35h3M95 35h6M140 35h2M147 35h3M84 36h4M91 36h12M140 36h2M147 36h3M84 37h3M88 37h16M140 37h2M147 37h3M84 38h12M99 38h5M140 38h2M147 38h3M83 39h8M100 39h4M140 39h2M147 39h3M83 40h4M100 40h4M140 40h2M147 40h3M83 41h2M99 41h4M140 41h2M147 41h3M97 42h6M140 42h3M147 42h3M51 43h3M95 43h7M140 43h3M147 43h3M28 44h3M50 44h4M92 44h8M140 44h3M148 44h2M27 45h5M50 45h5M84 45h1M89 45h10M140 45h3M148 45h2M26 46h6M50 46h5M85 46h11M140 46h3M148 46h2M26 47h6M51 47h4M141 47h2M148 47h2M26 48h6M51 48h4M60 48h7M141 48h2M148 48h2M26 49h6M51 49h4M57 49h11M141 49h2M148 49h2M28 50h5M52 50h16M141 50h2M148 50h2M29 51h3M53 51h11M141 51h2M148 51h3M29 52h3M51 52h9M141 52h2M148 52h3M29 53h3M49 53h8M141 53h2M148 53h3M29 54h3M47 54h8M59 54h1M65 54h2M141 54h3M148 54h3M29 55h3M45 55h8M57 55h4M65 55h3M141 55h3M148 55h3M29 56h3M44 56h7M57 56h4M65 56h3M141 56h3M148 56h3M28 57h3M40 57h9M57 57h4M65 57h4M141 57h3M148 57h3M28 58h3M39 58h8M57 58h4M65 58h4M141 58h3M148 58h3M28 59h3M40 59h6M56 59h4M66 59h3M141 59h3M148 59h3M27 60h3M41 60h3M50 60h10M66 60h4M141 60h3M148 60h3M27 61h3M53 61h8M66 61h4M141 61h3M148 61h3M27 62h2M55 62h8M67 62h3M141 62h3M148 62h3M26 63h2M30 63h8M43 63h3M54 63h10M67 63h4M141 63h3M149 63h2M26 64h13M43 64h4M54 64h4M61 64h9M142 64h2M149 64h2M23 65h17M43 65h4M53 65h5M62 65h7M142 65h2M149 65h4M20 66h9M35 66h5M44 66h4M52 66h5M60 66h8M142 66h2M149 66h6M19 67h6M28 67h2M37 67h3M44 67h4M52 67h4M58 67h7M142 67h2M149 67h2M153 67h3M18 68h4M28 68h2M37 68h3M44 68h4M51 68h12M142 68h2M149 68h2M154 68h3M17 69h5M28 69h2M37 69h3M45 69h4M53 69h8M142 69h2M149 69h2M154 69h3M17 70h5M28 70h2M37 70h3M45 70h4M51 70h9M142 70h2M149 70h2M155 70h2M18 71h5M28 71h3M37 71h3M45 71h11M59 71h2M67 71h7M142 71h2M149 71h2M155 71h3M19 72h4M28 72h6M37 72h3M46 72h8M59 72h2M63 72h12M142 72h2M149 72h2M155 72h3M19 73h4M25 73h10M37 73h3M46 73h6M58 73h18M104 73h6M142 73h3M149 73h2M155 73h2M20 74h12M37 74h3M48 74h1M58 74h9M73 74h3M100 74h13M142 74h3M149 74h2M155 74h2M20 75h12M36 75h4M57 75h7M66 75h2M73 75h4M99 75h17M137 75h9M149 75h2M154 75h3M20 76h3M29 76h3M36 76h4M56 76h6M66 76h3M74 76h4M98 76h19M134 76h13M149 76h2M154 76h3M20 77h4M29 77h3M37 77h3M54 77h6M66 77h4M75 77h3M97 77h22M133 77h6M144 77h3M149 77h3M154 77h3M20 78h4M29 78h3M37 78h2M53 78h7M66 78h4M75 78h3M83 78h1M97 78h23M132 78h4M144 78h3M149 78h3M154 78h3M21 79h3M29 79h3M37 79h2M51 79h5M57 79h2M66 79h5M75 79h4M96 79h25M131 79h4M144 79h4M149 79h3M154 79h2M21 80h3M30 80h3M50 80h4M56 80h3M64 80h7M76 80h3M84 80h1M96 80h26M130 80h3M144 80h4M149 80h3M153 80h3M21 81h4M30 81h7M49 81h4M56 81h3M63 81h9M76 81h3M84 81h1M96 81h27M130 81h3M144 81h4M150 81h2M153 81h3M22 82h3M30 82h6M48 82h3M56 82h3M61 82h11M76 82h4M84 82h1M97 82h26M129 82h3M144 82h5M150 82h2M153 82h3M22 83h4M28 83h7M47 83h3M55 83h4M60 83h6M69 83h2M77 83h3M85 83h1M97 83h27M129 83h3M145 83h4M150 83h2M153 83h3M23 84h10M47 84h3M55 84h10M77 84h3M85 84h2M98 84h27M130 84h3M145 84h4M150 84h2M153 84h2M25 85h9M47 85h3M55 85h8M77 85h4M85 85h4M100 85h25M130 85h3M145 85h10M25 86h4M31 86h3M48 86h3M55 86h6M77 86h4M85 86h5M103 86h23M130 86h3M145 86h10M31 87h3M48 87h3M57 87h2M77 87h5M85 87h6M105 87h21M131 87h3M145 87h9M31 88h4M48 88h4M77 88h5M86 88h6M107 88h19M131 88h3M145 88h9M31 89h4M48 89h4M77 89h5M86 89h6M108 89h19M132 89h3M145 89h10M31 90h4M39 90h1M49 90h4M77 90h5M86 90h6M109 90h18M132 90h3M145 90h11M30 91h5M38 91h3M49 91h4M77 91h5M86 91h4M110 91h17M133 91h3M145 91h11M30 92h5M38 92h3M49 92h4M69 92h1M77 92h5M85 92h5M110 92h17M133 92h3M146 92h10M30 93h6M38 93h3M50 93h4M70 93h11M84 93h5M111 93h16M133 93h3M146 93h9M30 94h6M38 94h3M50 94h4M71 94h8M83 94h6M111 94h16M134 94h3M146 94h4M151 94h4M30 95h6M38 95h3M51 95h4M74 95h3M81 95h7M111 95h16M134 95h3M146 95h4M151 95h4M30 96h6M38 96h3M51 96h4M80 96h7M111 96h17M135 96h3M146 96h4M151 96h4M292 96h6M30 97h6M38 97h3M46 97h1M51 97h5M78 97h8M112 97h16M135 97h3M147 97h3M151 97h4M286 97h18M30 98h7M38 98h4M46 98h1M52 98h4M76 98h8M112 98h16M135 98h3M147 98h3M151 98h5M163 98h1M165 98h1M282 98h25M30 99h7M39 99h3M46 99h2M53 99h3M75 99h8M111 99h16M136 99h3M146 99h3M151 99h5M162 99h5M280 99h30M30 100h7M39 100h3M46 100h2M73 100h8M111 100h16M136 100h3M145 100h2M151 100h5M161 100h6M278 100h10M301 100h11M30 101h7M39 101h3M46 101h3M71 101h9M111 101h16M137 101h3M145 101h2M151 101h6M160 101h7M275 101h9M305 101h9M30 102h3M34 102h3M39 102h4M45 102h4M69 102h9M111 102h16M137 102h4M145 102h2M151 102h6M160 102h7M274 102h7M308 102h8M29 103h4M34 103h4M40 103h10M67 103h9M110 103h17M138 103h3M143 103h1M145 103h2M152 103h2M155 103h3M163 103h5M272 103h6M310 103h8M29 104h4M34 104h4M40 104h6M47 104h3M65 104h9M110 104h17M139 104h5M145 104h2M152 104h2M155 104h3M163 104h5M270 104h6M313 104h7M29 105h4M34 105h4M41 105h4M47 105h3M62 105h10M110 105h17M140 105h4M145 105h2M152 105h2M156 105h3M164 105h4M269 105h6M314 105h7M29 106h4M34 106h4M60 106h10M109 106h17M141 106h2M145 106h2M152 106h3M156 106h4M164 106h5M267 106h6M316 106h7M29 107h3M35 107h4M58 107h10M109 107h17M145 107h3M152 107h3M157 107h5M165 107h4M266 107h5M318 107h6M29 108h3M35 108h4M55 108h11M108 108h18M145 108h3M152 108h3M157 108h6M165 108h4M265 108h5M319 108h6M29 109h3M35 109h5M52 109h12M108 109h18M145 109h3M153 109h2M156 109h8M166 109h4M264 109h4M321 109h5M29 110h3M36 110h7M49 110h12M107 110h18M145 110h3M153 110h2M156 110h8M166 110h4M263 110h4M272 110h2M322 110h5M29 111h3M37 111h22M106 111h19M145 111h3M153 111h2M156 111h8M167 111h3M262 111h4M272 111h3M323 111h6M29 112h3M38 112h18M106 112h18M145 112h3M153 112h2M156 112h7M167 112h4M262 112h10M273 112h2M324 112h6M29 113h3M39 113h14M105 113h19M145 113h3M153 113h2M156 113h7M168 113h3M260 113h11M273 113h3M326 113h5M29 114h3M40 114h9M104 114h19M145 114h3M153 114h3M157 114h4M168 114h4M258 114h8M274 114h3M327 114h4M29 115h2M104 115h19M145 115h3M153 115h3M157 115h3M169 115h3M255 115h8M274 115h4M328 115h4M29 116h2M103 116h20M145 116h3M153 116h3M157 116h3M169 116h3M253 116h7M275 116h4M328 116h5M29 117h2M102 117h20M146 117h2M153 117h3M157 117h2M170 117h3M251 117h7M276 117h4M329 117h5M101 118h20M146 118h2M153 118h3M157 118h2M170 118h3M250 118h6M276 118h5M330 118h5M100 119h21M146 119h2M154 119h2M157 119h1M170 119h4M248 119h6M277 119h5M331 119h5M99 120h21M146 120h3M154 120h2M157 120h1M171 120h3M247 120h5M278 120h5M332 120h4M98 121h21M146 121h3M154 121h2M171 121h4M246 121h5M279 121h5M333 121h4M97 122h22M146 122h3M154 122h2M172 122h3M245 122h5M280 122h5M333 122h5M96 123h22M146 123h3M154 123h3M172 123h4M244 123h4M281 123h5M334 123h4M95 124h22M146 124h3M154 124h3M173 124h4M243 124h5M282 124h5M335 124h4M94 125h22M146 125h3M154 125h3M173 125h4M242 125h5M283 125h5M335 125h5M93 126h23M146 126h3M154 126h3M174 126h4M241 126h5M284 126h6M336 126h4M92 127h23M146 127h3M154 127h3M174 127h4M241 127h4M285 127h6M337 127h4M91 128h23M146 128h3M154 128h3M175 128h4M240 128h5M286 128h6M337 128h4M90 129h23M147 129h2M154 129h3M175 129h5M239 129h5M287 129h7M338 129h4M89 130h23M147 130h2M155 130h2M176 130h4M239 130h5M288 130h7M338 130h4M18 131h1M48 131h5M88 131h23M147 131h3M155 131h2M176 131h5M239 131h4M290 131h7M338 131h4M17 132h2M47 132h9M87 132h23M147 132h3M155 132h2M177 132h4M238 132h5M291 132h8M339 132h4M16 133h3M47 133h10M86 133h23M147 133h3M155 133h3M177 133h5M238 133h5M292 133h9M339 133h4M15 134h4M48 134h9M86 134h22M147 134h3M155 134h3M178 134h5M238 134h5M292 134h11M339 134h4M14 135h4M53 135h4M85 135h22M147 135h3M155 135h3M178 135h5M238 135h5M291 135h14M340 135h3M12 136h5M54 136h2M84 136h22M147 136h3M155 136h3M179 136h5M238 136h5M289 136h3M297 136h10M340 136h3M11 137h5M54 137h2M83 137h22M147 137h3M155 137h3M180 137h5M238 137h5M287 137h4M299 137h11M340 137h3M11 138h4M53 138h2M59 138h4M82 138h22M147 138h3M155 138h3M180 138h5M238 138h4M266 138h5M284 138h6M301 138h11M340 138h3M9 139h9M31 139h1M53 139h2M58 139h6M82 139h21M146 139h4M155 139h3M181 139h5M238 139h4M263 139h11M281 139h7M300 139h2M303 139h12M333 139h3M340 139h3M9 140h11M30 140h2M49 140h6M59 140h5M81 140h21M146 140h4M155 140h3M181 140h6M238 140h5M261 140h14M278 140h8M300 140h2M306 140h12M333 140h4M340 140h3M8 141h3M14 141h1M16 141h5M30 141h2M46 141h13M60 141h4M80 141h21M145 141h5M156 141h2M182 141h5M239 141h4M259 141h7M271 141h6M279 141h4M300 141h2M308 141h14M334 141h4M340 141h2M8 142h3M13 142h3M18 142h3M30 142h2M45 142h19M79 142h21M145 142h6M156 142h2M183 142h5M239 142h4M258 142h5M273 142h4M300 142h2M312 142h14M335 142h3M339 142h3M8 143h3M13 143h2M19 143h3M30 143h2M45 143h18M79 143h20M145 143h6M156 143h2M183 143h6M240 143h4M257 143h5M274 143h4M300 143h2M316 143h13M335 143h6M8 144h9M19 144h3M30 144h2M45 144h2M50 144h2M55 144h8M78 144h21M145 144h6M156 144h3M184 144h5M241 144h5M256 144h4M275 144h4M300 144h2M336 144h4M7 145h15M29 145h3M45 145h1M49 145h3M58 145h6M78 145h20M144 145h7M156 145h3M185 145h5M242 145h6M256 145h3M276 145h3M301 145h2M337 145h3M7 146h3M11 146h11M29 146h3M44 146h2M48 146h3M58 146h6M77 146h20M144 146h7M156 146h3M185 146h6M244 146h8M255 146h3M277 146h3M301 146h3M337 146h4M7 147h3M12 147h10M24 147h9M45 147h5M58 147h4M77 147h19M144 147h7M156 147h3M186 147h6M247 147h10M277 147h3M302 147h2M338 147h3M7 148h3M12 148h3M19 148h3M24 148h13M45 148h4M57 148h4M76 148h19M143 148h8M156 148h3M187 148h5M254 148h2M277 148h4M303 148h2M338 148h4M7 149h3M12 149h3M18 149h3M26 149h12M47 149h1M57 149h4M76 149h19M143 149h8M156 149h3M187 149h6M250 149h2M254 149h2M278 149h3M304 149h2M339 149h3M7 150h3M12 150h3M18 150h3M29 150h8M57 150h4M75 150h19M143 150h8M156 150h3M188 150h6M249 150h3M253 150h2M278 150h3M300 150h9M339 150h4M7 151h3M11 151h4M29 151h3M35 151h1M56 151h4M75 151h18M143 151h4M149 151h2M156 151h3M189 151h5M247 151h5M253 151h1M278 151h3M296 151h1M298 151h13M339 151h4M7 152h9M28 152h4M56 152h3M75 152h17M142 152h5M149 152h2M156 152h3M190 152h5M233 152h2M244 152h10M278 152h3M296 152h17M340 152h4M9 153h8M28 153h4M56 153h3M74 153h18M142 153h5M149 153h2M157 153h2M191 153h5M233 153h18M252 153h2M278 153h3M296 153h5M308 153h6M340 153h4M11 154h5M28 154h4M56 154h2M74 154h17M142 154h5M149 154h2M157 154h2M191 154h6M233 154h17M252 154h2M278 154h3M296 154h2M310 154h5M340 154h4M10 155h4M21 155h16M56 155h1M74 155h17M118 155h6M142 155h4M149 155h2M157 155h2M192 155h6M233 155h2M236 155h12M252 155h2M278 155h3M295 155h2M312 155h4M341 155h4M9 156h5M21 156h17M74 156h16M113 156h13M141 156h5M149 156h3M157 156h3M193 156h5M233 156h2M252 156h2M278 156h3M294 156h2M313 156h3M341 156h4M9 157h5M21 157h17M73 157h17M110 157h16M141 157h5M149 157h3M157 157h3M194 157h5M233 157h2M252 157h2M278 157h3M293 157h3M314 157h3M341 157h4M8 158h5M27 158h10M73 158h16M107 158h20M141 158h5M149 158h3M157 158h3M195 158h5M233 158h2M252 158h2M277 158h3M281 158h6M293 158h2M315 158h3M341 158h4M8 159h5M26 159h6M73 159h16M104 159h23M141 159h5M149 159h3M157 159h3M196 159h5M233 159h2M252 159h2M277 159h11M292 159h3M315 159h3M341 159h4M7 160h6M25 160h7M73 160h16M102 160h25M141 160h4M149 160h3M157 160h3M196 160h5M233 160h3M252 160h2M276 160h4M285 160h4M292 160h3M316 160h3M341 160h4M7 161h6M15 161h2M24 161h9M73 161h15M100 161h27M140 161h5M149 161h3M157 161h3M197 161h5M233 161h5M252 161h3M276 161h3M287 161h3M291 161h3M317 161h2M342 161h4M6 162h6M14 162h2M23 162h10M42 162h1M73 162h15M97 162h30M140 162h5M149 162h3M157 162h3M198 162h5M234 162h12M253 162h2M275 162h4M288 162h2M291 162h3M317 162h2M342 162h4M6 163h6M14 163h2M22 163h4M27 163h7M42 163h1M73 163h15M95 163h32M140 163h5M149 163h3M157 163h3M199 163h5M235 163h10M253 163h3M275 163h3M289 163h1M291 163h3M317 163h3M342 163h4M5 164h3M9 164h3M13 164h3M21 164h4M27 164h8M42 164h2M74 164h14M92 164h27M122 164h5M140 164h4M150 164h2M157 164h3M200 164h5M238 164h4M250 164h1M253 164h3M274 164h4M291 164h3M318 164h2M342 164h4M5 165h3M9 165h3M13 165h2M20 165h4M27 165h9M42 165h2M74 165h42M122 165h5M139 165h5M150 165h2M158 165h2M201 165h5M244 165h1M250 165h1M254 165h3M273 165h4M291 165h3M318 165h2M342 165h4M4 166h8M13 166h2M18 166h5M27 166h4M32 166h6M42 166h3M74 166h38M122 166h5M139 166h5M150 166h2M158 166h3M202 166h5M241 166h4M250 166h2M255 166h3M272 166h4M290 166h3M318 166h2M341 166h5M4 167h3M8 167h7M18 167h4M27 167h4M33 167h7M43 167h2M74 167h36M122 167h5M139 167h5M150 167h11M203 167h5M239 167h5M250 167h2M255 167h4M270 167h5M290 167h3M318 167h2M341 167h5M4 168h3M8 168h4M13 168h2M18 168h4M27 168h3M34 168h7M43 168h3M74 168h33M122 168h5M139 168h5M150 168h11M204 168h5M238 168h5M250 168h2M256 168h5M268 168h6M290 168h3M318 168h2M341 168h4M3 169h3M8 169h4M13 169h9M27 169h3M35 169h7M43 169h3M75 169h30M122 169h5M139 169h5M150 169h11M205 169h5M237 169h5M250 169h2M257 169h15M290 169h4M318 169h2M341 169h4M3 170h3M9 170h3M13 170h9M27 170h3M37 170h5M43 170h4M75 170h28M122 170h6M139 170h4M149 170h11M206 170h5M236 170h5M250 170h2M259 170h12M290 170h4M318 170h2M341 170h4M2 171h3M9 171h4M15 171h7M27 171h3M43 171h4M76 171h24M123 171h6M139 171h4M149 171h11M207 171h5M235 171h5M250 171h2M261 171h7M290 171h4M317 171h3M340 171h5M2 172h3M9 172h6M20 172h2M27 172h2M44 172h4M76 172h22M123 172h8M138 172h5M148 172h13M208 172h6M235 172h5M250 172h3M291 172h3M317 172h3M340 172h4M2 173h3M10 173h8M20 173h1M44 173h4M77 173h18M124 173h8M138 173h5M148 173h13M209 173h6M235 173h4M250 173h3M291 173h3M316 173h3M339 173h5M11 174h11M43 174h5M79 174h14M125 174h9M138 174h5M148 174h14M210 174h6M234 174h4M250 174h3M291 174h4M315 174h4M339 174h4M12 175h16M40 175h8M80 175h10M126 175h9M138 175h5M148 175h14M212 175h5M234 175h4M250 175h3M291 175h4M314 175h4M338 175h5M15 176h32M128 176h8M138 176h5M148 176h14M213 176h5M234 176h3M251 176h3M292 176h4M313 176h4M336 176h6M18 177h27M130 177h6M138 177h5M148 177h14M214 177h5M234 177h3M251 177h3M292 177h5M312 177h5M334 177h7M343 177h3M23 178h19M131 178h6M138 178h5M149 178h14M216 178h5M235 178h3M251 178h4M293 178h5M310 178h6M336 178h3M343 178h4M30 179h9M132 179h10M149 179h14M217 179h5M235 179h3M251 179h4M294 179h7M306 179h9M336 179h10M133 180h9M150 180h13M218 180h5M236 180h4M249 180h7M294 180h19M337 180h8M134 181h8M150 181h13M219 181h5M236 181h6M244 181h7M252 181h4M296 181h16M339 181h6M134 182h8M151 182h11M221 182h5M237 182h13M253 182h4M298 182h11M342 182h3M134 183h8M153 183h9M222 183h5M239 183h9M253 183h4M301 183h5M342 183h3M135 184h7M154 184h8M223 184h5M242 184h2M254 184h4M341 184h4M135 185h8M155 185h7M225 185h5M254 185h5M341 185h4M136 186h10M147 186h1M156 186h5M226 186h5M255 186h4M341 186h4M137 187h10M156 187h5M228 187h5M256 187h4M340 187h4M137 188h8M156 188h5M229 188h5M256 188h5M340 188h4M137 189h5M156 189h4M231 189h5M257 189h5M339 189h5M137 190h5M156 190h3M232 190h5M258 190h6M312 190h1M339 190h4M137 191h5M155 191h4M234 191h4M259 191h6M311 191h2M338 191h5M137 192h5M153 192h5M236 192h4M258 192h8M310 192h3M337 192h5M137 193h5M152 193h4M237 193h5M258 193h10M308 193h4M336 193h6M137 194h5M151 194h3M239 194h4M259 194h11M307 194h4M335 194h6M137 195h5M149 195h2M241 195h4M259 195h3M264 195h8M305 195h5M333 195h7M136 196h6M243 196h4M256 196h6M265 196h10M301 196h8M319 196h2M328 196h11M136 197h6M245 197h17M267 197h11M299 197h8M319 197h19M136 198h6M248 198h13M269 198h15M290 198h14M321 198h15M136 199h6M247 199h14M271 199h30M323 199h11M137 200h5M248 200h10M274 200h27M318 200h1M137 201h5M248 201h2M255 201h3M278 201h13M293 201h9M319 201h1M137 202h5M248 202h2M255 202h3M291 202h6M298 202h6M320 202h2M137 203h5M248 203h2M255 203h3M290 203h6M299 203h6M320 203h3M137 204h5M248 204h2M255 204h3M289 204h6M301 204h6M321 204h4M137 205h5M248 205h2M255 205h3M288 205h6M302 205h6M322 205h4M137 206h5M248 206h2M255 206h3M288 206h5M303 206h7M323 206h5M137 207h5M247 207h3M254 207h4M287 207h6M304 207h9M324 207h5M137 208h5M247 208h3M254 208h4M287 208h8M306 208h9M326 208h5M137 209h5M246 209h3M254 209h4M286 209h4M292 209h4M308 209h11M327 209h5M137 210h5M246 210h3M254 210h4M286 210h4M292 210h6M310 210h23M137 211h6M245 211h4M254 211h4M286 211h4M294 211h6M313 211h20M137 212h6M245 212h3M254 212h4M285 212h4M295 212h6M316 212h16M138 213h5M244 213h4M253 213h5M285 213h4M296 213h7M322 213h2M138 214h5M243 214h5M253 214h5M285 214h4M298 214h7M138 215h5M243 215h4M253 215h5M285 215h4M299 215h7M138 216h5M242 216h4M253 216h5M285 216h5M301 216h7M138 217h5M242 217h4M253 217h4M285 217h5M302 217h8M138 218h6M241 218h4M253 218h4M286 218h3M290 218h1M304 218h8M139 219h5M240 219h4M253 219h4M286 219h4M305 219h9M139 220h5M239 220h4M253 220h4M286 220h4M307 220h8M139 221h5M238 221h4M253 221h4M286 221h4M309 221h8M139 222h5M237 222h4M252 222h5M287 222h3M310 222h9M139 223h6M236 223h4M252 223h5M287 223h3M312 223h9M140 224h5M235 224h4M252 224h5M287 224h2M314 224h8M140 225h5M233 225h5M252 225h5M286 225h3M315 225h9M140 226h6M232 226h5M252 226h4M286 226h2M317 226h8M140 227h6M230 227h5M252 227h4M285 227h3M319 227h8M141 228h5M229 228h5M252 228h4M284 228h4M320 228h8M141 229h6M227 229h5M252 229h4M284 229h3M322 229h8M141 230h6M225 230h6M252 230h4M283 230h4M323 230h8M142 231h5M223 231h6M252 231h3M283 231h3M325 231h7M142 232h6M222 232h6M252 232h3M282 232h4M326 232h7M142 233h6M220 233h6M252 233h3M282 233h3M328 233h6M143 234h6M218 234h7M252 234h3M281 234h4M329 234h5M143 235h6M217 235h6M252 235h3M281 235h3M329 235h6M144 236h6M215 236h7M252 236h3M280 236h4M329 236h7M144 237h6M214 237h7M252 237h3M279 237h4M329 237h7M145 238h5M212 238h8M252 238h3M279 238h4M328 238h8M145 239h6M211 239h7M252 239h3M278 239h4M328 239h9M146 240h6M210 240h7M251 240h4M278 240h4M328 240h9M146 241h6M208 241h8M251 241h4M277 241h4M327 241h10M147 242h6M207 242h7M251 242h4M276 242h5M327 242h7M335 242h2M147 243h7M206 243h8M251 243h4M276 243h4M326 243h4M331 243h4M336 243h1M148 244h6M204 244h9M251 244h4M275 244h4M326 244h4M331 244h4M336 244h1M149 245h6M203 245h10M251 245h4M275 245h4M326 245h4M332 245h3M336 245h1M149 246h7M202 246h10M251 246h4M274 246h4M325 246h4M332 246h3M150 247h7M200 247h11M251 247h4M273 247h5M325 247h4M332 247h4M151 248h7M199 248h13M251 248h4M273 248h4M324 248h5M333 248h3M152 249h7M198 249h6M205 249h7M251 249h4M272 249h5M324 249h4M333 249h3M153 250h8M196 250h7M205 250h6M251 250h4M271 250h5M323 250h5M334 250h3M154 251h8M195 251h6M204 251h7M251 251h5M271 251h4M323 251h4M334 251h3M155 252h9M194 252h6M204 252h7M251 252h5M270 252h5M323 252h4M334 252h3M156 253h10M192 253h6M204 253h6M252 253h4M269 253h5M322 253h5M334 253h4M157 254h12M191 254h5M204 254h6M252 254h4M269 254h4M322 254h4M335 254h3M159 255h17M178 255h17M203 255h7M252 255h4M268 255h5M321 255h5M335 255h3M161 256h32M203 256h6M252 256h4M267 256h5M321 256h4M335 256h4M162 257h30M203 257h6M252 257h4M267 257h4M320 257h5M335 257h4M165 258h25M203 258h6M252 258h4M266 258h5M320 258h5M335 258h4M168 259h15M185 259h3M203 259h5M252 259h4M265 259h5M319 259h5M336 259h3M184 260h2M203 260h5M252 260h4M264 260h5M319 260h5M336 260h4M202 261h6M252 261h4M264 261h5M319 261h4M336 261h4M202 262h5M252 262h4M263 262h5M318 262h5M336 262h4M202 263h5M252 263h5M262 263h5M318 263h4M336 263h4M202 264h5M253 264h4M262 264h5M317 264h5M336 264h5M202 265h4M253 265h4M261 265h5M317 265h5M337 265h4M202 266h4M253 266h4M260 266h5M316 266h5M337 266h4M202 267h4M253 267h4M260 267h4M316 267h5M337 267h4M202 268h3M253 268h4M259 268h4M315 268h5M337 268h4M254 269h8M315 269h5M337 269h5M254 270h8M314 270h5M337 270h5M254 271h7M314 271h5M338 271h4M255 272h5M313 272h5M338 272h4M255 273h4M313 273h5M338 273h4M255 274h4M313 274h5M338 274h5M255 275h4M312 275h5M338 275h5M256 276h3M312 276h5M338 276h5M257 277h3M311 277h5M339 277h4M258 278h2M311 278h5M339 278h4M259 279h1M310 279h5M339 279h4M260 280h1M310 280h5M339 280h4M309 281h5M339 281h5M309 282h5M339 282h5M308 283h5M339 283h5M308 284h5M340 284h4M307 285h5M340 285h4" />
<path stroke="#ff0000" d="M144 11h2M142 12h4M140 13h6M140 14h6M51 15h8M140 15h6M48 16h8M140 16h6M47 17h7M141 17h5M47 18h6M141 18h5M47 19h4M58 19h1M141 19h5M47 20h5M58 20h2M141 20h5M47 21h5M59 21h2M141 21h5M47 22h6M59 22h3M141 22h5M48 23h5M60 23h2M141 23h5M48 24h6M61 24h2M141 24h5M49 25h5M61 25h3M141 25h6M49 26h6M61 26h3M141 26h6M50 27h5M62 27h2M141 27h6M50 28h6M62 28h2M141 28h6M51 29h5M62 29h3M141 29h6M51 30h5M62 30h3M142 30h5M50 31h7M62 31h2M142 31h5M46 32h11M62 32h2M142 32h5M44 33h13M62 33h2M142 33h5M42 34h14M61 34h3M142 34h5M41 35h15M61 35h3M142 35h5M40 36h10M61 36h3M142 36h5M39 37h8M61 37h2M142 37h5M38 38h7M60 38h3M142 38h5M37 39h7M60 39h3M142 39h5M37 40h6M60 40h2M142 40h5M37 41h5M60 41h2M142 41h5M34 42h8M59 42h3M72 42h3M143 42h4M33 43h8M59 43h3M70 43h8M143 43h4M32 44h10M59 44h3M70 44h5M143 44h5M32 45h11M59 45h2M70 45h4M143 45h5M33 46h11M59 46h2M70 46h5M76 46h1M143 46h5M33 47h11M59 47h2M71 47h4M76 47h2M143 47h5M34 48h11M59 48h1M71 48h8M143 48h5M35 49h11M72 49h7M143 49h5M37 50h9M72 50h8M143 50h5M38 51h9M73 51h7M143 51h5M38 52h9M60 52h3M73 52h7M143 52h5M39 53h8M60 53h4M73 53h7M143 53h5M39 54h8M60 54h4M74 54h6M144 54h4M40 55h5M61 55h2M74 55h6M144 55h4M40 56h4M56 56h1M61 56h1M74 56h6M144 56h4M54 57h3M74 57h6M144 57h4M53 58h4M74 58h6M144 58h4M39 59h1M46 59h1M53 59h3M74 59h6M144 59h4M38 60h3M44 60h3M74 60h6M144 60h4M38 61h9M73 61h7M144 61h4M37 62h9M54 62h1M72 62h8M144 62h4M38 63h5M64 63h1M71 63h9M144 63h5M39 64h4M58 64h3M70 64h10M144 64h5M40 65h3M61 65h1M69 65h5M75 65h4M144 65h5M34 66h1M40 66h4M68 66h4M75 66h4M144 66h5M33 67h4M40 67h4M75 67h4M144 67h5M33 68h4M40 68h3M74 68h5M144 68h5M32 69h5M40 69h2M74 69h5M144 69h5M32 70h5M40 70h1M74 70h5M144 70h5M32 71h5M40 71h2M74 71h5M144 71h5M34 72h3M40 72h4M75 72h4M144 72h5M35 73h2M40 73h4M76 73h3M145 73h4M33 74h4M40 74h5M76 74h3M145 74h4M34 75h2M40 75h6M77 75h2M146 75h3M223 75h1M40 76h6M78 76h1M147 76h2M223 76h4M40 77h6M61 77h5M74 77h1M78 77h1M147 77h2M224 77h5M39 78h7M60 78h6M70 78h5M78 78h2M147 78h2M226 78h5M39 79h7M56 79h1M59 79h7M71 79h4M79 79h1M148 79h1M227 79h5M35 80h11M54 80h2M59 80h5M71 80h5M79 80h2M148 80h1M229 80h4M37 81h9M48 81h1M53 81h3M59 81h4M72 81h4M79 81h4M148 81h2M231 81h3M36 82h9M47 82h1M51 82h5M59 82h2M72 82h4M80 82h4M149 82h1M232 82h3M35 83h9M46 83h1M50 83h5M59 83h1M66 83h2M72 83h5M80 83h5M149 83h1M232 83h3M33 84h10M45 84h2M50 84h5M65 84h6M76 84h1M80 84h5M149 84h1M231 84h1M233 84h2M34 85h7M44 85h3M50 85h5M63 85h9M81 85h4M231 85h1M233 85h2M29 86h2M34 86h5M44 86h4M51 86h4M61 86h12M81 86h4M231 86h1M233 86h3M26 87h5M34 87h2M44 87h4M51 87h6M59 87h15M82 87h3M91 87h1M231 87h1M233 87h3M25 88h6M43 88h5M52 88h22M82 88h4M92 88h4M231 88h1M233 88h2M24 89h7M43 89h5M52 89h22M82 89h4M92 89h5M231 89h1M233 89h2M23 90h8M44 90h5M53 90h21M82 90h4M92 90h6M230 90h2M233 90h2M23 91h7M44 91h5M53 91h21M82 91h4M90 91h8M230 91h2M233 91h2M22 92h7M44 92h5M53 92h16M70 92h3M76 92h1M82 92h3M90 92h8M230 92h5M22 93h6M45 93h5M54 93h16M81 93h3M92 93h5M230 93h4M22 94h6M46 94h4M54 94h17M79 94h4M91 94h6M150 94h1M229 94h5M22 95h6M47 95h4M55 95h19M77 95h4M91 95h6M150 95h1M229 95h4M22 96h6M49 96h2M55 96h25M90 96h6M150 96h1M229 96h4M22 97h7M56 97h22M89 97h7M150 97h1M229 97h3M23 98h7M56 98h20M88 98h7M150 98h1M228 98h4M23 99h7M63 99h12M87 99h7M149 99h2M228 99h3M24 100h6M61 100h12M86 100h8M147 100h4M227 100h3M25 101h5M58 101h13M84 101h9M147 101h4M227 101h3M26 102h4M33 102h1M37 102h2M55 102h14M82 102h10M147 102h4M226 102h3M27 103h2M33 103h1M38 103h2M50 103h17M80 103h11M147 103h5M225 103h4M33 104h1M38 104h2M46 104h1M50 104h15M77 104h12M147 104h5M224 104h4M33 105h1M38 105h3M45 105h2M50 105h12M73 105h15M147 105h5M223 105h5M33 106h1M38 106h22M70 106h16M147 106h5M222 106h5M39 107h19M68 107h16M148 107h4M221 107h6M40 108h15M66 108h16M148 108h4M220 108h6M41 109h11M64 109h15M148 109h5M219 109h7M44 110h5M61 110h15M148 110h5M218 110h4M223 110h2M59 111h13M148 111h5M218 111h3M222 111h3M56 112h11M148 112h5M217 112h3M222 112h2M148 113h5M216 113h4M221 113h3M148 114h5M215 114h4M221 114h2M148 115h5M215 115h3M220 115h3M148 116h5M214 116h3M220 116h2M148 117h5M213 117h3M220 117h2M148 118h5M213 118h3M219 118h2M148 119h6M212 119h3M219 119h2M149 120h5M212 120h2M218 120h3M15 121h3M149 121h5M211 121h2M218 121h2M14 122h5M149 122h5M211 122h2M218 122h2M13 123h6M22 123h1M149 123h5M211 123h1M217 123h3M13 124h7M22 124h1M149 124h5M217 124h2M13 125h7M23 125h1M149 125h5M217 125h2M13 126h7M23 126h1M149 126h5M217 126h2M13 127h8M24 127h1M149 127h5M217 127h2M13 128h8M24 128h1M149 128h5M217 128h3M14 129h8M24 129h1M149 129h5M218 129h2M14 130h8M24 130h1M149 130h6M218 130h2M15 131h3M19 131h4M24 131h1M150 131h5M218 131h3M15 132h2M19 132h4M24 132h2M150 132h5M219 132h2M19 133h7M150 133h5M220 133h2M19 134h5M25 134h1M150 134h5M220 134h2M18 135h6M25 135h2M150 135h5M221 135h2M17 136h7M25 136h2M150 136h5M221 136h2M17 137h7M26 137h2M34 137h4M150 137h5M221 137h2M18 138h7M26 138h2M33 138h5M45 138h2M150 138h5M197 138h1M222 138h1M19 139h6M27 139h2M32 139h6M45 139h3M150 139h5M198 139h1M221 139h2M20 140h5M27 140h2M32 140h6M45 140h2M150 140h5M199 140h1M221 140h2M21 141h5M28 141h2M32 141h3M36 141h2M150 141h6M200 141h1M221 141h2M21 142h5M29 142h1M32 142h6M151 142h5M201 142h1M220 142h2M22 143h4M32 143h5M151 143h5M202 143h2M220 143h2M22 144h4M32 144h2M35 144h2M151 144h5M219 144h2M22 145h4M32 145h2M35 145h2M151 145h5M218 145h2M22 146h4M32 146h2M35 146h2M151 146h5M217 146h2M22 147h2M33 147h1M35 147h2M151 147h5M217 147h1M22 148h2M37 148h1M151 148h5M216 148h1M15 149h3M21 149h5M151 149h5M216 149h1M15 150h3M21 150h5M37 150h1M151 150h5M15 151h10M36 151h3M151 151h5M16 152h9M36 152h4M151 152h5M207 152h1M8 153h1M17 153h6M36 153h4M151 153h6M7 154h4M16 154h5M37 154h3M151 154h6M206 154h1M7 155h3M14 155h7M37 155h3M151 155h6M205 155h1M6 156h3M14 156h7M38 156h3M152 156h5M205 156h1M6 157h3M14 157h7M38 157h5M152 157h5M204 157h2M6 158h2M13 158h14M39 158h5M152 158h5M203 158h2M6 159h2M13 159h13M41 159h4M152 159h5M203 159h2M5 160h2M13 160h12M32 160h1M42 160h3M152 160h5M202 160h2M5 161h2M13 161h2M17 161h7M33 161h4M42 161h3M152 161h5M202 161h2M5 162h1M12 162h2M16 162h7M33 162h6M43 162h2M152 162h5M12 163h2M16 163h6M26 163h1M34 163h6M43 163h3M152 163h5M8 164h1M12 164h1M16 164h5M26 164h1M36 164h5M44 164h2M152 164h5M199 164h1M8 165h1M12 165h1M15 165h5M26 165h1M39 165h3M44 165h3M152 165h6M197 165h4M12 166h1M15 166h3M40 166h2M45 166h2M152 166h6M174 166h26M15 167h3M40 167h3M45 167h2M171 167h27M12 168h1M15 168h3M33 168h1M41 168h2M46 168h2M169 168h11M12 169h1M33 169h2M42 169h1M46 169h2M167 169h7M8 170h1M12 170h1M33 170h4M47 170h1M167 170h4M8 171h1M13 171h2M33 171h9M47 171h1M166 171h4M8 172h1M15 172h5M32 172h9M166 172h3M8 173h2M18 173h2M31 173h9M166 173h3M9 174h2M22 174h1M29 174h11M167 174h2M9 175h3M28 175h12M168 175h2M9 176h6M170 176h1M10 177h8M10 178h13M42 178h2M11 179h19M39 179h5M12 180h30M13 181h28M163 181h7M14 182h25M150 182h1M162 182h7M15 183h18M34 183h2M149 183h4M162 183h7M16 184h15M148 184h5M162 184h8M19 185h9M147 185h6M163 185h8M148 186h4M167 186h5M147 187h4M169 187h4M146 188h5M170 188h3M145 189h5M170 189h3M145 190h5M169 190h4M145 191h5M168 191h5M145 192h5M167 192h5M145 193h5M165 193h6M145 194h6M162 194h8M145 195h4M151 195h3M155 195h14M146 196h21M147 197h18M148 198h15M150 199h10" />
</svg>