<svg xmlns="http://www.w3.org/2000/svg" viewBox="0 -0.5 248 136" shape-rendering="crispEdges">
<path stroke="#000000" d="M96 5h3M92 6h8M165 6h10M88 7h7M97 7h4M162 7h15M87 8h4M98 8h3M148 8h5M161 8h4M174 8h5M87 9h2M98 9h3M144 9h10M159 9h4M177 9h4M87 10h2M98 10h3M141 10h5M153 10h2M158 10h3M178 10h4M88 11h2M98 11h4M139 11h3M154 11h2M157 11h3M162 11h11M180 11h3M88 12h2M98 12h4M139 12h4M154 12h2M157 12h17M181 12h2M88 13h2M99 13h3M143 13h2M155 13h20M181 13h3M89 14h1M99 14h3M145 14h1M155 14h29M89 15h2M99 15h4M136 15h11M154 15h30M89 16h2M99 16h4M133 16h5M146 16h2M151 16h1M154 16h30M89 17h2M99 17h4M130 17h4M151 17h35M90 18h1M99 18h4M128 18h3M151 18h37M90 19h1M100 19h4M126 19h3M151 19h39M90 20h2M100 20h4M125 20h2M151 20h41M90 21h2M100 21h4M124 21h2M152 21h41M90 22h2M100 22h4M122 22h2M152 22h42M91 23h1M100 23h5M121 23h2M148 23h2M153 23h42M91 24h1M100 24h5M120 24h2M147 24h4M154 24h42M91 25h2M101 25h4M119 25h2M146 25h5M155 25h42M237 25h3M91 26h2M101 26h4M118 26h2M147 26h5M155 26h43M236 26h4M91 27h2M101 27h4M117 27h3M147 27h6M156 27h42M235 27h6M92 28h1M101 28h5M116 28h3M147 28h6M156 28h43M234 28h8M92 29h1M101 29h5M116 29h2M148 29h6M156 29h44M234 29h3M238 29h5M92 30h2M102 30h4M115 30h3M148 30h6M156 30h44M233 30h4M239 30h5M92 31h2M102 31h4M115 31h3M148 31h7M156 31h45M233 31h4M240 31h5M92 32h2M102 32h4M115 32h2M148 32h4M154 32h47M232 32h4M240 32h5M93 33h1M102 33h3M114 33h3M147 33h5M154 33h47M231 33h5M241 33h5M93 34h1M99 34h5M114 34h3M147 34h5M154 34h48M231 34h4M242 34h4M93 35h2M97 35h7M114 35h3M146 35h5M154 35h48M230 35h5M244 35h2M93 36h8M114 36h3M146 36h5M154 36h48M230 36h4M245 36h2M94 37h4M114 37h3M145 37h5M154 37h5M160 37h43M229 37h5M244 37h2M114 38h3M144 38h6M153 38h6M160 38h2M163 38h40M229 38h5M243 38h3M114 39h3M144 39h5M153 39h5M160 39h3M165 39h38M228 39h5M243 39h2M103 40h6M115 40h3M143 40h6M152 40h5M161 40h2M167 40h36M228 40h5M242 40h3M101 41h9M115 41h8M142 41h6M152 41h4M161 41h3M167 41h36M227 41h5M241 41h3M99 42h11M118 42h1M120 42h2M137 42h3M141 42h6M151 42h4M162 42h3M168 42h35M227 42h5M240 42h3M98 43h8M107 43h3M120 43h3M134 43h12M150 43h2M163 43h2M169 43h34M226 43h5M240 43h3M97 44h5M107 44h3M120 44h3M132 44h12M163 44h3M171 44h32M226 44h5M239 44h3M97 45h1M107 45h4M119 45h4M131 45h6M139 45h5M164 45h3M172 45h31M226 45h4M238 45h4M64 46h5M97 46h2M107 46h4M118 46h5M130 46h4M136 46h2M142 46h3M165 46h4M174 46h29M225 46h5M238 46h3M64 47h1M68 47h1M98 47h1M105 47h6M117 47h5M130 47h3M136 47h2M143 47h3M162 47h8M176 47h27M225 47h5M237 47h3M68 48h1M98 48h2M102 48h8M115 48h6M130 48h2M137 48h2M143 48h4M161 48h11M179 48h24M224 48h5M236 48h4M68 49h1M98 49h11M114 49h6M129 49h3M137 49h2M144 49h3M159 49h6M167 49h7M182 49h21M224 49h5M236 49h3M68 50h1M99 50h9M109 50h2M112 50h7M129 50h2M133 50h1M137 50h2M144 50h3M158 50h3M162 50h4M169 50h8M185 50h17M223 50h5M235 50h4M46 51h4M101 51h2M108 51h4M113 51h4M128 51h3M137 51h3M144 51h4M158 51h2M162 51h4M170 51h10M185 51h17M205 51h3M223 51h5M234 51h4M45 52h3M109 52h6M128 52h3M138 52h2M144 52h4M157 52h1M163 52h4M171 52h3M176 52h7M185 52h17M203 52h5M222 52h5M234 52h3M113 53h2M127 53h4M138 53h3M144 53h4M157 53h3M163 53h4M171 53h4M185 53h23M222 53h5M233 53h4M114 54h3M124 54h7M138 54h3M145 54h3M156 54h4M164 54h4M172 54h3M180 54h2M185 54h23M221 54h5M233 54h3M116 55h12M129 55h2M135 55h1M139 55h2M144 55h6M155 55h2M159 55h1M164 55h4M172 55h4M179 55h2M184 55h24M221 55h5M232 55h4M119 56h2M123 56h3M129 56h2M135 56h1M139 56h3M144 56h8M155 56h2M159 56h2M164 56h5M172 56h4M178 56h2M184 56h9M195 56h13M220 56h5M231 56h4M122 57h4M129 57h2M136 57h1M139 57h3M144 57h4M150 57h2M155 57h6M165 57h4M173 57h3M178 57h1M183 57h10M197 57h10M220 57h5M231 57h4M121 58h4M129 58h2M136 58h1M140 58h2M144 58h4M152 58h1M155 58h1M157 58h2M160 58h2M165 58h4M173 58h3M177 58h2M182 58h10M195 58h12M219 58h5M230 58h4M121 59h4M129 59h2M136 59h1M140 59h3M144 59h3M154 59h2M158 59h4M166 59h4M173 59h3M177 59h2M189 59h3M195 59h2M198 59h9M219 59h5M230 59h4M19 60h4M120 60h4M129 60h2M140 60h3M144 60h3M154 60h2M158 60h4M166 60h4M173 60h6M189 60h3M194 60h2M201 60h5M218 60h6M229 60h4M16 61h4M120 61h4M130 61h2M137 61h1M141 61h6M154 61h3M159 61h4M166 61h5M173 61h4M178 61h4M186 61h1M189 61h2M194 61h2M202 61h4M218 61h7M229 61h4M12 62h4M120 62h4M130 62h2M137 62h1M141 62h5M155 62h3M159 62h4M167 62h4M173 62h3M179 62h7M189 62h1M194 62h1M202 62h5M219 62h7M228 62h4M10 63h4M31 63h2M119 63h4M130 63h3M137 63h1M141 63h5M155 63h2M159 63h4M167 63h4M173 63h3M185 63h1M189 63h1M193 63h1M203 63h5M220 63h7M228 63h4M8 64h5M28 64h9M119 64h4M131 64h2M141 64h4M155 64h2M158 64h1M160 64h4M167 64h9M185 64h1M188 64h1M192 64h2M203 64h6M221 64h10M7 65h4M25 65h9M119 65h4M132 65h3M137 65h2M140 65h4M155 65h2M158 65h6M168 65h8M184 65h2M192 65h1M203 65h6M222 65h9M5 66h4M22 66h8M119 66h4M132 66h12M155 66h2M159 66h6M168 66h8M184 66h2M191 66h2M203 66h6M223 66h7M4 67h4M20 67h7M119 67h3M134 67h7M156 67h2M159 67h6M168 67h7M183 67h2M190 67h2M203 67h5M225 67h5M5 68h2M17 68h7M119 68h3M129 68h1M156 68h9M169 68h6M182 68h3M189 68h3M203 68h5M216 68h3M227 68h2M4 69h3M15 69h6M119 69h4M129 69h1M156 69h10M169 69h5M182 69h2M188 69h3M203 69h5M215 69h5M227 69h2M4 70h4M13 70h5M119 70h4M129 70h2M157 70h9M169 70h5M181 70h2M187 70h3M203 70h4M214 70h6M4 71h4M13 71h3M119 71h4M129 71h2M157 71h3M162 71h4M169 71h4M178 71h5M185 71h4M202 71h4M214 71h9M4 72h4M13 72h1M119 72h5M129 72h3M158 72h8M167 72h5M176 72h12M202 72h3M213 72h11M4 73h4M13 73h1M119 73h6M126 73h1M129 73h3M140 73h9M159 73h11M176 73h10M202 73h2M212 73h6M220 73h5M5 74h3M13 74h2M120 74h7M129 74h3M144 74h11M161 74h7M176 74h3M201 74h3M212 74h6M221 74h4M5 75h3M13 75h2M121 75h4M126 75h1M130 75h2M150 75h9M201 75h3M211 75h6M222 75h3M5 76h3M13 76h2M126 76h1M130 76h3M156 76h4M200 76h4M211 76h5M223 76h2M6 77h2M14 77h2M126 77h1M130 77h3M199 77h5M210 77h6M223 77h2M6 78h2M14 78h2M126 78h1M131 78h3M198 78h6M210 78h5M223 78h2M6 79h3M14 79h2M125 79h2M131 79h3M193 79h1M196 79h8M209 79h6M222 79h3M6 80h3M14 80h2M125 80h1M132 80h3M191 80h8M200 80h4M210 80h6M222 80h2M6 81h3M14 81h3M124 81h2M132 81h4M190 81h8M200 81h4M210 81h8M221 81h3M6 82h3M15 82h2M73 82h1M123 82h2M133 82h3M181 82h1M183 82h2M190 82h3M199 82h7M213 82h6M221 82h3M6 83h3M15 83h2M73 83h1M121 83h3M133 83h4M181 83h5M188 83h5M195 83h12M214 83h9M6 84h3M15 84h3M72 84h2M119 84h3M134 84h4M181 84h5M187 84h7M196 84h11M215 84h7M6 85h3M15 85h3M73 85h1M116 85h9M133 85h1M135 85h5M181 85h5M187 85h8M196 85h11M216 85h6M7 86h2M15 86h3M117 86h3M124 86h2M132 86h1M136 86h5M180 86h6M187 86h6M194 86h13M217 86h5M7 87h2M16 87h2M125 87h2M129 87h3M137 87h6M172 87h2M180 87h6M187 87h5M195 87h11M219 87h2M7 88h2M16 88h3M126 88h4M139 88h6M168 88h4M180 88h6M187 88h5M196 88h9M7 89h2M16 89h3M142 89h6M164 89h6M180 89h6M187 89h1M189 89h2M198 89h4M7 90h3M16 90h3M144 90h23M180 90h6M187 90h1M7 91h3M16 91h3M146 91h18M180 91h6M7 92h3M17 92h2M152 92h6M180 92h6M7 93h3M17 93h3M92 93h5M157 93h1M180 93h7M190 93h2M7 94h3M17 94h3M92 94h12M158 94h1M180 94h7M189 94h5M7 95h3M17 95h3M92 95h18M152 95h8M179 95h16M7 96h3M17 96h3M96 96h16M146 96h15M177 96h20M7 97h3M18 97h2M100 97h14M143 97h13M158 97h3M175 97h23M7 98h3M18 98h3M105 98h10M140 98h11M157 98h4M173 98h16M194 98h4M7 99h4M18 99h3M110 99h5M138 99h9M156 99h5M172 99h11M194 99h5M7 100h4M18 100h3M111 100h5M136 100h8M156 100h5M170 100h9M195 100h5M7 101h4M18 101h3M112 101h7M134 101h7M155 101h6M169 101h8M196 101h5M7 102h4M19 102h2M112 102h6M133 102h6M155 102h6M168 102h7M197 102h5M7 103h4M19 103h2M112 103h5M132 103h5M154 103h5M160 103h1M167 103h7M198 103h4M7 104h5M19 104h2M24 104h3M110 104h6M131 104h5M154 104h4M160 104h1M166 104h7M198 104h5M7 105h5M19 105h9M109 105h6M130 105h4M154 105h4M160 105h2M166 105h6M199 105h4M7 106h5M19 106h8M108 106h6M129 106h4M153 106h5M160 106h1M165 106h6M199 106h5M7 107h5M20 107h4M106 107h6M129 107h3M153 107h5M160 107h1M164 107h6M200 107h4M8 108h4M19 108h3M105 108h6M128 108h4M153 108h4M163 108h6M200 108h4M8 109h5M15 109h2M18 109h1M105 109h5M128 109h3M153 109h4M162 109h7M200 109h5M8 110h5M30 110h3M105 110h3M128 110h3M153 110h4M160 110h8M200 110h6M8 111h5M28 111h6M104 111h3M127 111h4M153 111h14M200 111h7M8 112h5M26 112h8M104 112h2M128 112h3M148 112h18M200 112h8M8 113h5M25 113h7M36 113h2M103 113h1M127 113h4M149 113h16M197 113h13M8 114h6M22 114h8M34 114h5M102 114h1M126 114h6M150 114h13M196 114h15M8 115h6M18 115h10M33 115h9M44 115h1M53 115h4M125 115h8M153 115h7M196 115h16M8 116h6M15 116h11M33 116h37M124 116h5M131 116h3M197 116h5M203 116h10M8 117h16M33 117h1M37 117h34M123 117h5M132 117h3M193 117h3M203 117h12M8 118h14M41 118h31M96 118h1M122 118h6M132 118h3M192 118h2M204 118h12M9 119h1M11 119h15M44 119h29M93 119h2M121 119h6M133 119h4M190 119h3M205 119h12M11 120h23M49 120h24M89 120h5M120 120h6M134 120h4M188 120h3M206 120h12M11 121h30M57 121h12M84 121h8M120 121h5M135 121h4M186 121h3M207 121h12M14 122h34M82 122h8M119 122h6M136 122h4M185 122h3M208 122h12M16 123h38M80 123h9M118 123h6M138 123h3M183 123h3M209 123h12M16 124h42M78 124h9M118 124h5M139 124h4M182 124h2M210 124h12M16 125h47M76 125h9M117 125h6M140 125h4M180 125h3M211 125h12M16 126h50M74 126h10M116 126h6M142 126h3M179 126h2M212 126h12M17 127h51M72 127h10M116 127h5M144 127h3M177 127h2M213 127h12M18 128h46M70 128h10M22 129h43M67 129h11M27 130h49M33 131h41M41 132h30M50 133h19M57 134h3M62 134h4" />
<path stroke="#ff8000" d="M89 9h1M90 11h1M90 12h1M90 13h1M90 14h1M91 15h1M91 16h1M66 17h3M91 17h1M64 18h4M91 18h1M62 19h6M91 19h2M60 20h7M92 20h1M58 21h8M92 21h1M55 22h11M92 22h1M53 23h12M92 23h1M51 24h13M92 24h2M50 25h14M93 25h1M48 26h15M93 26h1M46 27h17M93 27h1M44 28h18M93 28h1M43 29h18M93 29h1M41 30h20M94 30h1M40 31h21M94 31h1M39 32h21M94 32h1M38 33h22M94 33h1M37 34h22M94 34h1M36 35h23M36 36h23M35 37h23M35 38h23M35 39h23M36 40h22M36 41h22M38 42h20M39 43h19M40 44h19M42 45h17M98 45h2M44 46h16M99 46h2M45 47h17M99 47h2M47 48h17M100 48h1M132 48h1M49 49h19M132 49h1M50 50h18M136 50h1M52 51h18M133 51h1M136 51h1M53 52h18M133 52h1M39 53h6M54 53h18M133 53h1M137 53h1M36 54h9M54 54h20M134 54h1M137 54h1M163 54h1M20 55h2M32 55h15M55 55h20M134 55h1M138 55h1M163 55h1M21 56h28M55 56h20M134 56h1M138 56h1M21 57h29M55 57h21M134 57h2M138 57h1M164 57h1M22 58h29M55 58h22M135 58h1M139 58h1M164 58h1M25 59h26M55 59h23M135 59h1M139 59h1M164 59h2M28 60h24M55 60h23M135 60h2M139 60h1M165 60h1M31 61h22M56 61h23M136 61h1M140 61h1M165 61h1M36 62h18M56 62h23M136 62h1M165 62h2M40 63h40M166 63h1M43 64h37M137 64h1M166 64h1M46 65h34M166 65h2M47 66h33M167 66h1M48 67h32M167 67h1M49 68h30M167 68h1M50 69h29M51 70h28M168 70h1M51 71h27M94 71h1M168 71h1M52 72h26M93 72h2M52 73h26M93 73h3M52 74h25M93 74h3M53 75h23M93 75h4M53 76h23M92 76h5M53 77h22M91 77h6M53 78h21M90 78h8M53 79h20M89 79h9M54 80h18M88 80h10M54 81h18M86 81h12M54 82h17M85 82h12M53 83h17M83 83h14M53 84h16M81 84h16M53 85h15M79 85h17M52 86h5M58 86h2M62 86h6M69 86h3M77 86h19M51 87h6M63 87h32M50 88h8M65 88h30M48 89h11M66 89h28M45 90h16M67 90h26M41 91h21M68 91h24M35 92h28M69 92h23M31 93h33M70 93h21M28 94h36M70 94h22M27 95h38M71 95h21M26 96h40M71 96h19M26 97h40M72 97h19M26 98h37M72 98h19M27 99h33M73 99h20M27 100h32M73 100h27M28 101h29M73 101h7M84 101h16M28 102h29M74 102h4M84 102h16M29 103h28M84 103h16M30 104h27M83 104h17M31 105h26M83 105h18M32 106h25M83 106h18M33 107h25M83 107h19M34 108h24M83 108h20M36 109h23M83 109h20M37 110h23M83 110h19M39 111h20M84 111h18M42 112h16M85 112h16M46 113h8M85 113h14M84 114h14M84 115h11M83 116h9M81 117h7" />
<path stroke="#ff0000" d="M74 12h2M72 13h3M70 14h3M68 15h4M65 16h4M70 16h1M63 17h3M69 17h1M61 18h3M68 18h1M59 19h3M56 20h4M67 20h1M54 21h4M66 21h1M52 22h3M50 23h3M65 23h1M48 24h3M64 24h1M47 25h3M64 25h1M45 26h3M63 26h1M43 27h3M63 27h1M42 28h2M62 28h1M41 29h2M61 29h2M39 30h2M61 30h1M38 31h2M61 31h1M37 32h2M60 32h1M36 33h2M60 33h1M35 34h2M59 34h2M35 35h1M59 35h1M34 36h2M59 36h1M34 37h1M58 37h2M34 38h1M58 38h2M34 39h1M58 39h1M34 40h2M58 40h1M35 41h1M58 41h1M36 42h2M58 42h2M37 43h2M58 43h2M38 44h2M59 44h1M39 45h3M59 45h2M41 46h3M60 46h2M43 47h2M62 47h2M45 48h2M64 48h4M17 49h1M46 49h3M17 50h1M48 50h2M16 51h1M18 51h1M40 51h4M50 51h2M70 51h1M17 52h3M36 52h9M51 52h2M71 52h1M18 53h3M33 53h6M52 53h2M72 53h2M18 54h1M20 54h16M45 54h3M53 54h1M74 54h1M19 55h1M22 55h10M47 55h3M54 55h1M75 55h1M19 56h2M49 56h2M54 56h1M75 56h2M20 57h1M50 57h2M54 57h1M76 57h2M20 58h2M51 58h2M54 58h1M77 58h2M21 59h4M51 59h4M78 59h2M23 60h5M52 60h3M78 60h2M26 61h5M53 61h3M79 61h2M85 61h3M29 62h7M54 62h2M79 62h2M85 62h5M33 63h7M80 63h1M87 63h4M37 64h6M80 64h2M88 64h4M41 65h5M80 65h2M89 65h4M44 66h3M80 66h2M90 66h4M46 67h2M80 67h2M90 67h5M47 68h2M79 68h2M91 68h4M48 69h2M79 69h2M91 69h5M49 70h2M79 70h2M91 70h6M49 71h2M78 71h3M91 71h3M95 71h2M50 72h2M78 72h2M91 72h2M95 72h3M50 73h2M78 73h2M91 73h2M96 73h2M50 74h2M77 74h2M90 74h3M96 74h3M51 75h2M76 75h3M90 75h3M97 75h2M51 76h2M76 76h2M89 76h3M97 76h3M51 77h2M75 77h3M88 77h3M97 77h3M51 78h2M74 78h3M87 78h3M98 78h2M52 79h1M73 79h3M85 79h4M98 79h2M52 80h2M72 80h3M84 80h4M98 80h2M52 81h2M72 81h2M82 81h4M98 81h2M52 82h2M71 82h2M81 82h4M97 82h3M52 83h1M70 83h3M79 83h4M97 83h2M51 84h2M69 84h3M77 84h4M97 84h2M51 85h2M68 85h5M74 85h5M96 85h3M50 86h2M57 86h1M60 86h2M68 86h1M72 86h5M96 86h2M48 87h3M57 87h3M61 87h2M95 87h2M45 88h5M58 88h7M95 88h2M41 89h7M59 89h7M94 89h2M35 90h10M61 90h6M93 90h2M30 91h11M62 91h3M66 91h2M92 91h2M27 92h8M63 92h6M92 92h1M26 93h5M64 93h6M91 93h1M25 94h3M64 94h3M68 94h2M24 95h3M65 95h6M24 96h2M66 96h2M69 96h2M90 96h2M24 97h2M66 97h2M70 97h2M91 97h1M24 98h2M63 98h5M70 98h2M91 98h12M24 99h3M60 99h7M70 99h3M93 99h10M25 100h2M59 100h6M71 100h2M100 100h2M25 101h3M57 101h5M71 101h2M80 101h4M100 101h2M26 102h2M57 102h3M71 102h3M78 102h6M100 102h2M26 103h3M57 103h2M72 103h8M82 103h2M100 103h2M27 104h3M57 104h2M73 104h5M81 104h2M100 104h2M28 105h3M57 105h2M81 105h2M101 105h3M28 106h4M57 106h3M81 106h2M101 106h3M29 107h4M58 107h2M81 107h2M102 107h3M30 108h4M58 108h3M81 108h2M103 108h2M32 109h4M59 109h3M80 109h3M103 109h2M33 110h4M60 110h4M80 110h3M102 110h3M34 111h5M59 111h7M81 111h3M102 111h2M36 112h6M58 112h1M60 112h7M82 112h3M101 112h3M38 113h8M54 113h4M63 113h7M82 113h3M99 113h4M41 114h15M69 114h1M72 114h2M81 114h3M98 114h4M45 115h8M70 115h1M73 115h11M95 115h6M70 116h3M74 116h9M92 116h8M71 117h4M76 117h5M88 117h10M72 118h24M73 119h20M75 120h14" />
</svg>