<svg xmlns="http://www.w3.org/2000/svg" viewBox="0 -0.5 248 136" shape-rendering="crispEdges">
<path stroke="#000000" d="M96 5h3M92 6h8M165 6h10M88 7h7M97 7h4M162 7h15M87 8h4M98 8h3M148 8h5M161 8h4M174 8h5M87 9h2M98 9h3M144 9h10M159 9h4M177 9h4M87 10h2M98 10h3M141 10h5M153 10h2M158 10h3M178 10h4M88 11h2M98 11h4M139 11h3M154 11h2M157 11h3M162 11h11M180 11h3M88 12h2M98 12h4M139 12h4M154 12h2M157 12h17M181 12h2M88 13h2M99 13h3M143 13h2M155 13h20M181 13h3M89 14h1M99 14h3M145 14h1M155 14h29M89 15h2M99 15h4M136 15h11M154 15h30M89 16h2M99 16h4M133 16h5M146 16h2M151 16h1M154 16h30M89 17h2M99 17h4M130 17h4M151 17h35M90 18h1M99 18h4M128 18h3M151 18h37M90 19h1M100 19h4M126 19h3M151 19h39M90 20h2M100 20h4M125 20h2M151 20h41M90 21h2M100 21h4M124 21h2M152 21h41M90 22h2M100 22h4M122 22h2M152 22h42M91 23h1M100 23h5M121 23h2M148 23h2M153 23h42M91 24h1M100 24h5M120 24h2M147 24h4M154 24h42M91 25h2M101 25h4M119 25h2M146 25h5M155 25h42M237 25h3M91 26h2M101 26h4M118 26h2M147 26h5M155 26h43M236 26h4M91 27h2M101 27h4M117 27h3M147 27h6M156 27h42M235 27h6M92 28h1M101 28h5M116 28h3M147 28h6M156 28h43M234 28h8M92 29h1M101 29h5M116 29h2M148 29h6M156 29h44M234 29h3M238 29h5M92 30h2M102 30h4M115 30h3M148 30h6M156 30h44M233 30h4M239 30h5M92 31h2M102 31h4M115 31h3M148 31h7M156 31h45M233 31h4M240 31h5M92 32h2M102 32h4M115 32h2M148 32h4M154 32h47M232 32h4M240 32h5M93 33h1M102 33h3M114 33h3M147 33h5M154 33h47M231 33h5M241 33h5M93 34h1M99 34h5M114 34h3M147 34h5M154 34h48M231 34h4M242 34h4M93 35h2M97 35h7M114 35h3M146 35h5M154 35h48M230 35h5M244 35h2M93 36h8M114 36h3M146 36h5M154 36h48M230 36h4M245 36h2M94 37h4M114 37h3M145 37h5M154 37h5M160 37h43M229 37h5M244 37h2M114 38h3M144 38h6M153 38h6M160 38h2M163 38h40M229 38h5M243 38h3M114 39h3M144 39h5M153 39h5M160 39h3M165 39h38M228 39h5M243 39h2M103 40h6M115 40h3M143 40h6M152 40h5M161 40h2M167 40h36M228 40h5M242 40h3M64 41h5M101 41h9M115 41h8M142 41h6M152 41h4M161 41h3M167 41h36M227 41h5M241 41h3M64 42h1M68 42h1M99 42h11M118 42h1M120 42h2M137 42h3M141 42h6M151 42h4M162 42h3M168 42h35M227 42h5M240 42h3M68 43h1M98 43h8M107 43h3M120 43h3M134 43h12M150 43h2M163 43h2M169 43h34M226 43h5M240 43h3M68 44h1M97 44h5M107 44h3M120 44h3M132 44h12M163 44h3M171 44h32M226 44h5M239 44h3M68 45h1M97 45h1M107 45h4M119 45h4M131 45h6M139 45h5M164 45h3M172 45h31M226 45h4M238 45h4M46 46h4M97 46h2M107 46h4M118 46h5M130 46h4M136 46h2M142 46h3M165 46h4M174 46h29M225 46h5M238 46h3M45 47h3M98 47h1M105 47h6M117 47h5M130 47h3M136 47h2M143 47h3M162 47h8M176 47h27M225 47h5M237 47h3M98 48h2M102 48h8M115 48h6M130 48h2M137 48h2M143 48h4M161 48h11M179 48h24M224 48h5M236 48h4M98 49h11M114 49h6M129 49h3M137 49h2M144 49h3M159 49h6M167 49h7M182 49h21M224 49h5M236 49h3M99 50h9M109 50h2M112 50h7M129 50h2M133 50h1M137 50h2M144 50h3M158 50h3M162 50h4M169 50h8M185 50h17M223 50h5M235 50h4M101 51h2M108 51h4M113 51h4M128 51h3M137 51h3M144 51h4M158 51h2M162 51h4M170 51h10M185 51h17M205 51h3M223 51h5M234 51h4M109 52h6M128 52h3M138 52h2M144 52h4M157 52h1M163 52h4M171 52h3M176 52h7M185 52h17M203 52h5M222 52h5M234 52h3M113 53h2M127 53h4M138 53h3M144 53h4M157 53h3M163 53h4M171 53h4M185 53h23M222 53h5M233 53h4M114 54h3M124 54h7M138 54h3M145 54h3M156 54h4M164 54h4M172 54h3M180 54h2M185 54h23M221 54h5M233 54h3M19 55h4M116 55h12M129 55h2M135 55h1M139 55h2M144 55h6M155 55h2M159 55h1M164 55h4M172 55h4M179 55h2M184 55h24M221 55h5M232 55h4M16 56h4M119 56h2M123 56h3M129 56h2M135 56h1M139 56h3M144 56h8M155 56h2M159 56h2M164 56h5M172 56h4M178 56h2M184 56h9M195 56h13M220 56h5M231 56h4M12 57h4M122 57h4M129 57h2M136 57h1M139 57h3M144 57h4M150 57h2M155 57h6M165 57h4M173 57h3M178 57h1M183 57h10M197 57h10M220 57h5M231 57h4M10 58h4M31 58h2M121 58h4M129 58h2M136 58h1M140 58h2M144 58h4M152 58h1M155 58h1M157 58h2M160 58h2M165 58h4M173 58h3M177 58h2M182 58h10M195 58h12M219 58h5M230 58h4M8 59h5M28 59h9M121 59h4M129 59h2M136 59h1M140 59h3M144 59h3M154 59h2M158 59h4M166 59h4M173 59h3M177 59h2M189 59h3M195 59h2M198 59h9M219 59h5M230 59h4M7 60h4M25 60h9M120 60h4M129 60h2M140 60h3M144 60h3M154 60h2M158 60h4M166 60h4M173 60h6M189 60h3M194 60h2M201 60h5M218 60h6M229 60h4M5 61h4M22 61h8M120 61h4M130 61h2M137 61h1M141 61h6M154 61h3M159 61h4M166 61h5M173 61h4M178 61h4M186 61h1M189 61h2M194 61h2M202 61h4M218 61h7M229 61h4M4 62h4M20 62h7M120 62h4M130 62h2M137 62h1M141 62h5M155 62h3M159 62h4M167 62h4M173 62h3M179 62h7M189 62h1M194 62h1M202 62h5M219 62h7M228 62h4M5 63h2M17 63h7M119 63h4M130 63h3M137 63h1M141 63h5M155 63h2M159 63h4M167 63h4M173 63h3M185 63h1M189 63h1M193 63h1M203 63h5M220 63h7M228 63h4M4 64h3M15 64h6M119 64h4M131 64h2M141 64h4M155 64h2M158 64h1M160 64h4M167 64h9M185 64h1M188 64h1M192 64h2M203 64h6M221 64h10M4 65h4M13 65h5M119 65h4M132 65h3M137 65h2M140 65h4M155 65h2M158 65h6M168 65h8M184 65h2M192 65h1M203 65h6M222 65h9M4 66h4M13 66h3M119 66h4M132 66h12M155 66h2M159 66h6M168 66h8M184 66h2M191 66h2M203 66h6M223 66h7M4 67h4M13 67h1M119 67h3M134 67h7M156 67h2M159 67h6M168 67h7M183 67h2M190 67h2M203 67h5M225 67h5M4 68h4M13 68h1M119 68h3M129 68h1M156 68h9M169 68h6M182 68h3M189 68h3M203 68h5M216 68h3M227 68h2M5 69h3M13 69h2M119 69h4M129 69h1M156 69h10M169 69h5M182 69h2M188 69h3M203 69h5M215 69h5M227 69h2M5 70h3M13 70h2M119 70h4M129 70h2M157 70h9M169 70h5M181 70h2M187 70h3M203 70h4M214 70h6M5 71h3M13 71h2M119 71h4M129 71h2M157 71h3M162 71h4M169 71h4M178 71h5M185 71h4M202 71h4M214 71h9M6 72h2M14 72h2M119 72h5M129 72h3M158 72h8M167 72h5M176 72h12M202 72h3M213 72h11M6 73h2M14 73h2M119 73h6M126 73h1M129 73h3M140 73h9M159 73h11M176 73h10M202 73h2M212 73h6M220 73h5M6 74h3M14 74h2M120 74h7M129 74h3M144 74h11M161 74h7M176 74h3M201 74h3M212 74h6M221 74h4M6 75h3M14 75h2M121 75h4M126 75h1M130 75h2M150 75h9M201 75h3M211 75h6M222 75h3M6 76h3M14 76h3M126 76h1M130 76h3M156 76h4M200 76h4M211 76h5M223 76h2M6 77h3M15 77h2M73 77h1M126 77h1M130 77h3M199 77h5M210 77h6M223 77h2M6 78h3M15 78h2M73 78h1M126 78h1M131 78h3M198 78h6M210 78h5M223 78h2M6 79h3M15 79h3M72 79h2M125 79h2M131 79h3M193 79h1M196 79h8M209 79h6M222 79h3M6 80h3M15 80h3M73 80h1M125 80h1M132 80h3M191 80h8M200 80h4M210 80h6M222 80h2M7 81h2M15 81h3M124 81h2M132 81h4M190 81h8M200 81h4M210 81h8M221 81h3M7 82h2M16 82h2M123 82h2M133 82h3M181 82h1M183 82h2M190 82h3M199 82h7M213 82h6M221 82h3M7 83h2M16 83h3M121 83h3M133 83h4M181 83h5M188 83h5M195 83h12M214 83h9M7 84h2M16 84h3M119 84h3M134 84h4M181 84h5M187 84h7M196 84h11M215 84h7M7 85h3M16 85h3M116 85h9M133 85h1M135 85h5M181 85h5M187 85h8M196 85h11M216 85h6M7 86h3M16 86h3M117 86h3M124 86h2M132 86h1M136 86h5M180 86h6M187 86h6M194 86h13M217 86h5M7 87h3M17 87h2M125 87h2M129 87h3M137 87h6M172 87h2M180 87h6M187 87h5M195 87h11M219 87h2M7 88h3M17 88h3M92 88h5M126 88h4M139 88h6M168 88h4M180 88h6M187 88h5M196 88h9M7 89h3M17 89h3M92 89h12M142 89h6M164 89h6M180 89h6M187 89h1M189 89h2M198 89h4M7 90h3M17 90h3M92 90h18M144 90h23M180 90h6M187 90h1M7 91h3M17 91h3M96 91h16M146 91h18M180 91h6M7 92h3M18 92h2M100 92h14M152 92h6M180 92h6M7 93h3M18 93h3M105 93h10M157 93h1M180 93h7M190 93h2M7 94h4M18 94h3M110 94h5M158 94h1M180 94h7M189 94h5M7 95h4M18 95h3M111 95h5M152 95h8M179 95h16M7 96h4M18 96h3M112 96h7M146 96h15M177 96h20M7 97h4M19 97h2M112 97h6M143 97h13M158 97h3M175 97h23M7 98h4M19 98h2M112 98h5M140 98h11M157 98h4M173 98h16M194 98h4M7 99h5M19 99h2M24 99h3M110 99h6M138 99h9M156 99h5M172 99h11M194 99h5M7 100h5M19 100h9M109 100h6M136 100h8M156 100h5M170 100h9M195 100h5M7 101h5M19 101h8M108 101h6M134 101h7M155 101h6M169 101h8M196 101h5M7 102h5M20 102h4M106 102h6M133 102h6M155 102h6M168 102h7M197 102h5M8 103h4M19 103h3M105 103h6M132 103h5M154 103h5M160 103h1M167 103h7M198 103h4M8 104h5M15 104h2M18 104h1M105 104h5M131 104h5M154 104h4M160 104h1M166 104h7M198 104h5M8 105h5M30 105h3M105 105h3M130 105h4M154 105h4M160 105h2M166 105h6M199 105h4M8 106h5M28 106h6M104 106h3M129 106h4M153 106h5M160 106h1M165 106h6M199 106h5M8 107h5M26 107h8M104 107h2M129 107h3M153 107h5M160 107h1M164 107h6M200 107h4M8 108h5M25 108h7M36 108h2M103 108h1M128 108h4M153 108h4M163 108h6M200 108h4M8 109h6M22 109h8M34 109h5M102 109h1M128 109h3M153 109h4M162 109h7M200 109h5M8 110h6M18 110h10M33 110h9M44 110h1M53 110h4M128 110h3M153 110h4M160 110h8M200 110h6M8 111h6M15 111h11M33 111h37M127 111h4M153 111h14M200 111h7M8 112h16M33 112h1M37 112h34M128 112h3M148 112h18M200 112h8M8 113h14M41 113h31M96 113h1M127 113h4M149 113h16M197 113h13M9 114h1M11 114h15M44 114h29M93 114h2M126 114h6M150 114h13M196 114h15M11 115h23M49 115h24M89 115h5M125 115h8M153 115h7M196 115h16M11 116h30M57 116h12M84 116h8M124 116h5M131 116h3M197 116h5M203 116h10M14 117h34M82 117h8M123 117h5M132 117h3M193 117h3M203 117h12M16 118h38M80 118h9M122 118h6M132 118h3M192 118h2M204 118h12M16 119h42M78 119h9M121 119h6M133 119h4M190 119h3M205 119h12M16 120h47M76 120h9M120 120h6M134 120h4M188 120h3M206 120h12M16 121h50M74 121h10M120 121h5M135 121h4M186 121h3M207 121h12M17 122h51M72 122h10M119 122h6M136 122h4M185 122h3M208 122h12M18 123h46M70 123h10M118 123h6M138 123h3M183 123h3M209 123h12M22 124h43M67 124h11M118 124h5M139 124h4M182 124h2M210 124h12M27 125h49M117 125h6M140 125h4M180 125h3M211 125h12M33 126h41M116 126h6M142 126h3M179 126h2M212 126h12M41 127h30M116 127h5M144 127h3M177 127h2M213 127h12M50 128h19M57 129h3M62 129h4" />
<path stroke="#ff0000" d="M74 7h2M72 8h3M70 9h3M68 10h4M65 11h4M70 11h1M63 12h3M69 12h1M61 13h3M68 13h1M59 14h3M56 15h4M67 15h1M54 16h4M66 16h1M52 17h3M50 18h3M65 18h1M48 19h3M64 19h1M47 20h3M64 20h1M45 21h3M63 21h1M43 22h3M63 22h1M42 23h2M62 23h1M41 24h2M61 24h2M39 25h2M61 25h1M38 26h2M61 26h1M37 27h2M60 27h1M36 28h2M60 28h1M35 29h2M59 29h2M35 30h1M59 30h1M34 31h2M59 31h1M34 32h1M58 32h2M34 33h1M58 33h2M34 34h1M58 34h1M34 35h2M58 35h1M35 36h1M58 36h1M36 37h2M58 37h2M37 38h2M58 38h2M38 39h2M59 39h1M39 40h3M59 40h2M41 41h3M60 41h2M43 42h2M62 42h2M45 43h2M64 43h4M17 44h1M46 44h3M17 45h1M48 45h2M16 46h1M18 46h1M40 46h4M50 46h2M70 46h1M17 47h3M36 47h9M51 47h2M71 47h1M18 48h3M33 48h6M52 48h2M72 48h2M18 49h1M20 49h16M45 49h3M53 49h1M74 49h1M19 50h1M22 50h10M47 50h3M54 50h1M75 50h1M19 51h2M49 51h2M54 51h1M75 51h2M20 52h1M50 52h2M54 52h1M76 52h2M20 53h2M51 53h2M54 53h1M77 53h2M21 54h4M51 54h4M78 54h2M23 55h5M52 55h3M78 55h2M26 56h5M53 56h3M79 56h2M85 56h3M29 57h7M54 57h2M79 57h2M85 57h5M33 58h7M80 58h1M87 58h4M37 59h6M80 59h2M88 59h4M41 60h5M80 60h2M89 60h4M44 61h3M80 61h2M90 61h4M46 62h2M80 62h2M90 62h5M47 63h2M79 63h2M91 63h4M48 64h2M79 64h2M91 64h5M49 65h2M79 65h2M91 65h6M49 66h2M78 66h3M91 66h3M95 66h2M50 67h2M78 67h2M91 67h2M95 67h3M50 68h2M78 68h2M91 68h2M96 68h2M50 69h2M77 69h2M90 69h3M96 69h3M51 70h2M76 70h3M90 70h3M97 70h2M51 71h2M76 71h2M89 71h3M97 71h3M51 72h2M75 72h3M88 72h3M97 72h3M51 73h2M74 73h3M87 73h3M98 73h2M52 74h1M73 74h3M85 74h4M98 74h2M52 75h2M72 75h3M84 75h4M98 75h2M52 76h2M72 76h2M82 76h4M98 76h2M52 77h2M71 77h2M81 77h4M97 77h3M52 78h1M70 78h3M79 78h4M97 78h2M51 79h2M69 79h3M77 79h4M97 79h2M51 80h2M68 80h5M74 80h5M96 80h3M50 81h2M57 81h1M60 81h2M68 81h1M72 81h5M96 81h2M48 82h3M57 82h3M61 82h2M95 82h2M45 83h5M58 83h7M95 83h2M41 84h7M59 84h7M94 84h2M35 85h10M61 85h6M93 85h2M30 86h11M62 86h3M66 86h2M92 86h2M27 87h8M63 87h6M92 87h1M26 88h5M64 88h6M91 88h1M25 89h3M64 89h3M68 89h2M24 90h3M65 90h6M24 91h2M66 91h2M69 91h2M90 91h2M24 92h2M66 92h2M70 92h2M91 92h1M24 93h2M63 93h5M70 93h2M91 93h12M24 94h3M60 94h7M70 94h3M93 94h10M25 95h2M59 95h6M71 95h2M100 95h2M25 96h3M57 96h5M71 96h2M80 96h4M100 96h2M26 97h2M57 97h3M71 97h3M78 97h6M100 97h2M26 98h3M57 98h2M72 98h8M82 98h2M100 98h2M27 99h3M57 99h2M73 99h5M81 99h2M100 99h2M28 100h3M57 100h2M81 100h2M101 100h3M28 101h4M57 101h3M81 101h2M101 101h3M29 102h4M58 102h2M81 102h2M102 102h3M30 103h4M58 103h3M81 103h2M103 103h2M32 104h4M59 104h3M80 104h3M103 104h2M33 105h4M60 105h4M80 105h3M102 105h3M34 106h5M59 106h7M81 106h3M102 106h2M36 107h6M58 107h1M60 107h7M82 107h3M101 107h3M38 108h8M54 108h4M63 108h7M82 108h3M99 108h4M41 109h15M69 109h1M72 109h2M81 109h3M98 109h4M45 110h8M70 110h1M73 110h11M95 110h6M70 111h3M74 111h9M92 111h8M71 112h4M76 112h5M88 112h10M72 113h24M73 114h20M75 115h14" />
<path stroke="#ff8000" d="M89 9h1M90 11h1M66 12h3M90 12h1M64 13h4M90 13h1M62 14h6M90 14h1M60 15h7M91 15h1M58 16h8M91 16h1M55 17h11M91 17h1M53 18h12M91 18h1M51 19h13M91 19h2M50 20h14M92 20h1M48 21h15M92 21h1M46 22h17M92 22h1M44 23h18M92 23h1M43 24h18M92 24h2M41 25h20M93 25h1M40 26h21M93 26h1M39 27h21M93 27h1M38 28h22M93 28h1M37 29h22M93 29h1M36 30h23M94 30h1M36 31h23M94 31h1M35 32h23M94 32h1M35 33h23M94 33h1M35 34h23M94 34h1M36 35h22M36 36h22M38 37h20M39 38h19M40 39h19M42 40h17M44 41h16M45 42h17M47 43h17M49 44h19M50 45h18M98 45h2M52 46h18M99 46h2M53 47h18M99 47h2M39 48h6M54 48h18M100 48h1M132 48h1M36 49h9M54 49h20M132 49h1M20 50h2M32 50h15M55 50h20M136 50h1M21 51h28M55 51h20M133 51h1M136 51h1M21 52h29M55 52h21M133 52h1M22 53h29M55 53h22M133 53h1M137 53h1M25 54h26M55 54h23M134 54h1M137 54h1M163 54h1M28 55h24M55 55h23M134 55h1M138 55h1M163 55h1M31 56h22M56 56h23M134 56h1M138 56h1M36 57h18M56 57h23M134 57h2M138 57h1M164 57h1M40 58h40M135 58h1M139 58h1M164 58h1M43 59h37M135 59h1M139 59h1M164 59h2M46 60h34M135 60h2M139 60h1M165 60h1M47 61h33M136 61h1M140 61h1M165 61h1M48 62h32M136 62h1M165 62h2M49 63h30M166 63h1M50 64h29M137 64h1M166 64h1M51 65h28M166 65h2M51 66h27M94 66h1M167 66h1M52 67h26M93 67h2M167 67h1M52 68h26M93 68h3M167 68h1M52 69h25M93 69h3M53 70h23M93 70h4M168 70h1M53 71h23M92 71h5M168 71h1M53 72h22M91 72h6M53 73h21M90 73h8M53 74h20M89 74h9M54 75h18M88 75h10M54 76h18M86 76h12M54 77h17M85 77h12M53 78h17M83 78h14M53 79h16M81 79h16M53 80h15M79 80h17M52 81h5M58 81h2M62 81h6M69 81h3M77 81h19M51 82h6M63 82h32M50 83h8M65 83h30M48 84h11M66 84h28M45 85h16M67 85h26M41 86h21M68 86h24M35 87h28M69 87h23M31 88h33M70 88h21M28 89h36M70 89h22M27 90h38M71 90h21M26 91h40M71 91h19M26 92h40M72 92h19M26 93h37M72 93h19M27 94h33M73 94h20M27 95h32M73 95h27M28 96h29M73 96h7M84 96h16M28 97h29M74 97h4M84 97h16M29 98h28M84 98h16M30 99h27M83 99h17M31 100h26M83 100h18M32 101h25M83 101h18M33 102h25M83 102h19M34 103h24M83 103h20M36 104h23M83 104h20M37 105h23M83 105h19M39 106h20M84 106h18M42 107h16M85 107h16M46 108h8M85 108h14M84 109h14M84 110h11M83 111h9M81 112h7" />
</svg>