<svg xmlns="http://www.w3.org/2000/svg" viewBox="0 -0.5 248 136" shape-rendering="crispEdges">
<path stroke="#000000" d="M96 5h3M92 6h8M165 6h10M88 7h7M97 7h4M162 7h15M87 8h4M98 8h3M148 8h5M161 8h4M174 8h5M87 9h2M98 9h3M144 9h10M159 9h4M177 9h4M87 10h2M98 10h3M141 10h5M153 10h2M158 10h3M178 10h4M88 11h2M98 11h4M139 11h3M154 11h2M157 11h3M162 11h11M180 11h3M88 12h2M98 12h4M139 12h4M154 12h2M157 12h17M181 12h2M88 13h2M99 13h3M143 13h2M155 13h20M181 13h3M89 14h1M99 14h3M145 14h1M155 14h29M89 15h2M99 15h4M136 15h11M154 15h30M89 16h2M99 16h4M133 16h5M146 16h2M151 16h1M154 16h30M89 17h2M99 17h4M130 17h4M151 17h35M90 18h1M99 18h4M128 18h3M151 18h37M90 19h1M100 19h4M126 19h3M151 19h39M90 20h2M100 20h4M125 20h2M151 20h41M90 21h2M100 21h4M124 21h2M152 21h41M90 22h2M100 22h4M122 22h2M152 22h42M91 23h1M100 23h5M121 23h2M148 23h2M153 23h42M91 24h1M100 24h5M120 24h2M147 24h4M154 24h42M91 25h2M101 25h4M119 25h2M146 25h5M155 25h42M237 25h3M91 26h2M101 26h4M118 26h2M147 26h5M155 26h43M236 26h4M91 27h2M101 27h4M117 27h3M147 27h6M156 27h42M235 27h6M92 28h1M101 28h5M116 28h3M147 28h6M156 28h43M234 28h8M92 29h1M101 29h5M116 29h2M148 29h6M156 29h44M234 29h3M238 29h5M92 30h2M102 30h4M115 30h3M148 30h6M156 30h44M233 30h4M239 30h5M92 31h2M102 31h4M115 31h3M148 31h7M156 31h45M233 31h4M240 31h5M92 32h2M102 32h4M115 32h2M148 32h4M154 32h47M232 32h4M240 32h5M93 33h1M102 33h3M114 33h3M147 33h5M154 33h47M231 33h5M241 33h5M93 34h1M99 34h5M114 34h3M147 34h5M154 34h48M231 34h4M242 34h4M93 35h2M97 35h7M114 35h3M146 35h5M154 35h48M230 35h5M244 35h2M93 36h8M114 36h3M146 36h5M154 36h48M230 36h4M245 36h2M94 37h4M114 37h3M145 37h5M154 37h5M160 37h43M229 37h5M244 37h2M114 38h3M144 38h6M153 38h6M160 38h2M163 38h40M229 38h5M243 38h3M114 39h3M144 39h5M153 39h5M160 39h3M165 39h38M228 39h5M243 39h2M103 40h6M115 40h3M143 40h6M152 40h5M161 40h2M167 40h36M228 40h5M242 40h3M101 41h9M115 41h8M142 41h6M152 41h4M161 41h3M167 41h36M227 41h5M241 41h3M64 42h5M99 42h11M118 42h1M120 42h2M137 42h3M141 42h6M151 42h4M162 42h3M168 42h35M227 42h5M240 42h3M64 43h1M68 43h1M98 43h8M107 43h3M120 43h3M134 43h12M150 43h2M163 43h2M169 43h34M226 43h5M240 43h3M68 44h1M97 44h5M107 44h3M120 44h3M132 44h12M163 44h3M171 44h32M226 44h5M239 44h3M68 45h1M97 45h1M107 45h4M119 45h4M131 45h6M139 45h5M164 45h3M172 45h31M226 45h4M238 45h4M68 46h1M97 46h2M107 46h4M118 46h5M130 46h4M136 46h2M142 46h3M165 46h4M174 46h29M225 46h5M238 46h3M46 47h4M98 47h1M105 47h6M117 47h5M130 47h3M136 47h2M143 47h3M162 47h8M176 47h27M225 47h5M237 47h3M45 48h3M98 48h2M102 48h8M115 48h6M130 48h2M137 48h2M143 48h4M161 48h11M179 48h24M224 48h5M236 48h4M98 49h11M114 49h6M129 49h3M137 49h2M144 49h3M159 49h6M167 49h7M182 49h21M224 49h5M236 49h3M99 50h9M109 50h2M112 50h7M129 50h2M133 50h1M137 50h2M144 50h3M158 50h3M162 50h4M169 50h8M185 50h17M223 50h5M235 50h4M101 51h2M108 51h4M113 51h4M128 51h3M137 51h3M144 51h4M158 51h2M162 51h4M170 51h10M185 51h17M205 51h3M223 51h5M234 51h4M109 52h6M128 52h3M138 52h2M144 52h4M157 52h1M163 52h4M171 52h3M176 52h7M185 52h17M203 52h5M222 52h5M234 52h3M113 53h2M127 53h4M138 53h3M144 53h4M157 53h3M163 53h4M171 53h4M185 53h23M222 53h5M233 53h4M114 54h3M124 54h7M138 54h3M145 54h3M156 54h4M164 54h4M172 54h3M180 54h2M185 54h23M221 54h5M233 54h3M116 55h12M129 55h2M135 55h1M139 55h2M144 55h6M155 55h2M159 55h1M164 55h4M172 55h4M179 55h2M184 55h24M221 55h5M232 55h4M19 56h4M119 56h2M123 56h3M129 56h2M135 56h1M139 56h3M144 56h8M155 56h2M159 56h2M164 56h5M172 56h4M178 56h2M184 56h9M195 56h13M220 56h5M231 56h4M16 57h4M122 57h4M129 57h2M136 57h1M139 57h3M144 57h4M150 57h2M155 57h6M165 57h4M173 57h3M178 57h1M183 57h10M197 57h10M220 57h5M231 57h4M12 58h4M121 58h4M129 58h2M136 58h1M140 58h2M144 58h4M152 58h1M155 58h1M157 58h2M160 58h2M165 58h4M173 58h3M177 58h2M182 58h10M195 58h12M219 58h5M230 58h4M10 59h4M31 59h2M121 59h4M129 59h2M136 59h1M140 59h3M144 59h3M154 59h2M158 59h4M166 59h4M173 59h3M177 59h2M189 59h3M195 59h2M198 59h9M219 59h5M230 59h4M8 60h5M28 60h9M120 60h4M129 60h2M140 60h3M144 60h3M154 60h2M158 60h4M166 60h4M173 60h6M189 60h3M194 60h2M201 60h5M218 60h6M229 60h4M7 61h4M25 61h9M120 61h4M130 61h2M137 61h1M141 61h6M154 61h3M159 61h4M166 61h5M173 61h4M178 61h4M186 61h1M189 61h2M194 61h2M202 61h4M218 61h7M229 61h4M5 62h4M22 62h8M120 62h4M130 62h2M137 62h1M141 62h5M155 62h3M159 62h4M167 62h4M173 62h3M179 62h7M189 62h1M194 62h1M202 62h5M219 62h7M228 62h4M4 63h4M20 63h7M119 63h4M130 63h3M137 63h1M141 63h5M155 63h2M159 63h4M167 63h4M173 63h3M185 63h1M189 63h1M193 63h1M203 63h5M220 63h7M228 63h4M5 64h2M17 64h7M119 64h4M131 64h2M141 64h4M155 64h2M158 64h1M160 64h4M167 64h9M185 64h1M188 64h1M192 64h2M203 64h6M221 64h10M4 65h3M15 65h6M119 65h4M132 65h3M137 65h2M140 65h4M155 65h2M158 65h6M168 65h8M184 65h2M192 65h1M203 65h6M222 65h9M4 66h4M13 66h5M119 66h4M132 66h12M155 66h2M159 66h6M168 66h8M184 66h2M191 66h2M203 66h6M223 66h7M4 67h4M13 67h3M119 67h3M134 67h7M156 67h2M159 67h6M168 67h7M183 67h2M190 67h2M203 67h5M225 67h5M4 68h4M13 68h1M119 68h3M129 68h1M156 68h9M169 68h6M182 68h3M189 68h3M203 68h5M216 68h3M227 68h2M4 69h4M13 69h1M119 69h4M129 69h1M156 69h10M169 69h5M182 69h2M188 69h3M203 69h5M215 69h5M227 69h2M5 70h3M13 70h2M119 70h4M129 70h2M157 70h9M169 70h5M181 70h2M187 70h3M203 70h4M214 70h6M5 71h3M13 71h2M119 71h4M129 71h2M157 71h3M162 71h4M169 71h4M178 71h5M185 71h4M202 71h4M214 71h9M5 72h3M13 72h2M119 72h5M129 72h3M158 72h8M167 72h5M176 72h12M202 72h3M213 72h11M6 73h2M14 73h2M119 73h6M126 73h1M129 73h3M140 73h9M159 73h11M176 73h10M202 73h2M212 73h6M220 73h5M6 74h2M14 74h2M120 74h7M129 74h3M144 74h11M161 74h7M176 74h3M201 74h3M212 74h6M221 74h4M6 75h3M14 75h2M121 75h4M126 75h1M130 75h2M150 75h9M201 75h3M211 75h6M222 75h3M6 76h3M14 76h2M126 76h1M130 76h3M156 76h4M200 76h4M211 76h5M223 76h2M6 77h3M14 77h3M126 77h1M130 77h3M199 77h5M210 77h6M223 77h2M6 78h3M15 78h2M73 78h1M126 78h1M131 78h3M198 78h6M210 78h5M223 78h2M6 79h3M15 79h2M73 79h1M125 79h2M131 79h3M193 79h1M196 79h8M209 79h6M222 79h3M6 80h3M15 80h3M72 80h2M125 80h1M132 80h3M191 80h8M200 80h4M210 80h6M222 80h2M6 81h3M15 81h3M73 81h1M124 81h2M132 81h4M190 81h8M200 81h4M210 81h8M221 81h3M7 82h2M15 82h3M123 82h2M133 82h3M181 82h1M183 82h2M190 82h3M199 82h7M213 82h6M221 82h3M7 83h2M16 83h2M121 83h3M133 83h4M181 83h5M188 83h5M195 83h12M214 83h9M7 84h2M16 84h3M119 84h3M134 84h4M181 84h5M187 84h7M196 84h11M215 84h7M7 85h2M16 85h3M116 85h9M133 85h1M135 85h5M181 85h5M187 85h8M196 85h11M216 85h6M7 86h3M16 86h3M117 86h3M124 86h2M132 86h1M136 86h5M180 86h6M187 86h6M194 86h13M217 86h5M7 87h3M16 87h3M125 87h2M129 87h3M137 87h6M172 87h2M180 87h6M187 87h5M195 87h11M219 87h2M7 88h3M17 88h2M126 88h4M139 88h6M168 88h4M180 88h6M187 88h5M196 88h9M7 89h3M17 89h3M92 89h5M142 89h6M164 89h6M180 89h6M187 89h1M189 89h2M198 89h4M7 90h3M17 90h3M92 90h12M144 90h23M180 90h6M187 90h1M7 91h3M17 91h3M92 91h18M146 91h18M180 91h6M7 92h3M17 92h3M96 92h16M152 92h6M180 92h6M7 93h3M18 93h2M100 93h14M157 93h1M180 93h7M190 93h2M7 94h3M18 94h3M105 94h10M158 94h1M180 94h7M189 94h5M7 95h4M18 95h3M110 95h5M152 95h8M179 95h16M7 96h4M18 96h3M111 96h5M146 96h15M177 96h20M7 97h4M18 97h3M112 97h7M143 97h13M158 97h3M175 97h23M7 98h4M19 98h2M112 98h6M140 98h11M157 98h4M173 98h16M194 98h4M7 99h4M19 99h2M112 99h5M138 99h9M156 99h5M172 99h11M194 99h5M7 100h5M19 100h2M24 100h3M110 100h6M136 100h8M156 100h5M170 100h9M195 100h5M7 101h5M19 101h9M109 101h6M134 101h7M155 101h6M169 101h8M196 101h5M7 102h5M19 102h8M108 102h6M133 102h6M155 102h6M168 102h7M197 102h5M7 103h5M20 103h4M106 103h6M132 103h5M154 103h5M160 103h1M167 103h7M198 103h4M8 104h4M19 104h3M105 104h6M131 104h5M154 104h4M160 104h1M166 104h7M198 104h5M8 105h5M15 105h2M18 105h1M105 105h5M130 105h4M154 105h4M160 105h2M166 105h6M199 105h4M8 106h5M30 106h3M105 106h3M129 106h4M153 106h5M160 106h1M165 106h6M199 106h5M8 107h5M28 107h6M104 107h3M129 107h3M153 107h5M160 107h1M164 107h6M200 107h4M8 108h5M26 108h8M104 108h2M128 108h4M153 108h4M163 108h6M200 108h4M8 109h5M25 109h7M36 109h2M103 109h1M128 109h3M153 109h4M162 109h7M200 109h5M8 110h6M22 110h8M34 110h5M102 110h1M128 110h3M153 110h4M160 110h8M200 110h6M8 111h6M18 111h10M33 111h9M44 111h1M53 111h4M127 111h4M153 111h14M200 111h7M8 112h6M15 112h11M33 112h37M128 112h3M148 112h18M200 112h8M8 113h16M33 113h1M37 113h34M127 113h4M149 113h16M197 113h13M8 114h14M41 114h31M96 114h1M126 114h6M150 114h13M196 114h15M9 115h1M11 115h15M44 115h29M93 115h2M125 115h8M153 115h7M196 115h16M11 116h23M49 116h24M89 116h5M124 116h5M131 116h3M197 116h5M203 116h10M11 117h30M57 117h12M84 117h8M123 117h5M132 117h3M193 117h3M203 117h12M14 118h34M82 118h8M122 118h6M132 118h3M192 118h2M204 118h12M16 119h38M80 119h9M121 119h6M133 119h4M190 119h3M205 119h12M16 120h42M78 120h9M120 120h6M134 120h4M188 120h3M206 120h12M16 121h47M76 121h9M120 121h5M135 121h4M186 121h3M207 121h12M16 122h50M74 122h10M119 122h6M136 122h4M185 122h3M208 122h12M17 123h51M72 123h10M118 123h6M138 123h3M183 123h3M209 123h12M18 124h46M70 124h10M118 124h5M139 124h4M182 124h2M210 124h12M22 125h43M67 125h11M117 125h6M140 125h4M180 125h3M211 125h12M27 126h49M116 126h6M142 126h3M179 126h2M212 126h12M33 127h41M116 127h5M144 127h3M177 127h2M213 127h12M41 128h30M50 129h19M57 130h3M62 130h4" />
<path stroke="#ff0000" d="M74 8h2M72 9h3M70 10h3M68 11h4M65 12h4M70 12h1M63 13h3M69 13h1M61 14h3M68 14h1M59 15h3M56 16h4M67 16h1M54 17h4M66 17h1M52 18h3M50 19h3M65 19h1M48 20h3M64 20h1M47 21h3M64 21h1M45 22h3M63 22h1M43 23h3M63 23h1M42 24h2M62 24h1M41 25h2M61 25h2M39 26h2M61 26h1M38 27h2M61 27h1M37 28h2M60 28h1M36 29h2M60 29h1M35 30h2M59 30h2M35 31h1M59 31h1M34 32h2M59 32h1M34 33h1M58 33h2M34 34h1M58 34h2M34 35h1M58 35h1M34 36h2M58 36h1M35 37h1M58 37h1M36 38h2M58 38h2M37 39h2M58 39h2M38 40h2M59 40h1M39 41h3M59 41h2M41 42h3M60 42h2M43 43h2M62 43h2M45 44h2M64 44h4M17 45h1M46 45h3M17 46h1M48 46h2M16 47h1M18 47h1M40 47h4M50 47h2M70 47h1M17 48h3M36 48h9M51 48h2M71 48h1M18 49h3M33 49h6M52 49h2M72 49h2M18 50h1M20 50h16M45 50h3M53 50h1M74 50h1M19 51h1M22 51h10M47 51h3M54 51h1M75 51h1M19 52h2M49 52h2M54 52h1M75 52h2M20 53h1M50 53h2M54 53h1M76 53h2M20 54h2M51 54h2M54 54h1M77 54h2M21 55h4M51 55h4M78 55h2M23 56h5M52 56h3M78 56h2M26 57h5M53 57h3M79 57h2M85 57h3M29 58h7M54 58h2M79 58h2M85 58h5M33 59h7M80 59h1M87 59h4M37 60h6M80 60h2M88 60h4M41 61h5M80 61h2M89 61h4M44 62h3M80 62h2M90 62h4M46 63h2M80 63h2M90 63h5M47 64h2M79 64h2M91 64h4M48 65h2M79 65h2M91 65h5M49 66h2M79 66h2M91 66h6M49 67h2M78 67h3M91 67h3M95 67h2M50 68h2M78 68h2M91 68h2M95 68h3M50 69h2M78 69h2M91 69h2M96 69h2M50 70h2M77 70h2M90 70h3M96 70h3M51 71h2M76 71h3M90 71h3M97 71h2M51 72h2M76 72h2M89 72h3M97 72h3M51 73h2M75 73h3M88 73h3M97 73h3M51 74h2M74 74h3M87 74h3M98 74h2M52 75h1M73 75h3M85 75h4M98 75h2M52 76h2M72 76h3M84 76h4M98 76h2M52 77h2M72 77h2M82 77h4M98 77h2M52 78h2M71 78h2M81 78h4M97 78h3M52 79h1M70 79h3M79 79h4M97 79h2M51 80h2M69 80h3M77 80h4M97 80h2M51 81h2M68 81h5M74 81h5M96 81h3M50 82h2M57 82h1M60 82h2M68 82h1M72 82h5M96 82h2M48 83h3M57 83h3M61 83h2M95 83h2M45 84h5M58 84h7M95 84h2M41 85h7M59 85h7M94 85h2M35 86h10M61 86h6M93 86h2M30 87h11M62 87h3M66 87h2M92 87h2M27 88h8M63 88h6M92 88h1M26 89h5M64 89h6M91 89h1M25 90h3M64 90h3M68 90h2M24 91h3M65 91h6M24 92h2M66 92h2M69 92h2M90 92h2M24 93h2M66 93h2M70 93h2M91 93h1M24 94h2M63 94h5M70 94h2M91 94h12M24 95h3M60 95h7M70 95h3M93 95h10M25 96h2M59 96h6M71 96h2M100 96h2M25 97h3M57 97h5M71 97h2M80 97h4M100 97h2M26 98h2M57 98h3M71 98h3M78 98h6M100 98h2M26 99h3M57 99h2M72 99h8M82 99h2M100 99h2M27 100h3M57 100h2M73 100h5M81 100h2M100 100h2M28 101h3M57 101h2M81 101h2M101 101h3M28 102h4M57 102h3M81 102h2M101 102h3M29 103h4M58 103h2M81 103h2M102 103h3M30 104h4M58 104h3M81 104h2M103 104h2M32 105h4M59 105h3M80 105h3M103 105h2M33 106h4M60 106h4M80 106h3M102 106h3M34 107h5M59 107h7M81 107h3M102 107h2M36 108h6M58 108h1M60 108h7M82 108h3M101 108h3M38 109h8M54 109h4M63 109h7M82 109h3M99 109h4M41 110h15M69 110h1M72 110h2M81 110h3M98 110h4M45 111h8M70 111h1M73 111h11M95 111h6M70 112h3M74 112h9M92 112h8M71 113h4M76 113h5M88 113h10M72 114h24M73 115h20M75 116h14" />
<path stroke="#ff8000" d="M89 9h1M90 11h1M90 12h1M66 13h3M90 13h1M64 14h4M90 14h1M62 15h6M91 15h1M60 16h7M91 16h1M58 17h8M91 17h1M55 18h11M91 18h1M53 19h12M91 19h2M51 20h13M92 20h1M50 21h14M92 21h1M48 22h15M92 22h1M46 23h17M92 23h1M44 24h18M92 24h2M43 25h18M93 25h1M41 26h20M93 26h1M40 27h21M93 27h1M39 28h21M93 28h1M38 29h22M93 29h1M37 30h22M94 30h1M36 31h23M94 31h1M36 32h23M94 32h1M35 33h23M94 33h1M35 34h23M94 34h1M35 35h23M36 36h22M36 37h22M38 38h20M39 39h19M40 40h19M42 41h17M44 42h16M45 43h17M47 44h17M49 45h19M98 45h2M50 46h18M99 46h2M52 47h18M99 47h2M53 48h18M100 48h1M132 48h1M39 49h6M54 49h18M132 49h1M36 50h9M54 50h20M136 50h1M20 51h2M32 51h15M55 51h20M133 51h1M136 51h1M21 52h28M55 52h20M133 52h1M21 53h29M55 53h21M133 53h1M137 53h1M22 54h29M55 54h22M134 54h1M137 54h1M163 54h1M25 55h26M55 55h23M134 55h1M138 55h1M163 55h1M28 56h24M55 56h23M134 56h1M138 56h1M31 57h22M56 57h23M134 57h2M138 57h1M164 57h1M36 58h18M56 58h23M135 58h1M139 58h1M164 58h1M40 59h40M135 59h1M139 59h1M164 59h2M43 60h37M135 60h2M139 60h1M165 60h1M46 61h34M136 61h1M140 61h1M165 61h1M47 62h33M136 62h1M165 62h2M48 63h32M166 63h1M49 64h30M137 64h1M166 64h1M50 65h29M166 65h2M51 66h28M167 66h1M51 67h27M94 67h1M167 67h1M52 68h26M93 68h2M167 68h1M52 69h26M93 69h3M52 70h25M93 70h3M168 70h1M53 71h23M93 71h4M168 71h1M53 72h23M92 72h5M53 73h22M91 73h6M53 74h21M90 74h8M53 75h20M89 75h9M54 76h18M88 76h10M54 77h18M86 77h12M54 78h17M85 78h12M53 79h17M83 79h14M53 80h16M81 80h16M53 81h15M79 81h17M52 82h5M58 82h2M62 82h6M69 82h3M77 82h19M51 83h6M63 83h32M50 84h8M65 84h30M48 85h11M66 85h28M45 86h16M67 86h26M41 87h21M68 87h24M35 88h28M69 88h23M31 89h33M70 89h21M28 90h36M70 90h22M27 91h38M71 91h21M26 92h40M71 92h19M26 93h40M72 93h19M26 94h37M72 94h19M27 95h33M73 95h20M27 96h32M73 96h27M28 97h29M73 97h7M84 97h16M28 98h29M74 98h4M84 98h16M29 99h28M84 99h16M30 100h27M83 100h17M31 101h26M83 101h18M32 102h25M83 102h18M33 103h25M83 103h19M34 104h24M83 104h20M36 105h23M83 105h20M37 106h23M83 106h19M39 107h20M84 107h18M42 108h16M85 108h16M46 109h8M85 109h14M84 110h14M84 111h11M83 112h9M81 113h7" />
</svg>