<svg xmlns="http://www.w3.org/2000/svg" viewBox="0 -0.5 300 128" shape-rendering="crispEdges">
<path stroke="#ffffff" d="M49 1h6M41 2h20M38 3h13M53 3h11M35 4h8M59 4h7M32 5h8M48 5h8M62 5h5M30 6h7M43 6h17M64 6h4M28 7h6M40 7h22M65 7h4M26 8h6M37 8h27M66 8h4M24 9h6M35 9h27M64 9h1M67 9h3M23 10h5M32 10h30M64 10h1M68 10h2M21 11h5M31 11h31M64 11h2M68 11h2M19 12h6M29 12h32M63 12h3M68 12h2M18 13h5M27 13h34M63 13h3M68 13h2M17 14h4M25 14h36M63 14h3M68 14h2M15 15h5M24 15h36M62 15h3M68 15h3M14 16h5M22 16h37M62 16h4M68 16h3M13 17h4M21 17h38M61 17h5M69 17h12M12 18h4M20 18h38M61 18h5M69 18h14M11 19h4M18 19h39M60 19h6M79 19h5M10 20h4M17 20h40M60 20h6M81 20h4M9 21h4M16 21h40M59 21h8M70 21h8M82 21h4M8 22h4M15 22h40M58 22h9M71 22h9M83 22h4M7 23h4M14 23h40M57 23h11M72 23h9M84 23h4M7 24h3M13 24h40M57 24h12M73 24h10M85 24h3M6 25h3M13 25h39M56 25h13M74 25h9M86 25h2M5 26h4M12 26h39M55 26h15M76 26h8M86 26h2M5 27h3M11 27h39M54 27h17M77 27h7M86 27h3M4 28h3M10 28h39M53 28h18M77 28h8M86 28h3M4 29h3M10 29h37M52 29h20M77 29h8M87 29h2M3 30h3M9 30h37M51 30h21M76 30h9M87 30h2M3 31h3M9 31h36M49 31h23M76 31h9M87 31h2M3 32h2M8 32h35M48 32h23M76 32h9M87 32h2M3 33h2M8 33h33M47 33h24M76 33h9M87 33h5M2 34h3M7 34h33M45 34h26M75 34h10M87 34h7M2 35h3M7 35h31M44 35h26M75 35h10M90 35h6M2 36h2M7 36h29M42 36h28M74 36h11M92 36h6M2 37h2M7 37h27M41 37h28M74 37h11M94 37h5M247 37h6M2 38h2M7 38h25M39 38h30M73 38h11M87 38h1M96 38h5M245 38h8M2 39h2M7 39h22M37 39h31M73 39h11M87 39h4M97 39h5M244 39h5M251 39h2M2 40h3M7 40h19M35 40h33M72 40h12M87 40h6M99 40h4M243 40h4M251 40h2M2 41h3M7 41h16M32 41h35M71 41h13M86 41h6M93 41h2M100 41h4M242 41h4M251 41h2M3 42h2M7 42h11M30 42h36M70 42h13M86 42h6M93 42h3M101 42h4M222 42h8M240 42h5M251 42h2M3 43h2M27 43h38M69 43h14M86 43h11M102 43h4M222 43h10M239 43h5M251 43h2M3 44h2M23 44h42M68 44h14M85 44h2M88 44h5M94 44h4M103 44h4M222 44h2M228 44h6M238 44h4M251 44h2M3 45h3M18 45h46M67 45h15M85 45h2M88 45h5M94 45h5M104 45h3M222 45h2M230 45h5M236 45h5M247 45h1M251 45h2M3 46h4M12 46h3M18 46h44M66 46h15M84 46h3M88 46h5M94 46h6M105 46h3M222 46h2M232 46h8M246 46h1M250 46h3M4 47h4M19 47h42M65 47h14M84 47h4M89 47h5M95 47h5M105 47h4M222 47h2M233 47h5M244 47h3M250 47h3M5 48h4M19 48h41M64 48h15M83 48h5M89 48h5M95 48h5M106 48h3M222 48h2M235 48h2M243 48h4M250 48h2M6 49h4M20 49h39M63 49h16M82 49h1M84 49h4M89 49h5M95 49h6M107 49h3M222 49h2M228 49h2M242 49h5M250 49h2M7 50h4M21 50h36M62 50h16M82 50h1M84 50h5M90 50h5M96 50h5M107 50h3M222 50h3M228 50h3M240 50h6M250 50h2M8 51h4M21 51h35M61 51h16M81 51h8M90 51h5M96 51h5M102 51h1M108 51h2M222 51h3M229 51h4M238 51h8M249 51h3M9 52h4M22 52h32M60 52h16M81 52h3M85 52h4M90 52h5M96 52h6M108 52h2M223 52h2M229 52h6M237 52h9M249 52h3M10 53h4M23 53h30M58 53h17M80 53h4M85 53h5M91 53h5M97 53h5M103 53h1M108 53h2M223 53h2M229 53h17M249 53h2M11 54h4M24 54h27M57 54h17M79 54h11M91 54h5M97 54h5M108 54h2M216 54h10M229 54h17M249 54h2M12 55h3M24 55h26M55 55h18M78 55h7M86 55h4M92 55h4M98 55h5M108 55h2M212 55h14M229 55h16M248 55h3M12 56h4M25 56h23M54 56h18M78 56h7M86 56h5M92 56h5M98 56h5M108 56h2M210 56h8M229 56h16M248 56h3M11 57h5M26 57h21M52 57h19M81 57h10M92 57h5M98 57h6M108 57h2M209 57h5M229 57h16M248 57h4M10 58h4M26 58h19M50 58h20M76 58h2M85 58h12M99 58h5M107 58h3M209 58h3M227 58h18M248 58h5M10 59h3M27 59h16M48 59h21M75 59h7M89 59h3M93 59h5M99 59h4M107 59h8M209 59h2M222 59h24M250 59h4M9 60h3M28 60h12M46 60h21M74 60h11M92 60h6M100 60h5M108 60h7M209 60h2M217 60h30M251 60h4M8 61h4M24 61h1M28 61h9M43 61h23M73 61h17M95 61h3M100 61h6M113 61h2M209 61h2M218 61h30M252 61h4M8 62h3M24 62h2M29 62h6M41 62h24M72 62h27M100 62h8M113 62h2M209 62h3M219 62h30M253 62h4M8 63h2M24 63h3M30 63h4M38 63h25M74 63h13M91 63h8M101 63h1M104 63h5M113 63h2M209 63h5M220 63h9M233 63h17M254 63h4M7 64h3M25 64h2M34 64h28M70 64h2M77 64h7M94 64h6M101 64h2M112 64h3M210 64h5M221 64h6M234 64h17M255 64h4M7 65h3M25 65h3M31 65h30M68 65h5M77 65h6M96 65h5M102 65h1M110 65h5M196 65h9M212 65h5M221 65h5M229 65h2M234 65h18M256 65h4M7 66h2M24 66h5M32 66h28M66 66h1M75 66h7M85 66h9M97 66h5M103 66h1M107 66h7M195 66h11M213 66h11M228 66h4M235 66h18M257 66h4M6 67h3M22 67h9M32 67h27M64 67h5M72 67h9M84 67h11M98 67h8M108 67h4M195 67h3M203 67h5M215 67h8M227 67h6M235 67h7M250 67h4M258 67h4M6 68h3M22 68h36M63 68h18M83 68h12M96 68h1M99 68h8M109 68h3M195 68h2M204 68h5M216 68h5M226 68h7M235 68h8M253 68h2M259 68h3M6 69h2M22 69h35M62 69h18M82 69h13M96 69h1M99 69h9M110 69h2M194 69h3M206 69h3M215 69h5M225 69h8M235 69h7M244 69h1M260 69h2M6 70h2M21 70h34M61 70h19M82 70h14M99 70h9M110 70h2M194 70h3M199 70h3M207 70h2M213 70h5M224 70h8M234 70h7M244 70h3M260 70h2M6 71h2M21 71h32M60 71h20M82 71h14M97 71h1M100 71h9M110 71h2M193 71h3M198 71h7M207 71h2M212 71h5M222 71h9M234 71h7M244 71h6M259 71h3M6 72h2M12 72h2M21 72h30M59 72h21M82 72h14M97 72h1M100 72h2M103 72h4M110 72h2M193 72h3M198 72h7M207 72h2M211 72h4M221 72h9M233 72h8M243 72h19M6 73h3M12 73h3M20 73h29M58 73h22M82 73h16M100 73h2M109 73h3M192 73h3M198 73h6M207 73h7M220 73h9M232 73h8M243 73h3M248 73h13M6 74h3M13 74h2M20 74h27M56 74h24M82 74h16M100 74h3M107 74h5M192 74h3M198 74h6M206 74h7M218 74h10M231 74h9M243 74h2M7 75h3M14 75h1M19 75h25M55 75h25M82 75h16M100 75h4M109 75h5M192 75h2M198 75h6M206 75h5M217 75h10M231 75h1M233 75h6M243 75h2M7 76h4M18 76h6M25 76h14M53 76h23M83 76h15M101 76h4M106 76h1M110 76h5M191 76h3M197 76h7M206 76h4M216 76h10M230 76h2M233 76h6M242 76h3M8 77h5M52 77h23M83 77h14M101 77h4M106 77h3M112 77h4M191 77h3M197 77h6M205 77h4M214 77h11M229 77h2M234 77h5M242 77h3M9 78h5M49 78h9M66 78h8M76 78h5M83 78h15M100 78h1M102 78h8M113 78h4M191 78h2M197 78h6M205 78h3M213 78h11M228 78h3M234 78h4M242 78h2M11 79h5M49 79h7M67 79h1M70 79h3M74 79h8M84 79h13M100 79h1M102 79h4M107 79h4M114 79h5M191 79h2M197 79h6M205 79h2M212 79h11M227 79h4M234 79h4M241 79h3M12 80h6M23 80h4M45 80h2M49 80h6M61 80h6M68 80h1M71 80h1M73 80h9M85 80h12M100 80h1M102 80h4M107 80h4M115 80h5M190 80h3M196 80h6M204 80h2M211 80h11M226 80h5M235 80h2M241 80h3M14 81h3M21 81h7M39 81h1M41 81h3M45 81h2M49 81h5M58 81h12M72 81h11M86 81h10M101 81h1M103 81h4M108 81h5M117 81h4M190 81h3M196 81h6M204 81h1M210 81h10M225 81h7M235 81h2M241 81h2M15 82h2M20 82h13M38 82h2M41 82h3M45 82h2M50 82h3M56 82h15M73 82h11M88 82h7M98 82h2M101 82h1M103 82h4M108 82h4M113 82h2M118 82h3M190 82h2M196 82h5M203 82h1M209 82h10M223 82h5M229 82h3M235 82h2M240 82h3M15 83h2M20 83h9M30 83h5M36 83h4M42 83h6M50 83h3M55 83h17M74 83h11M97 83h3M104 83h3M108 83h4M113 83h3M119 83h3M189 83h3M196 83h5M208 83h10M222 83h5M230 83h2M240 83h3M15 84h2M20 84h9M30 84h5M36 84h4M42 84h3M46 84h2M50 84h2M55 84h17M74 84h13M95 84h5M102 84h1M104 84h4M109 84h4M114 84h2M119 84h4M189 84h3M195 84h5M207 84h10M221 84h4M230 84h2M239 84h3M15 85h2M20 85h9M30 85h5M36 85h5M42 85h3M46 85h2M51 85h1M54 85h19M75 85h15M92 85h8M104 85h1M106 85h2M109 85h4M114 85h3M120 85h4M189 85h2M195 85h5M206 85h10M220 85h4M230 85h3M239 85h3M15 86h2M21 86h8M30 86h5M37 86h4M42 86h3M46 86h2M54 86h19M75 86h26M103 86h1M106 86h3M110 86h3M114 86h4M121 86h3M188 86h3M195 86h4M205 86h10M219 86h4M230 86h3M239 86h2M15 87h2M21 87h8M31 87h4M37 87h4M42 87h3M46 87h2M53 87h20M75 87h26M102 87h2M107 87h2M110 87h4M115 87h4M122 87h2M187 87h4M194 87h5M204 87h3M212 87h1M218 87h4M231 87h2M238 87h3M15 88h3M22 88h8M31 88h5M37 88h4M43 88h3M47 88h2M53 88h20M75 88h26M102 88h2M106 88h1M109 88h5M115 88h4M122 88h2M186 88h4M194 88h6M202 88h3M216 88h5M231 88h3M237 88h4M15 89h3M23 89h7M31 89h5M37 89h4M43 89h3M47 89h2M53 89h20M75 89h26M102 89h2M108 89h1M112 89h2M115 89h4M122 89h2M185 89h4M192 89h10M211 89h1M215 89h5M231 89h9M16 90h3M24 90h6M31 90h5M38 90h3M43 90h3M47 90h2M54 90h19M75 90h25M102 90h2M116 90h3M122 90h2M184 90h4M192 90h9M208 90h5M216 90h3M232 90h7M13 91h7M26 91h4M32 91h4M38 91h4M43 91h3M47 91h2M51 91h1M54 91h19M75 91h25M102 91h2M106 91h1M122 91h2M183 91h4M191 91h8M206 91h7M217 91h3M12 92h10M26 92h4M32 92h4M38 92h4M43 92h5M51 92h1M54 92h18M75 92h25M102 92h2M107 92h1M121 92h3M182 92h4M191 92h7M204 92h10M217 92h4M12 93h3M19 93h4M27 93h4M32 93h5M38 93h4M44 93h4M51 93h1M55 93h17M74 93h26M102 93h2M107 93h4M120 93h4M180 93h5M190 93h7M202 93h13M218 93h3M12 94h2M25 94h1M27 94h4M33 94h4M38 94h4M44 94h4M51 94h2M56 94h15M74 94h25M102 94h3M108 94h7M117 94h6M178 94h6M189 94h7M201 94h15M219 94h3" />
<path stroke="#000000" d="M51 3h2M43 4h16M40 5h8M56 5h6M37 6h6M60 6h4M34 7h6M62 7h3M32 8h5M64 8h2M30 9h5M62 9h2M65 9h2M28 10h4M62 10h2M65 10h3M26 11h5M62 11h2M66 11h2M25 12h4M61 12h2M66 12h2M23 13h4M61 13h2M66 13h2M21 14h4M61 14h2M66 14h2M20 15h4M60 15h2M65 15h3M19 16h3M59 16h3M66 16h2M17 17h4M59 17h2M66 17h3M16 18h4M58 18h3M66 18h3M15 19h3M57 19h3M66 19h13M14 20h3M57 20h3M66 20h15M13 21h3M56 21h3M67 21h3M78 21h4M12 22h3M55 22h3M67 22h4M80 22h3M11 23h3M54 23h3M68 23h4M81 23h3M10 24h3M53 24h4M69 24h4M83 24h2M9 25h4M52 25h4M69 25h5M83 25h3M9 26h3M51 26h4M70 26h6M84 26h2M8 27h3M50 27h4M71 27h6M84 27h2M7 28h3M49 28h4M71 28h6M85 28h1M7 29h3M47 29h5M72 29h5M85 29h2M6 30h3M46 30h5M72 30h4M85 30h2M6 31h3M45 31h4M72 31h4M85 31h2M5 32h3M43 32h5M71 32h5M85 32h2M5 33h3M41 33h6M71 33h5M85 33h2M5 34h2M40 34h5M71 34h4M85 34h2M5 35h2M38 35h6M70 35h5M85 35h5M4 36h3M36 36h6M70 36h4M85 36h7M4 37h3M34 37h7M69 37h5M85 37h9M4 38h3M32 38h7M69 38h4M84 38h3M88 38h8M4 39h3M29 39h8M68 39h5M84 39h3M91 39h6M249 39h2M5 40h2M26 40h9M68 40h4M84 40h3M93 40h6M247 40h4M5 41h2M23 41h9M67 41h4M84 41h2M92 41h1M95 41h5M246 41h5M5 42h2M18 42h12M66 42h4M83 42h3M92 42h1M96 42h5M245 42h6M5 43h22M65 43h4M83 43h3M97 43h5M244 43h7M5 44h18M65 44h3M82 44h3M87 44h1M93 44h1M98 44h5M224 44h4M242 44h9M6 45h12M64 45h3M82 45h3M87 45h1M93 45h1M99 45h5M224 45h6M241 45h6M248 45h3M7 46h5M15 46h3M62 46h4M81 46h3M87 46h1M93 46h1M100 46h5M224 46h8M240 46h6M247 46h3M8 47h11M61 47h4M79 47h5M88 47h1M94 47h1M100 47h5M224 47h9M238 47h6M247 47h3M9 48h10M60 48h4M79 48h4M88 48h1M94 48h1M100 48h6M224 48h11M237 48h6M247 48h3M10 49h10M59 49h4M79 49h3M83 49h1M88 49h1M94 49h1M101 49h6M224 49h4M230 49h12M247 49h3M11 50h10M57 50h5M78 50h4M83 50h1M89 50h1M95 50h1M101 50h6M225 50h3M231 50h9M246 50h4M12 51h9M56 51h5M77 51h4M89 51h1M95 51h1M101 51h1M103 51h5M225 51h4M233 51h5M246 51h3M13 52h9M54 52h6M76 52h5M84 52h1M89 52h1M95 52h1M102 52h6M225 52h4M235 52h2M246 52h3M14 53h9M53 53h5M75 53h5M84 53h1M90 53h1M96 53h1M102 53h1M104 53h4M225 53h4M246 53h3M15 54h9M51 54h6M74 54h5M90 54h1M96 54h1M102 54h6M226 54h3M246 54h3M15 55h9M50 55h5M73 55h5M85 55h1M90 55h2M96 55h2M103 55h5M226 55h3M245 55h3M16 56h9M48 56h6M72 56h6M85 56h1M91 56h1M97 56h1M103 56h5M218 56h11M245 56h3M16 57h10M47 57h5M71 57h10M91 57h1M97 57h1M104 57h4M214 57h15M245 57h3M14 58h12M45 58h5M70 58h6M78 58h7M97 58h2M104 58h3M212 58h15M245 58h3M13 59h14M43 59h5M69 59h6M82 59h7M92 59h1M98 59h1M103 59h4M211 59h11M246 59h4M12 60h16M40 60h6M67 60h7M85 60h7M98 60h2M105 60h3M211 60h6M247 60h4M12 61h12M25 61h3M37 61h6M66 61h7M90 61h5M98 61h2M106 61h7M211 61h7M248 61h4M11 62h13M26 62h3M35 62h6M65 62h7M99 62h1M108 62h5M212 62h7M249 62h4M10 63h14M27 63h3M34 63h4M63 63h11M87 63h4M99 63h2M102 63h2M109 63h4M214 63h6M229 63h4M250 63h4M10 64h15M27 64h7M62 64h8M72 64h5M84 64h10M100 64h1M103 64h9M215 64h6M227 64h7M251 64h4M10 65h15M28 65h3M61 65h7M73 65h4M83 65h13M101 65h1M103 65h7M217 65h4M226 65h3M231 65h3M252 65h4M9 66h15M29 66h3M60 66h6M67 66h8M82 66h3M94 66h3M102 66h1M104 66h3M224 66h4M232 66h3M253 66h4M9 67h13M31 67h1M59 67h5M69 67h3M81 67h3M95 67h3M106 67h2M198 67h5M223 67h4M233 67h2M242 67h8M254 67h4M9 68h13M58 68h5M81 68h2M95 68h1M97 68h2M107 68h2M197 68h7M221 68h5M233 68h2M243 68h10M255 68h4M8 69h14M57 69h5M80 69h2M95 69h1M97 69h2M108 69h2M197 69h9M220 69h5M233 69h2M242 69h2M245 69h15M8 70h13M55 70h6M80 70h2M96 70h3M108 70h2M197 70h2M202 70h5M218 70h6M232 70h2M241 70h3M247 70h13M8 71h13M53 71h7M80 71h2M96 71h1M98 71h2M109 71h1M196 71h2M205 71h2M217 71h5M231 71h3M241 71h3M250 71h9M8 72h4M14 72h7M51 72h8M80 72h2M96 72h1M98 72h2M102 72h1M107 72h3M196 72h2M205 72h2M215 72h6M230 72h3M241 72h2M9 73h3M15 73h5M49 73h9M80 73h2M98 73h2M102 73h7M195 73h3M204 73h3M214 73h6M229 73h3M240 73h3M9 74h4M15 74h5M47 74h9M80 74h2M98 74h2M103 74h4M195 74h3M204 74h2M213 74h5M228 74h3M240 74h3M10 75h4M15 75h4M44 75h11M80 75h2M98 75h2M104 75h5M194 75h4M204 75h2M211 75h6M227 75h4M232 75h1M239 75h4M11 76h7M24 76h1M39 76h14M76 76h7M98 76h3M105 76h1M107 76h3M194 76h3M204 76h2M210 76h6M226 76h4M232 76h1M239 76h3M13 77h39M75 77h8M97 77h4M105 77h1M109 77h3M194 77h3M203 77h2M209 77h5M225 77h4M231 77h3M239 77h3M14 78h35M58 78h8M74 78h2M81 78h2M98 78h2M101 78h1M110 78h3M193 78h4M203 78h2M208 78h5M224 78h4M231 78h3M238 78h4M16 79h33M56 79h11M68 79h2M73 79h1M82 79h2M97 79h3M101 79h1M106 79h1M111 79h3M193 79h4M203 79h2M207 79h5M223 79h4M231 79h3M238 79h3M18 80h5M27 80h18M47 80h2M55 80h6M67 80h1M69 80h2M72 80h1M82 80h3M97 80h3M101 80h1M106 80h1M111 80h4M193 80h3M202 80h2M206 80h5M222 80h4M231 80h4M237 80h4M17 81h4M28 81h11M40 81h1M44 81h1M47 81h2M54 81h4M70 81h2M83 81h3M96 81h5M102 81h1M107 81h1M113 81h4M193 81h3M202 81h2M205 81h5M220 81h5M232 81h3M237 81h4M17 82h3M33 82h5M40 82h1M44 82h1M47 82h3M53 82h3M71 82h2M84 82h4M95 82h3M100 82h1M102 82h1M107 82h1M112 82h1M115 82h3M192 82h4M201 82h2M204 82h5M219 82h4M232 82h3M237 82h3M17 83h3M29 83h1M35 83h1M40 83h2M48 83h2M53 83h2M72 83h2M85 83h12M100 83h4M107 83h1M112 83h1M116 83h3M192 83h4M201 83h7M218 83h4M232 83h8M17 84h3M29 84h1M35 84h1M40 84h2M45 84h1M48 84h2M52 84h3M72 84h2M87 84h8M100 84h2M103 84h1M108 84h1M113 84h1M116 84h3M192 84h3M200 84h7M217 84h4M232 84h7M17 85h3M29 85h1M35 85h1M41 85h1M45 85h1M48 85h3M52 85h2M73 85h2M90 85h2M100 85h4M105 85h1M108 85h1M113 85h1M117 85h3M191 85h4M200 85h6M216 85h4M233 85h6M17 86h4M29 86h1M35 86h2M41 86h1M45 86h1M48 86h6M73 86h2M101 86h2M104 86h2M109 86h1M113 86h1M118 86h3M191 86h4M199 86h6M215 86h4M233 86h6M17 87h4M29 87h2M35 87h2M41 87h1M45 87h1M48 87h5M73 87h2M101 87h1M104 87h3M109 87h1M114 87h1M119 87h3M191 87h3M199 87h5M207 87h5M213 87h5M233 87h5M18 88h4M30 88h1M36 88h1M41 88h2M46 88h1M49 88h4M73 88h2M101 88h1M104 88h2M107 88h2M114 88h1M119 88h3M190 88h4M200 88h2M205 88h11M234 88h3M18 89h5M30 89h1M36 89h1M41 89h2M46 89h1M49 89h4M73 89h2M101 89h1M104 89h4M109 89h3M114 89h1M119 89h3M189 89h3M202 89h9M212 89h3M19 90h5M30 90h1M36 90h2M41 90h2M46 90h1M49 90h5M73 90h2M100 90h2M104 90h12M119 90h3M188 90h4M201 90h7M213 90h3M20 91h6M30 91h2M36 91h2M42 91h1M46 91h1M49 91h2M52 91h2M73 91h2M100 91h2M104 91h2M107 91h15M187 91h4M199 91h7M213 91h4M22 92h4M30 92h2M36 92h2M42 92h1M48 92h3M52 92h2M72 92h3M100 92h2M104 92h3M108 92h13M186 92h5M198 92h6M214 92h3M15 93h4M23 93h4M31 93h1M37 93h1M42 93h2M48 93h3M52 93h3M72 93h2M100 93h2M104 93h3M111 93h9M185 93h5M197 93h5M215 93h3M14 94h11M26 94h1M31 94h2M37 94h1M42 94h2M48 94h3M53 94h3M71 94h3M99 94h3M105 94h3M115 94h2M184 94h5M196 94h5M216 94h3M15 95h10M26 95h1M31 95h2M37 95h2M41 95h3M47 95h3M54 95h3M69 95h4M99 95h2M105 95h3M182 95h6M196 95h4M216 95h3M17 96h7M31 96h2M37 96h2M41 96h9M55 96h4M67 96h5M98 96h3M106 96h4M180 96h7M196 96h3M217 96h3M17 97h3M27 97h1M32 97h1M37 97h2M41 97h7M56 97h15M98 97h2M103 97h8M177 97h9M196 97h2M218 97h3M17 98h4M27 98h1M32 98h2M38 98h1M42 98h2M58 98h11M83 98h3M97 98h3M103 98h10M174 98h11M196 98h2M218 98h3M17 99h5M27 99h1M32 99h2M38 99h2M42 99h2M50 99h1M61 99h5M81 99h4M97 99h2M102 99h12M173 99h11M195 99h3M219 99h3M18 100h5M27 100h1M32 100h2M38 100h2M43 100h2M50 100h2M79 100h2M96 100h3M102 100h3M110 100h3M166 100h16M195 100h3M219 100h3M18 101h6M25 101h1M28 101h1M33 101h1M38 101h2M43 101h3M50 101h3M95 101h3M101 101h4M163 101h16M195 101h4M220 101h3M20 102h6M28 102h1M33 102h2M38 102h2M44 102h3M50 102h3M95 102h3M100 102h5M159 102h12M172 102h4M196 102h3M220 102h3M21 103h3M25 103h1M28 103h1M33 103h2M36 103h2M39 103h1M45 103h9M94 103h11M156 103h13M173 103h4M196 103h3M220 103h4M19 104h4M25 104h1M28 104h1M33 104h2M38 104h3M46 104h8M93 104h12M152 104h15M174 104h4M196 104h3M221 104h3M18 105h5M29 105h1M34 105h1M38 105h9M48 105h7M92 105h12M149 105h12M166 105h1M175 105h4M196 105h4M221 105h3M18 106h4M26 106h1M29 106h1M34 106h2M38 106h19M91 106h3M95 106h7M146 106h12M166 106h2M176 106h4M196 106h4M222 106h3M17 107h4M26 107h1M29 107h1M34 107h2M38 107h19M89 107h4M94 107h5M143 107h11M166 107h2M176 107h5M197 107h4M222 107h3M16 108h4M26 108h1M35 108h1M37 108h20M88 108h10M140 108h11M152 108h2M167 108h2M177 108h5M187 108h3M197 108h4M222 108h3M16 109h3M25 109h1M37 109h20M87 109h11M136 109h12M153 109h1M167 109h2M178 109h4M186 109h5M198 109h4M222 109h4M16 110h3M26 110h2M37 110h4M42 110h16M85 110h13M133 110h12M153 110h2M167 110h3M179 110h4M186 110h7M198 110h4M222 110h3M15 111h5M26 111h4M36 111h5M44 111h8M53 111h6M83 111h5M92 111h5M130 111h11M153 111h2M168 111h2M180 111h4M186 111h8M199 111h4M221 111h4M16 112h5M24 112h16M53 112h7M61 112h1M81 112h6M127 112h11M139 112h2M153 112h3M168 112h3M180 112h24M220 112h5M16 113h24M53 113h8M62 113h3M77 113h11M124 113h11M139 113h2M154 113h2M169 113h2M181 113h23M218 113h6M17 114h11M29 114h10M54 114h7M64 114h19M85 114h8M120 114h11M140 114h2M154 114h3M169 114h3M182 114h23M216 114h6M18 115h19M53 115h8M66 115h14M86 115h14M117 115h12M140 115h2M155 115h2M170 115h2M182 115h16M201 115h5M212 115h9M19 116h11M53 116h8M72 116h3M89 116h18M113 116h11M140 116h3M155 116h3M170 116h3M183 116h10M202 116h17M21 117h7M52 117h9M78 117h1M93 117h14M108 117h12M129 117h1M141 117h2M156 117h2M171 117h2M184 117h10M203 117h14M24 118h2M51 118h10M78 118h1M98 118h22M129 118h1M141 118h3M156 118h3M171 118h3M185 118h10M205 118h9M49 119h11M78 119h1M84 119h2M104 119h17M130 119h2M142 119h2M157 119h2M172 119h2M185 119h10M48 120h11M78 120h2M83 120h3M104 120h17M130 120h2M142 120h3M157 120h3M173 120h2M186 120h10M46 121h13M79 121h2M84 121h3M104 121h17M130 121h2M143 121h2M158 121h3M173 121h3M186 121h11M39 122h4M46 122h14M84 122h3M104 122h18M130 122h2M143 122h3M159 122h2M174 122h2M187 122h10M34 123h9M45 123h8M54 123h7M84 123h3M104 123h18M130 123h2M144 123h2M159 123h3M174 123h3M188 123h10M29 124h23M57 124h6M84 124h3M104 124h19M130 124h3M144 124h3M160 124h3M175 124h2M188 124h11M25 125h25M58 125h6M84 125h3M104 125h19M130 125h3M145 125h2M160 125h3M176 125h2M189 125h11M21 126h26M59 126h7M84 126h3M104 126h20M131 126h3M145 126h3M161 126h3M176 126h3M189 126h11M17 127h29M60 127h7M84 127h3M104 127h26M131 127h3M146 127h2M162 127h3M177 127h2M190 127h11" />
<path stroke="#ffbf7f" d="M0 95h15M25 95h1M27 95h4M33 95h4M39 95h2M44 95h3M50 95h4M57 95h12M73 95h26M101 95h4M108 95h74M188 95h8M200 95h16M219 95h4M0 96h17M24 96h7M33 96h4M39 96h2M50 96h5M59 96h8M72 96h26M101 96h5M110 96h70M187 96h9M199 96h18M220 96h4M0 97h17M20 97h7M28 97h4M33 97h4M39 97h2M48 97h8M71 97h27M100 97h3M111 97h66M186 97h10M198 97h20M221 97h3M0 98h17M21 98h6M28 98h4M34 98h4M39 98h3M44 98h14M69 98h14M86 98h11M100 98h3M113 98h61M185 98h11M198 98h20M221 98h3M0 99h17M22 99h5M28 99h4M34 99h4M40 99h2M44 99h6M51 99h10M66 99h15M85 99h12M99 99h3M114 99h59M184 99h11M198 99h21M222 99h3M0 100h18M23 100h4M28 100h4M34 100h4M40 100h3M45 100h5M52 100h27M81 100h15M99 100h3M105 100h5M113 100h53M182 100h13M198 100h21M222 100h3M0 101h18M24 101h1M26 101h2M29 101h4M34 101h4M40 101h3M46 101h4M53 101h42M98 101h3M105 101h58M179 101h16M199 101h21M223 101h3M0 102h20M26 102h2M29 102h4M35 102h3M40 102h4M47 102h3M53 102h42M98 102h2M105 102h54M171 102h1M176 102h20M199 102h21M223 102h3M0 103h21M24 103h1M26 103h2M29 103h4M35 103h1M38 103h1M40 103h5M54 103h40M105 103h51M169 103h4M177 103h19M199 103h21M224 103h2M0 104h19M23 104h2M26 104h2M29 104h4M35 104h3M41 104h5M54 104h39M105 104h47M167 104h7M178 104h18M199 104h22M224 104h3M0 105h18M23 105h6M30 105h4M35 105h3M47 105h1M55 105h37M104 105h45M161 105h5M167 105h8M179 105h17M200 105h21M224 105h3M0 106h18M22 106h4M27 106h2M30 106h4M36 106h2M57 106h34M94 106h1M102 106h44M158 106h8M168 106h8M180 106h16M200 106h22M225 106h2M0 107h17M21 107h5M27 107h2M30 107h4M36 107h2M57 107h32M93 107h1M99 107h44M154 107h12M168 107h8M181 107h16M201 107h21M225 107h3M0 108h16M20 108h6M27 108h8M36 108h1M57 108h31M98 108h42M151 108h1M154 108h13M169 108h8M182 108h5M190 108h7M201 108h21M225 108h3M0 109h16M19 109h6M26 109h11M57 109h30M98 109h38M148 109h5M154 109h13M169 109h9M182 109h4M191 109h7M202 109h20M226 109h2M0 110h16M19 110h7M28 110h9M41 110h1M58 110h27M98 110h35M145 110h8M155 110h12M170 110h9M183 110h3M193 110h5M202 110h20M225 110h3M0 111h15M20 111h6M30 111h6M41 111h3M52 111h1M59 111h24M88 111h4M97 111h33M141 111h12M155 111h13M170 111h10M184 111h2M194 111h5M203 111h18M225 111h3M0 112h16M21 112h3M40 112h13M60 112h1M62 112h19M87 112h40M138 112h1M141 112h12M156 112h12M171 112h9M204 112h16M225 112h2M0 113h16M40 113h13M61 113h1M65 113h12M88 113h36M135 113h4M141 113h13M156 113h13M171 113h10M204 113h14M224 113h3M0 114h17M28 114h1M39 114h15M61 114h3M83 114h2M93 114h27M131 114h9M142 114h12M157 114h12M172 114h10M205 114h11M222 114h5M0 115h18M37 115h16M61 115h5M80 115h6M100 115h17M129 115h11M142 115h13M157 115h13M172 115h10M198 115h3M206 115h6M221 115h5M0 116h19M30 116h23M61 116h11M75 116h14M107 116h6M124 116h16M143 116h12M158 116h12M173 116h10M193 116h9M219 116h5M0 117h21M28 117h24M61 117h17M79 117h14M107 117h1M120 117h9M130 117h11M143 117h13M158 117h13M173 117h11M194 117h9M217 117h6M0 118h24M26 118h25M61 118h17M79 118h19M120 118h9M130 118h11M144 118h12M159 118h12M174 118h11M195 118h3M200 118h5M214 118h7M0 119h49M60 119h18M79 119h5M86 119h18M121 119h9M132 119h10M144 119h13M159 119h13M174 119h11M195 119h4M201 119h18M0 120h48M59 120h19M80 120h3M86 120h18M121 120h9M132 120h10M145 120h12M160 120h13M175 120h11M196 120h3M203 120h13M0 121h46M59 121h20M81 121h3M87 121h17M121 121h9M132 121h11M145 121h13M161 121h12M176 121h10M197 121h3M0 122h39M43 122h3M60 122h24M87 122h17M122 122h8M132 122h11M146 122h13M161 122h13M176 122h11M197 122h4M0 123h34M43 123h2M53 123h1M61 123h23M87 123h17M122 123h8M132 123h12M146 123h13M162 123h12M177 123h11M198 123h4M0 124h29M52 124h5M63 124h21M87 124h17M123 124h7M133 124h11M147 124h13M163 124h12M177 124h11M199 124h3M0 125h25M50 125h8M64 125h20M87 125h17M123 125h7M133 125h12M147 125h13M163 125h13M178 125h11M200 125h3M0 126h21M47 126h12M66 126h18M87 126h17M124 126h7M134 126h11M148 126h13M164 126h12M179 126h10M200 126h3M0 127h17M46 127h14M67 127h17M87 127h17M130 127h1M134 127h12M148 127h14M165 127h12M179 127h11M201 127h3" />
</svg>